<?xml version="1.0" standalone="no"?>
<!DOCTYPE svg PUBLIC "-//W3C//DTD SVG 1.1//EN" "http://www.w3.org/Graphics/SVG/1.1/DTD/svg11.dtd" >
<svg xmlns="http://www.w3.org/2000/svg" width="100%" height="100%">
<metadata>
Created by FontForge 20090622 at Thu May  2 15:47:04 2013
 By fontface
&#194;&#169; 1990, 1991, 1993, 2001, 2002 Adobe Systems Incorporated. All rights reserved.
</metadata>
<defs>
<font id="BirchStd" horiz-adv-x="1228" >
  <font-face 
    font-family="Birch Std"
    font-weight="400"
    font-stretch="normal"
    units-per-em="2048"
    panose-1="3 6 5 2 4 7 5 6 2 4"
    ascent="1536"
    descent="-512"
    x-height="1139"
    cap-height="1536"
    bbox="-166 -512 2048 1896"
    underline-thickness="102"
    underline-position="-102"
    unicode-range="U+0020-U+FB02"
  />
<missing-glyph horiz-adv-x="1024" 
d="M0 0v1434h1024v-1434h-1024zM512 809l348 522h-696zM573 717l349 -522v1044zM164 102h696l-348 523zM102 1239v-1044l349 522z" />
    <glyph glyph-name="f_i" unicode="fi" horiz-adv-x="630" 
d="M401 113v927q0 11 -6 17l-61 57q-8 12 -8 16q0 9 12 9h197q10 0 10 -13v-1013q0 -15 4 -19l63 -71q9 -9 9 -15q0 -8 -13 -8h-270q-12 0 -12 8q0 7 8 15l63 71q4 4 4 19zM86 113v901q0 14 -18 37l-62 63q-6 5 -7.5 11t0.5 10t7 4h64q16 0 16 18v68q0 73 25.5 134.5
t66 98.5t87.5 57.5t93 20.5q195 0 195 -106q0 -40 -21 -63.5t-53 -23.5q-25 0 -43.5 18.5t-23.5 41.5q-5 27 -23 44t-47 17q-55 0 -84 -55.5t-29 -196.5v-55q0 -18 17 -18h61q5 0 7 -4t0.5 -10t-7.5 -11l-61 -63q-17 -21 -17 -37v-901q0 -15 2 -19l76 -71q8 -8 8 -15
q0 -8 -12 -8h-280q-13 0 -13 8q0 10 8 15l64 71q4 4 4 19z" />
    <glyph glyph-name="f_l" unicode="fl" horiz-adv-x="638" 
d="M86 113v901q0 14 -18 37l-62 63q-6 5 -7.5 11t0.5 10t7 4h64q16 0 16 18v68q0 73 25.5 134.5t66 98.5t87.5 57.5t93 20.5h185q10 0 10 -12v-1411q0 -15 4 -19l64 -71q8 -8 8 -15q0 -8 -13 -8h-270q-12 0 -12 8q0 7 8 15l64 71q4 4 4 19v1325q0 10 -27 18t-41 8
q-55 0 -84 -55.5t-29 -196.5v-55q0 -18 17 -18h61q5 0 7 -4t0.5 -10t-7.5 -11l-61 -63q-17 -21 -17 -37v-901q0 -15 2 -19l76 -71q8 -8 8 -15q0 -8 -12 -8h-280q-13 0 -13 8q0 10 8 15l64 71q4 4 4 19z" />
    <glyph glyph-name=".notdef" horiz-adv-x="1024" 
d="M0 0v1434h1024v-1434h-1024zM512 809l348 522h-696zM573 717l349 -522v1044zM164 102h696l-348 523zM102 1239v-1044l349 522z" />
    <glyph glyph-name=".null" horiz-adv-x="0" 
 />
    <glyph glyph-name="nonmarkingreturn" horiz-adv-x="682" 
 />
    <glyph glyph-name="space" unicode=" " horiz-adv-x="245" 
 />
    <glyph glyph-name="exclam" unicode="!" horiz-adv-x="299" 
d="M127 401l-61 1006q-5 66 14 97.5t70 31.5t69.5 -31.5t13.5 -97.5l-61 -1006q-4 -32 -22 -32q-19 0 -23 32zM150 207q38 0 55.5 -30.5t17.5 -74.5q0 -42 -17.5 -72t-55.5 -30q-37 0 -55.5 30.5t-18.5 71.5q0 43 18.5 74t55.5 31z" />
    <glyph glyph-name="quotedbl" unicode="&#x22;" horiz-adv-x="526" 
d="M137 1561q29 0 45.5 -25.5t16.5 -62.5q0 -20 -6 -90.5l-14.5 -169.5l-12.5 -148q-5 -55 -29 -55q-12 0 -18.5 12t-9.5 43l-12.5 148l-14.5 169.5t-6 90.5q0 38 16 63t45 25zM389 1561q29 0 45.5 -25.5t16.5 -62.5q0 -20 -6 -90.5l-14.5 -169.5l-12.5 -148q-5 -55 -29 -55
t-29 55l-12.5 147.5l-14 170.5t-5.5 90q0 38 16 63t45 25z" />
    <glyph glyph-name="numbersign" unicode="#" 
d="M1055 557l8 -92h-227l-66 -465h-102l65 465h-289l-65 -465h-103l66 465h-225l-8 92h245l45 320h-225l-8 92h246l65 465h103l-66 -465h289l65 465h103l-66 -465h207l8 -92h-227l-45 -320h207zM791 877h-289l-45 -320h288z" />
    <glyph glyph-name="dollar" unicode="$" horiz-adv-x="628" 
d="M268 1016v348q-30 -3 -48.5 -39.5t-18.5 -81.5q0 -86 63 -227h4zM354 555v-367q35 3 56.5 40.5t21.5 93.5q0 85 -35 157l-39 76h-4zM354 1364v-518l129 -248q60 -114 60 -238q0 -55 -13 -100t-33 -73.5t-46.5 -48.5t-50 -28.5t-46.5 -11.5l8 -98h-102l8 98
q-75 6 -127.5 110.5t-52.5 244.5q0 22 16 22q8 0 13.5 -6.5t5.5 -15.5q0 -88 45.5 -175t99.5 -90v543l-75 148q-54 106 -74.5 180.5t-20.5 169.5q0 91 51.5 153t118.5 72l-8 82h102l-8 -82q72 -6 130.5 -107.5t58.5 -236.5q0 -8 -5 -14t-12 -6q-18 0 -18 20q0 73 -51.5 162
t-102.5 92z" />
    <glyph glyph-name="percent" unicode="%" horiz-adv-x="944" 
d="M711 682q-12 0 -22.5 -6.5t-22.5 -27t-21 -53.5t-14.5 -90.5t-5.5 -133.5t5.5 -134t14.5 -91t21 -54t22.5 -28t22.5 -7t23 7t23 28t21 54t15 91t6 134t-6 133.5t-15 90.5t-21 53.5t-23 27t-23 6.5zM721 1513l-412 -1513l-88 23l412 1513zM231 1479q-12 0 -22.5 -7
t-22.5 -27.5t-21 -53.5t-14.5 -90.5t-5.5 -133.5t5.5 -133.5t14.5 -91t21 -54t22.5 -27.5t22.5 -7t23 7t23 27.5t21 54t15 91t6 133.5t-6 133.5t-15 90.5t-21 54t-23 27.5t-23 6.5zM711 739q28 0 55 -9.5t55.5 -35.5t50 -65.5t35 -106t13.5 -151.5q0 -105 -20 -182t-53 -116
t-66.5 -56t-69.5 -17q-35 0 -68.5 17t-66 56t-52.5 116t-20 182t20 181t52.5 114.5t66 55.5t68.5 17zM231 1536q36 0 69.5 -17t66.5 -56t53 -115t20 -181q0 -85 -13.5 -152t-35 -107t-50 -66t-55.5 -35.5t-55 -9.5q-27 0 -53.5 9.5t-55 35.5t-49.5 66t-34.5 107t-13.5 152
q0 105 20 181.5t52.5 115t65.5 55.5t68 17z" />
    <glyph glyph-name="ampersand" unicode="&#x26;" horiz-adv-x="788" 
d="M496 756h280q12 0 12 -11q0 -12 -12 -18l-65 -61q0 -226 -23.5 -344.5t-79.5 -186.5q18 -37 45 -37q25 0 51 22.5t39 45.5q5 8 12 7t7 -11q0 -57 -38.5 -109.5t-109.5 -52.5q-63 0 -106 43q-62 -43 -143 -43q-151 0 -237.5 99t-86.5 261q0 131 40.5 224t119.5 196l39 51
l-21 82q-47 180 -47 344q0 120 59 199.5t150 79.5q82 0 128 -61.5t46 -169.5q0 -210 -147 -426l-27 -39l18 -72q92 -364 150 -514q21 31 36 123t9.5 186.5t-37.5 120.5l-61 45q-15 11 -15 16q0 11 15 11zM301 586l-25 98q-90 -104 -90 -295q0 -129 54 -210t125 -81
q56 0 86 33q-75 163 -150 455zM346 973l21 28q37 52 62.5 133t25.5 162q0 142 -76 142q-46 0 -69 -48t-21.5 -124t24.5 -164z" />
    <glyph glyph-name="quotesingle" unicode="'" horiz-adv-x="274" 
d="M137 1561q29 0 45.5 -25.5t16.5 -62.5q0 -20 -6 -90.5l-14.5 -169.5l-12.5 -148q-5 -55 -29 -55q-12 0 -18.5 12t-9.5 43l-12.5 148l-14.5 169.5t-6 90.5q0 38 16 63t45 25z" />
    <glyph glyph-name="parenleft" unicode="(" horiz-adv-x="462" 
d="M74 782q0 147 25 274.5t63.5 212t87.5 147.5t93 94t83 40q13 3 16.5 -10.5t-8.5 -19.5q-30 -15 -63 -65.5t-65 -136t-52.5 -226t-20.5 -310.5q0 -180 20.5 -327t52.5 -235t64.5 -138.5t63.5 -65.5q12 -6 8.5 -19.5t-16.5 -10.5q-39 9 -83 40t-93 95.5t-87.5 151.5
t-63.5 220t-25 289z" />
    <glyph glyph-name="parenright" unicode=")" horiz-adv-x="462" 
d="M389 782q0 -156 -25 -289t-63.5 -220t-87.5 -151.5t-93 -95.5t-83 -40q-13 -3 -16.5 10.5t8.5 19.5q31 15 63 65.5t64 138.5t52.5 235t20.5 327q0 137 -14 256.5t-35 200.5t-48.5 142.5t-53 94t-49.5 44.5q-12 6 -8.5 19.5t16.5 10.5q39 -9 83 -40t93 -94t87.5 -147.5
t63.5 -212t25 -274.5z" />
    <glyph glyph-name="asterisk" unicode="*" horiz-adv-x="569" 
d="M236 1315l36 211q2 10 13 10t12 -10l37 -211l174 22q9 1 11.5 -7t-5.5 -13l-166 -96l115 -215q4 -9 -2.5 -15t-14.5 0l-159 148l-164 -148q-8 -6 -14.5 0t-2.5 15l115 215l-166 96q-8 5 -5.5 13t11.5 7z" />
    <glyph glyph-name="plus" unicode="+" 
d="M563 569v467h103v-467h464v-102h-464v-467h-103v467h-465v102h465z" />
    <glyph glyph-name="comma" unicode="," horiz-adv-x="198" 
d="M98 207q76 0 76 -141q0 -64 -13.5 -119.5t-33 -90t-41.5 -60t-38 -36t-23 -10.5q-11 0 -11 10q0 3 5.5 9l13.5 14.5t12 15.5q39 61 53 122t-2 79q-32 3 -51.5 31.5t-19.5 74.5q0 45 20 73t53 28z" />
    <glyph glyph-name="hyphen" unicode="-" horiz-adv-x="393" 
d="M57 692h279v-86h-279v86z" />
    <glyph glyph-name="period" unicode="." horiz-adv-x="198" 
d="M98 207q38 0 57 -31t19 -74q0 -42 -19 -72t-57 -30q-37 0 -55 30t-18 72q0 43 18 74t55 31z" />
    <glyph glyph-name="slash" unicode="/" horiz-adv-x="462" 
d="M463 1516l-357 -1516l-106 20l356 1516z" />
    <glyph glyph-name="zero" unicode="0" horiz-adv-x="628" 
d="M315 1536q73 0 125.5 -58.5t80 -161.5t39 -217t11.5 -249q0 -157 -7 -280t-24.5 -232.5t-46 -182t-73.5 -114t-105 -41.5q-75 0 -127 61t-80 180t-39.5 265t-11.5 344q0 107 6.5 199.5t24.5 184.5t46.5 157t74.5 105t106 40zM315 102q40 0 61.5 61t32.5 225t11 468
q0 322 -23.5 450t-81.5 128q-59 0 -82.5 -127t-23.5 -451q0 -231 5.5 -375.5t18.5 -230t32 -117t50 -31.5z" />
    <glyph glyph-name="one" unicode="1" horiz-adv-x="393" 
d="M125 147v1141q0 19 -14 25l-93 51q-10 7 -10 14q0 10 21 17q58 19 112.5 56.5t79.5 70.5q11 14 19 14h24q10 0 10 -10q0 -18 -3 -93t-3 -130v-1156q0 -38 19 -57l61 -59q14 -14 14 -19q0 -12 -12 -12h-307q-12 0 -12 12q0 5 14 19l61 59q19 19 19 57z" />
    <glyph glyph-name="two" unicode="2" horiz-adv-x="548" 
d="M459 0h-414q-19 0 -4 29l41 73q-6 93 -6 111q0 175 119 393q147 264 147 604q0 126 -19 175t-73 49q-35 0 -71 -32t-60.5 -76.5t-39 -76t-18.5 -45.5q-6 -20 -24 -20q-15 0 -12 26q17 137 92.5 231.5t171.5 94.5q97 0 151 -86.5t54 -249.5q0 -353 -195 -665
q-100 -160 -100 -302q0 -78 24 -102h156q18 0 29 29l63 168q8 24 18 24q11 0 11 -18l-23 -316q0 -8 -5.5 -13t-12.5 -5z" />
    <glyph glyph-name="three" unicode="3" horiz-adv-x="567" 
d="M160 786v29q0 16 18 16q73 0 126.5 71.5t53.5 232.5q0 159 -23.5 229t-82.5 70q-35 0 -71 -32t-60.5 -76.5t-39 -76t-18.5 -45.5q-6 -20 -24 -20q-15 0 -12 26q17 137 92.5 231.5t171.5 94.5q98 0 158.5 -92t60.5 -258q0 -164 -53 -259t-125 -122v-4q178 -67 178 -404
q0 -194 -60.5 -295.5t-197.5 -101.5q-50 0 -89.5 23.5t-65 61.5t-42 89.5t-23.5 104.5t-7 110q0 27 12 27q22 0 22 -25q0 -34 14 -82t36.5 -94.5t58 -79.5t72.5 -33q41 0 65 25t38.5 97.5t14.5 201.5q0 162 -55 254t-125 92q-18 0 -18 14z" />
    <glyph glyph-name="four" unicode="4" horiz-adv-x="595" 
d="M328 147v306h-316q-4 0 -8 5t-4 11q0 13 14 55l357 987q9 25 26 25h56q18 0 18 -18v-963q21 0 29 8l67 76q8 12 15 12q6 0 6 -14v-170q0 -14 -10 -14h-107v-306q0 -39 18 -57l62 -59q14 -19 14 -23q0 -8 -12 -8h-307q-13 0 -13 12q0 3 3 6l7 7t5 6l61 59q19 19 19 57z
M328 555v569h-4l-185 -518q-8 -32 -8 -35q0 -16 16 -16h181z" />
    <glyph glyph-name="five" unicode="5" horiz-adv-x="577" 
d="M195 1341l-21 -391h4q59 51 115 51q98 0 160.5 -127t62.5 -321q0 -553 -250 -553q-68 0 -117 61t-70.5 147t-21.5 181q0 27 13 27q22 0 22 -25q0 -45 21 -112t58 -122t73 -55q43 0 68.5 39t39 137t13.5 267q0 181 -23.5 267.5t-81.5 86.5q-24 0 -54 -24.5t-50.5 -50
t-49.5 -66.5q-21 -29 -33 -32q-3 -1 -5 -1q-19 0 -19 25l39 755q0 27 18 27q28 0 56 -14q78 -33 143 -33q76 0 148 28q11 4 25 10.5t22 9.5t14 3q6 -3 5 -16.5t-15 -41.5t-35 -55q-30 -36 -72.5 -58t-87.5 -22q-65 0 -98 13q-7 3 -11.5 -2t-4.5 -13z" />
    <glyph glyph-name="six" unicode="6" horiz-adv-x="628" 
d="M315 1536q59 0 104 -38t69 -98.5t35.5 -123.5t11.5 -125q0 -23 -17 -23q-7 0 -12.5 6.5t-5.5 16.5q0 22 -14 67t-36.5 94t-59 85.5t-75.5 36.5q-58 0 -82 -115.5t-24 -384.5h4q52 67 115 67q113 0 178 -115t65 -313q0 -92 -14 -187t-42.5 -184t-80.5 -145.5t-119 -56.5
q-48 0 -85 21.5t-70.5 78.5t-55 150.5t-34.5 245t-13 354.5q0 686 258 686zM315 102q56 0 80.5 111t24.5 360q0 164 -22.5 245t-82.5 81q-106 0 -106 -244q0 -307 23.5 -430t82.5 -123z" />
    <glyph glyph-name="seven" unicode="7" horiz-adv-x="524" 
d="M25 1153v371q0 12 10 12q3 0 7.5 -3.5t12 -11t11.5 -10.5l16 -14t16.5 -13.5t10.5 -4.5q18 0 51 26q39 31 116 31q46 0 86 -16q8 -3 19.5 -8.5l18.5 -9t10 -3.5q14 0 49 23q4 2 8.5 6t7.5 6t6 2q10 0 13 -20q6 -69 6 -111q0 -96 -25.5 -199.5t-73.5 -244.5
q-94 -257 -94 -451q0 -129 14 -280.5t25 -178.5q12 -30 12 -43q0 -8 -6 -8h-157q-14 0 -17 16q-22 121 -22 443q0 50 5.5 101.5t19 109.5l23.5 98t33.5 107.5t34 95.5l39.5 102.5t35 91.5q35 91 35 164q0 34 -29.5 57t-72.5 23q-149 0 -222 -252q-6 -22 -20 -22
q-12 0 -12 18z" />
    <glyph glyph-name="eight" unicode="8" horiz-adv-x="622" 
d="M311 1536q79 0 138 -57t87.5 -143.5t28.5 -186.5q0 -119 -34.5 -204.5t-112.5 -158.5q66 -36 106.5 -129.5t40.5 -236.5q0 -195 -66.5 -307.5t-187.5 -112.5q-122 0 -188 112.5t-66 307.5q0 144 40.5 237t105.5 129q-78 73 -112 158.5t-34 204.5q0 100 28 186.5
t87.5 143.5t138.5 57zM311 731q-49 0 -75.5 -81t-26.5 -230q0 -318 102 -318q103 0 103 318q0 147 -27.5 229t-75.5 82zM311 829q50 0 76.5 98t26.5 230q0 126 -25.5 201.5t-77.5 75.5q-102 0 -102 -277q0 -134 25.5 -231t76.5 -97z" />
    <glyph glyph-name="nine" unicode="9" horiz-adv-x="628" 
d="M313 1536q93 0 148.5 -73.5t82.5 -237.5t27 -439q0 -195 -11 -332t-38 -243.5t-76 -158.5t-122 -52q-48 0 -86.5 18.5t-62.5 51.5t-41 71.5t-25 84.5t-11.5 83t-3.5 76q0 23 17 23q13 0 20 -23q3 -9 8 -29q13 -48 21 -73.5t24.5 -66t32.5 -61t41.5 -37t56.5 -16.5
q23 0 41 17.5t29 53t18.5 77t11 103.5t4.5 117t1 132h-4q-52 -67 -115 -67q-113 0 -178.5 135t-65.5 358q0 97 14 184t43 161.5t80 118.5t119 44zM313 1434q-55 0 -79.5 -99.5t-24.5 -294.5q0 -208 22 -305.5t82 -97.5t83.5 88t23.5 254q0 237 -24.5 346t-82.5 109z" />
    <glyph glyph-name="colon" unicode=":" horiz-adv-x="198" 
d="M98 207q38 0 57 -31t19 -74q0 -42 -19 -72t-57 -30q-37 0 -55 30t-18 72q0 43 18 74t55 31zM98 981q38 0 57 -30t19 -72q0 -43 -19 -74t-57 -31q-37 0 -55 31t-18 74q0 42 18 72t55 30z" />
    <glyph glyph-name="semicolon" unicode=";" horiz-adv-x="198" 
d="M98 207q76 0 76 -141q0 -64 -13.5 -119.5t-33 -90t-41.5 -60t-38 -36t-23 -10.5q-11 0 -11 10q0 3 5.5 9l13.5 14.5t12 15.5q39 61 53 122t-2 79q-32 3 -51.5 31.5t-19.5 74.5q0 45 20 73t53 28zM98 981q38 0 57 -30t19 -72q0 -43 -19 -74t-57 -31q-37 0 -55 31t-18 74
q0 42 18 72t55 30z" />
    <glyph glyph-name="less" unicode="&#x3c;" 
d="M1135 96v-112l-1041 479v110l1041 480v-113l-914 -422z" />
    <glyph glyph-name="equal" unicode="=" 
d="M1130 768v-102h-1032v102h1032zM1130 371v-103h-1032v103h1032z" />
    <glyph glyph-name="greater" unicode="&#x3e;" 
d="M94 96l914 422l-914 422v113l1041 -480v-110l-1041 -479v112z" />
    <glyph glyph-name="question" unicode="?" horiz-adv-x="579" 
d="M303 655v-264q0 -22 -20 -22q-19 0 -23 22l-53 281q-17 83 22 129q94 114 126 216t32 220q0 78 -30 137.5t-81 59.5q-40 0 -74.5 -29.5t-57 -75t-36 -83.5t-20.5 -70q-5 -23 -18 -23q-17 0 -17 27q0 50 12.5 106.5t39 115t76.5 96.5t116 38q116 0 172.5 -86t56.5 -221
q0 -122 -39.5 -226t-152.5 -260q-31 -45 -31 -88zM293 207q37 0 55.5 -31t18.5 -74q0 -41 -18.5 -71.5t-55.5 -30.5q-38 0 -56 30t-18 72q0 44 18 74.5t56 30.5z" />
    <glyph glyph-name="at" unicode="@" horiz-adv-x="1638" 
d="M1063 872q0 140 -96 140q-43 0 -95.5 -30t-102 -83t-83 -139t-33.5 -185q0 -94 41 -137t109 -43q75 0 157.5 131.5t102.5 345.5zM1094 981l22 86h144l-144 -559q-4 -14 -5.5 -32t2.5 -42t25.5 -40.5t59.5 -16.5q72 0 132 42.5t96.5 109.5t56.5 143.5t20 150.5
q0 76 -26.5 157.5t-81.5 159.5t-130.5 140t-181.5 99.5t-225 37.5q-135 0 -251.5 -51.5t-203 -146.5t-135.5 -238.5t-49 -318.5q0 -116 46.5 -227.5t129.5 -200t209.5 -143t274.5 -54.5q131 0 225 25.5t201 76.5l28 -45q-233 -119 -452 -119q-117 0 -221 24t-184.5 66
t-147.5 98.5t-113.5 120.5t-78.5 133.5t-47 136.5t-15 130q0 169 63 315.5t170 246t250 156t301 56.5q196 0 358 -82t255.5 -227.5t93.5 -323.5q0 -67 -16.5 -137.5t-51 -137.5t-81 -120t-112 -85t-139.5 -32q-50 0 -90 19.5t-61 46.5t-31.5 50.5t-9.5 35.5h-4
q-30 -43 -98 -92t-150 -58q-21 -1 -42 2t-52.5 18t-55 41.5t-40.5 79.5t-17 126q0 46 16 108.5t51 133.5t82.5 131t120 99.5t154.5 39.5q84 0 128 -65q8 -11 28 -48z" />
    <glyph glyph-name="A" unicode="A" horiz-adv-x="681" 
d="M434 127l-31 215q-4 18 -18 18h-152q-9 0 -12 -14l-31 -225q-3 -20 11 -37l45 -47q3 -4 8.5 -9.5t8.5 -9t3 -6.5q0 -12 -14 -12h-236q-12 0 -12 12q0 7 14 21l58 57q12 12 16 51l187 1377q4 18 16 18h76q14 0 18 -23l195 -1374q4 -40 22 -55l60 -53q12 -12 12 -19
q0 -12 -14 -12h-295q-15 0 -15 12q0 4 15 19l55 55q13 13 10 41zM246 469h129q11 0 8 14l-72 502h-4l-67 -504q-3 -12 6 -12z" />
    <glyph glyph-name="B" unicode="B" horiz-adv-x="677" 
d="M119 147v1242q0 38 -19 57l-61 59q-1 2 -5 6t-6.5 7t-2.5 6q0 12 12 12h256q159 0 241 -96.5t82 -282.5q0 -85 -11.5 -148.5t-34.5 -104.5t-47 -65.5t-58 -45.5q156 -80 156 -355q0 -220 -67.5 -329t-195.5 -109h-321q-12 0 -12 12q0 3 6 9.5t8 9.5l61 59q19 19 19 57z
M276 1434v-603h31q77 0 110.5 72.5t33.5 253.5q0 154 -33.5 215.5t-110.5 61.5h-31zM276 729v-627h64q67 0 89 71t22 280q0 149 -34 212.5t-110 63.5h-31z" />
    <glyph glyph-name="C" unicode="C" horiz-adv-x="598" 
d="M549 1501v-487q0 -19 -12 -19q-13 0 -17 23q-11 72 -26 138.5t-38 132.5t-55 105.5t-69 39.5q-64 0 -85.5 -141t-21.5 -486q0 -227 8 -368.5t26.5 -214.5t41.5 -97.5t61 -24.5q39 0 71.5 58t49.5 134.5t26 133t9 70.5q0 16 17 16q14 0 14 -18q0 -120 -10 -206.5
t-34.5 -154t-69.5 -101.5t-111 -34q-50 0 -90.5 27.5t-67.5 72.5t-47.5 111.5t-32 134.5t-18.5 153.5t-9 156t-2 153.5q0 68 1 120.5t7 132.5t16.5 140t30.5 126t47 109t69.5 71t95.5 28q45 0 98 -43q14 -12 35 -12q18 0 39 24q27 31 39 31q14 0 14 -35z" />
    <glyph glyph-name="D" unicode="D" horiz-adv-x="694" 
d="M119 147v1242q0 38 -19 57l-61 59q-1 2 -5 6t-6.5 7t-2.5 6q0 12 12 12h270q79 0 139 -40t103.5 -125.5t65.5 -226.5t22 -337q0 -197 -15 -340t-41 -232.5t-68.5 -142.5t-91 -72.5t-114.5 -19.5h-270q-12 0 -12 12q0 3 6 9.5t8 9.5l61 59q19 19 19 57zM276 1434v-1332h37
q27 0 47 12.5t42 55.5t35.5 117.5t22.5 206t9 313.5q0 159 -9 275.5t-22.5 183t-35 105.5t-42 51t-47.5 12h-37z" />
    <glyph glyph-name="E" unicode="E" horiz-adv-x="632" 
d="M276 1434v-600h46q16 0 22 14l72 143q6 13 12 13q8 0 8 -13v-434q0 -10 -8 -10q-7 0 -14 14l-70 150q-6 14 -22 14h-46v-623h117q44 0 56 37l110 393q3 13 14 13t11 -13v-514q0 -18 -17 -18h-530q-12 0 -12 12q0 3 6 9.5t8 9.5l61 59q19 19 19 57v1242q0 38 -19 57
l-61 59q-1 2 -5 6t-6.5 7t-2.5 6q0 12 12 12h530q6 0 11.5 -5.5t5.5 -12.5v-510q0 -13 -11 -13q-12 0 -16 15l-111 385q-12 39 -53 39h-117z" />
    <glyph glyph-name="F" unicode="F" horiz-adv-x="632" 
d="M276 1434v-600h46q16 0 22 14l68 141q8 15 14 15q10 0 10 -13v-432q0 -12 -8 -12q-5 0 -12 14l-72 150q-6 14 -22 14h-46v-578q0 -43 19 -57l76 -59q14 -14 14 -19q0 -12 -12 -12h-336q-12 0 -12 12q0 3 6 9.5t8 9.5l61 59q19 19 19 57v1242q0 38 -19 57l-61 59
q-1 2 -5 6t-6.5 7t-2.5 6q0 12 12 12h530q17 0 17 -18v-512q0 -11 -11 -11q-12 0 -16 15l-111 385q-12 39 -53 39h-117z" />
    <glyph glyph-name="G" unicode="G" horiz-adv-x="675" 
d="M432 375v278q0 26 -22 45l-58 50q-10 10 -10 20q0 12 16 12h304q14 0 14 -12q0 -7 -10 -20l-60 -50q-20 -14 -20 -45v-643q0 -10 -11 -10q-12 0 -20 8l-61 55q-12 9 -21 9q-8 0 -20 -9q-69 -63 -129 -63q-47 0 -85 20t-65 59.5t-47 85.5t-32.5 112.5t-20.5 124.5
t-11.5 137.5t-4.5 135.5t-1 134q0 52 0.5 92t3.5 101t8 108.5t14.5 105t22.5 101t33 86.5t45 71t59.5 45t75.5 17q71 0 130 -47q16 -12 30 -12q15 0 51 32q30 27 41 27q15 0 15 -35v-491q0 -15 -11 -15t-18 21q-19 69 -41 132t-51.5 132.5t-63 111.5t-65.5 42
q-63 0 -87 -146t-24 -481q0 -223 5 -359t17 -214t30 -105t47 -27q50 0 79 66.5t29 206.5z" />
    <glyph glyph-name="H" unicode="H" horiz-adv-x="761" 
d="M276 836h209v553q0 39 -18 57l-61 59q-1 2 -5 6l-7 7t-3 6q0 12 12 12h322q12 0 12 -12q0 -3 -2.5 -6t-6.5 -7t-5 -6l-61 -59q-19 -19 -19 -57v-1242q0 -38 19 -57l61 -59q1 -2 5 -6t6.5 -7t2.5 -6q0 -12 -12 -12h-322q-12 0 -12 12q0 3 3 6l7 7t5 6l61 59q18 18 18 57
v580h-209v-580q0 -38 19 -57l61 -59q1 -2 5 -6l7 -7t3 -6q0 -12 -13 -12h-321q-12 0 -12 12q0 3 2.5 6t6.5 7t5 6l61 59q19 19 19 57v1242q0 38 -19 57l-61 59q-1 2 -5 6t-6.5 7t-2.5 6q0 12 12 12h321q13 0 13 -12q0 -3 -3 -6l-7 -7t-5 -6l-61 -59q-19 -19 -19 -57v-553z
" />
    <glyph glyph-name="I" unicode="I" horiz-adv-x="395" 
d="M119 147v1242q0 38 -19 57l-61 59q-1 2 -5 6t-6.5 7t-2.5 6q0 12 12 12h321q13 0 13 -12q0 -3 -3 -6l-7 -7t-5 -6l-61 -59q-19 -19 -19 -57v-1242q0 -38 19 -57l61 -59q1 -2 5 -6l7 -7t3 -6q0 -12 -13 -12h-321q-12 0 -12 12q0 3 2.5 6t6.5 7t5 6l61 59q19 19 19 57z" />
    <glyph glyph-name="J" unicode="J" horiz-adv-x="561" 
d="M268 1446l-61 59q-14 14 -14 19q0 12 12 12h319q13 0 13 -12q0 -4 -15 -19l-61 -59q-19 -19 -19 -57v-1053q0 -87 -13 -149.5t-33 -98t-51.5 -56t-60.5 -26.5t-67 -6q-64 0 -108.5 37.5t-67 103t-32 134.5t-9.5 151q0 25 16 25q8 0 14 -6t7 -15q23 -171 64.5 -249.5
t88.5 -78.5q43 0 69 37t26 111v1139q0 40 -17 57z" />
    <glyph glyph-name="K" unicode="K" horiz-adv-x="727" 
d="M119 147v1242q0 40 -19 57l-61 57q-14 11 -14 23q0 10 10 10h325q4 0 7.5 -3.5t3.5 -6.5q0 -10 -13 -23l-63 -57q-19 -19 -19 -57v-596h5l200 602q12 34 -12 55l-63 53q-15 15 -15 23q0 10 15 10h299q14 0 14 -10q0 -8 -17 -25l-69 -69q-28 -28 -45 -84l-158 -476
l178 -720q11 -37 27 -50l70 -67q14 -14 14 -25q0 -10 -10 -10h-306q-12 0 -12 10q0 2 17 23l53 71q16 24 6 56l-115 469h-4l-72 -219v-263q0 -38 19 -57l63 -57q13 -13 13 -23q0 -3 -3.5 -6.5t-7.5 -3.5h-325q-10 0 -10 10q0 11 12 23l63 57q19 19 19 57z" />
    <glyph glyph-name="L" unicode="L" horiz-adv-x="610" 
d="M119 147v1242q0 38 -19 57l-61 59q-1 2 -5 6t-6.5 7t-2.5 6q0 12 12 12h321q13 0 13 -12q0 -3 -3 -6l-7 -7t-5 -6l-61 -59q-19 -19 -19 -57v-1287h82q44 0 54 31l127 397q1 2 2.5 5.5t2 5t2.5 3t5 1.5q10 0 10 -15v-501q0 -29 -22 -29h-502q-12 0 -12 12q0 3 6 9.5t8 9.5
l61 59q19 19 19 57z" />
    <glyph glyph-name="M" unicode="M" horiz-adv-x="894" 
d="M37 1536h250q25 0 28 -35l136 -887h4l125 887q4 35 22 35h256q12 0 12 -10q0 -7 -14 -21l-51 -59q-17 -23 -17 -57v-1242q0 -34 17 -57l51 -59q14 -14 14 -21q0 -10 -12 -10h-287q-12 0 -12 10q0 4 14 23l43 55q15 20 15 59v992h-4l-156 -1123q-3 -16 -16 -16h-45
q-7 0 -11 18l-166 1121h-4v-992q0 -39 15 -59l43 -55q14 -19 14 -23q0 -10 -12 -10h-252q-12 0 -12 10q0 4 2.5 7.5t6.5 7.5t5 6l51 59q19 25 19 57v1242q0 32 -19 57l-51 59q-1 2 -5 6t-6.5 7.5t-2.5 7.5q0 10 12 10z" />
    <glyph glyph-name="N" unicode="N" horiz-adv-x="729" 
d="M109 147v1242q0 32 -19 57l-51 59q-1 2 -5 6t-6.5 7.5t-2.5 7.5q0 10 12 10h246q17 0 24 -35l189 -880h4v768q0 36 -19 55l-57 61q-1 2 -5 6t-6.5 7.5t-2.5 7.5q0 10 12 10h270q13 0 13 -10q0 -6 -15 -21l-51 -59q-18 -24 -18 -57v-1366q0 -23 -21 -23h-86
q-14 0 -25.5 14t-15.5 37l-240 1116h-4v-1020q0 -34 21 -55l55 -61q14 -14 14 -21q0 -10 -12 -10h-270q-12 0 -12 10q0 4 2.5 7.5t6.5 7.5t5 6l51 59q19 25 19 57z" />
    <glyph glyph-name="O" unicode="O" horiz-adv-x="661" 
d="M330 1536q51 0 93 -25.5t70 -66.5t49 -102t32.5 -122.5t18.5 -138t9 -138.5t2 -134q0 -93 -2 -167.5t-9 -161.5t-18.5 -152.5t-32.5 -130t-49 -105.5t-69.5 -66.5t-93.5 -25.5q-51 0 -92.5 25.5t-69.5 66.5t-48.5 105t-32.5 130t-19 153t-9 161.5t-2 167.5q0 72 2 134
t9 138.5t19 138t32.5 122.5t48.5 102t69.5 66.5t92.5 25.5zM330 1434q-31 0 -53.5 -60t-37 -204t-14.5 -363q0 -705 105 -705q106 0 106 705q0 627 -106 627z" />
    <glyph glyph-name="P" unicode="P" horiz-adv-x="665" 
d="M119 147v1242q0 38 -19 57l-61 59q-1 2 -5 6t-6.5 7t-2.5 6q0 12 12 12h309q63 0 110 -18.5t84.5 -62t56.5 -123t19 -193.5q0 -203 -67.5 -313.5t-202.5 -110.5h-70v-568q0 -43 19 -57l76 -59q14 -14 14 -19q0 -12 -12 -12h-336q-12 0 -12 12q0 3 6 9.5t8 9.5l61 59
q19 19 19 57zM276 1434v-617h60q63 0 88 74t25 248q0 170 -24 232.5t-89 62.5h-60z" />
    <glyph glyph-name="Q" unicode="Q" horiz-adv-x="688" 
d="M330 1434q-31 0 -53.5 -60t-37 -204t-14.5 -363q0 -266 21 -506q37 37 76 37q53 0 88 -43q26 169 26 512q0 627 -106 627zM330 1536q51 0 93 -25.5t70 -66.5t49 -102t32.5 -122.5t18.5 -138t9 -138.5t2 -134q0 -219 -16 -383t-62 -270q14 -25 60 -25q24 0 50 39t32 80
q2 9 11 9t9 -9q0 -64 -16 -120t-48 -93t-73 -37q-58 0 -107 39q-45 -39 -114 -39q-51 0 -92.5 25.5t-69.5 66.5t-48.5 105t-32.5 130t-19 153t-9 161.5t-2 167.5q0 72 2 134t9 138.5t19 138t32.5 122.5t48.5 102t69.5 66.5t92.5 25.5zM330 102q28 0 47 54q-21 98 -72 98
q-18 0 -29.5 -13t-11.5 -34q0 -38 22.5 -71.5t43.5 -33.5z" />
    <glyph glyph-name="R" unicode="R" horiz-adv-x="696" 
d="M276 729v-582q0 -38 19 -57l61 -59q1 -2 5 -6l7 -7t3 -6q0 -12 -13 -12h-321q-12 0 -12 12q0 3 2.5 6t6.5 7t5 6l61 59q19 19 19 57v1242q0 38 -19 57l-61 59q-1 2 -5 6t-6.5 7t-2.5 6q0 12 12 12h256q162 0 242.5 -91t80.5 -288q0 -270 -151 -364q57 -30 94 -90t37 -140
v-428q0 -19 18 -37l66 -69q16 -16 16 -23q0 -6 -20 -6h-107q-66 0 -98.5 37t-32.5 94v440q0 67 -36.5 112.5t-90.5 45.5h-35zM276 1434v-603h31q76 0 109 72.5t33 253.5q0 154 -33 215.5t-109 61.5h-31z" />
    <glyph glyph-name="S" unicode="S" horiz-adv-x="569" 
d="M487 1513v-507q0 -11 -12 -11q-8 0 -12 15q-18 90 -51.5 184t-81.5 167t-92 73q-35 0 -45.5 -24.5t-10.5 -72.5q0 -80 35 -186t143 -336q105 -223 132.5 -315.5t27.5 -216.5q0 -77 -18 -135t-47.5 -88.5t-60.5 -45t-62 -14.5q-54 0 -115 39q-33 20 -41 20q-5 0 -65 -45
q-19 -14 -25 -14q-10 0 -10 10v516q0 15 10 15q7 0 12 -15q14 -64 25.5 -108.5t33 -109.5t43 -105.5t53 -70.5t66.5 -30q29 0 44.5 29.5t15.5 77.5q0 97 -41 213.5t-137 318.5q-82 172 -117 298t-35 241q0 256 189 256q56 0 114 -47q20 -12 31 -12q15 0 47 32q30 27 43 27
q14 0 14 -23z" />
    <glyph glyph-name="T" unicode="T" horiz-adv-x="669" 
d="M256 147v1291h-76q-14 0 -22 -23l-107 -407q-3 -13 -16 -13q-10 0 -10 15v518q0 8 10 8h600q10 0 10 -8v-518q0 -15 -10 -15q-14 0 -17 13l-106 407q-8 23 -23 23h-75v-1291q0 -41 16 -57l62 -59q14 -14 14 -19q0 -12 -12 -12h-318q-12 0 -12 12q0 5 14 19l62 59
q16 16 16 57z" />
    <glyph glyph-name="U" unicode="U" horiz-adv-x="679" 
d="M98 221v1168q0 41 -16 57l-64 59q-10 10 -10 19q0 12 12 12h314q12 0 12 -12q0 -9 -10 -19l-64 -59q-16 -19 -16 -57v-1115q0 -31 1.5 -52.5t7.5 -46t17 -39t30.5 -24.5t47.5 -10q97 0 97 172v1115q0 40 -17 57l-63 59q-10 10 -10 19q0 12 12 12h280q13 0 13 -12
q0 -9 -10 -19l-64 -59q-16 -19 -16 -57v-1168q0 -96 -67 -158.5t-171 -62.5q-118 0 -182 61t-64 160z" />
    <glyph glyph-name="V" unicode="V" horiz-adv-x="692" 
d="M309 16l-196 1366q-6 35 -25 54l-68 67q-12 12 -12 25q0 8 19 8h317q12 0 12 -8q0 -13 -10 -23l-53 -49q-28 -25 -25 -55l105 -719h4l86 719q3 27 -25 55l-49 49q-12 12 -12 23q0 8 14 8h275q18 0 18 -8q0 -13 -12 -25l-68 -67q-21 -21 -24 -54l-162 -1359
q-3 -23 -21 -23h-71q-14 0 -17 16z" />
    <glyph glyph-name="W" unicode="W" horiz-adv-x="966" 
d="M25 1536h292q17 0 17 -8q0 -11 -10 -21l-54 -59q-13 -17 -10 -41l94 -725h4l82 725q3 24 -10 37l-63 63q-13 13 -13 21t17 8h260q14 0 14 -8q0 -11 -12 -23l-66 -65q-9 -13 -6 -35l101 -723h4l79 725q3 28 -6 37l-63 63q-10 10 -10 21q0 8 18 8h260q14 0 14 -8
q0 -11 -8 -19l-69 -73q-15 -19 -19 -47l-151 -1377q0 -12 -17 -12h-59q-14 0 -17 12l-133 963h-4l-108 -963q0 -12 -17 -12h-59q-13 0 -16 12l-181 1377q-3 25 -22 47l-55 67q-15 19 -15 25q0 8 17 8z" />
    <glyph glyph-name="X" unicode="X" horiz-adv-x="731" 
d="M293 741l-176 648q-6 24 -25 47l-67 69q-13 17 -13 23q0 8 17 8h323q15 0 15 -8q0 -10 -11 -21l-63 -55q-29 -25 -23 -47l103 -383h4l115 383q6 23 -25 47l-68 55q-12 9 -12 21q0 8 19 8h296q17 0 17 -8q0 -11 -12 -23l-70 -69q-15 -15 -23 -47l-178 -596l168 -623
q8 -29 29 -55l69 -76q21 -21 21 -31q0 -8 -16 -8h-328q-14 0 -14 10q0 11 18 29l63 67q14 17 7 41l-99 367h-4l-98 -360q-10 -32 6 -48l68 -67q18 -18 18 -29q0 -10 -14 -10h-305q-17 0 -17 8q0 10 19 33l67 70q25 30 33 59z" />
    <glyph glyph-name="Y" unicode="Y" horiz-adv-x="665" 
d="M252 147v490l-152 752q-3 25 -22 47l-58 69q-12 18 -12 23q0 8 15 8h292q17 0 17 -10t-15 -21l-63 -59q-13 -13 -6 -39l92 -453h4l96 453q7 27 -8 39l-65 59q-15 11 -15 21t19 10h270q16 0 16 -8q0 -9 -14 -23l-68 -69q-13 -16 -20 -47l-145 -689v-553q0 -39 18 -57
l61 -59q1 -2 5 -6l7 -7t3 -6q0 -12 -12 -12h-322q-12 0 -12 12q0 3 2.5 6t6.5 7t5 6l61 59q19 19 19 57z" />
    <glyph glyph-name="Z" unicode="Z" horiz-adv-x="641" 
d="M61 1018v506q0 4 5.5 8t11.5 4h493q13 0 13 -12q0 -1 -4 -21l-361 -1401h160q39 0 47 25l133 391q12 27 21 27q12 0 12 -27v-502q0 -16 -19 -16h-516q-8 0 -8 8q0 15 2 25l363 1405h-148q-27 0 -39 -27l-127 -387q-12 -31 -22 -31q-17 0 -17 25z" />
    <glyph glyph-name="bracketleft" unicode="[" horiz-adv-x="348" 
d="M217 1430v-1324l111 -112v-8h-254v1564h254v-8z" />
    <glyph glyph-name="backslash" unicode="\" horiz-adv-x="569" 
d="M-152 1505h113l760 -1505h-113z" />
    <glyph glyph-name="bracketright" unicode="]" horiz-adv-x="348" 
d="M131 106v1324l-111 112v8h254v-1564h-254v8z" />
    <glyph glyph-name="asciicircum" unicode="^" 
d="M303 686h-113l377 748h95l376 -748h-112l-312 617z" />
    <glyph glyph-name="underscore" unicode="_" horiz-adv-x="1024" 
d="M0 -154h1024v-102h-1024v102z" />
    <glyph glyph-name="grave" unicode="`" horiz-adv-x="428" 
d="M371 1335l-13 -20l-278 104q-30 11 -21 23l47 88q10 13 35 -8z" />
    <glyph glyph-name="a" unicode="a" horiz-adv-x="595" 
d="M494 883v-744q0 -51 26 -51q38 0 60 35q8 8 10 8q6 0 6 -10q-6 -46 -38 -83.5t-69 -37.5q-42 0 -69 21t-51 57q-70 -78 -142 -78q-178 0 -178 332q0 120 19.5 188t71 128.5t169.5 154.5q29 24 35 45.5t6 89.5q0 67 -18 90t-68 23q-42 0 -97 -27t-85 -57q-6 -6 -16 -6
q-7 0 -7 10t20.5 37t52 56.5t75.5 52t84 22.5q25 0 50 -6t53.5 -23.5t50 -45t35.5 -74.5t14 -107zM350 209v536h-4q-86 -73 -115.5 -147.5t-29.5 -228.5q0 -114 8 -176.5t21.5 -83.5t37.5 -21q33 0 57.5 38.5t24.5 82.5z" />
    <glyph glyph-name="b" unicode="b" horiz-adv-x="608" 
d="M86 10v1440q0 11 -8 16l-60 47q-8 5 -8 15q0 8 13 8h194q12 0 12 -12v-457h4q65 72 136 72q30 0 53.5 -8.5t49.5 -39.5t43 -84.5t28.5 -149.5t11.5 -228q0 -121 -5.5 -217t-15 -161t-24 -112t-29 -73.5t-34.5 -41.5t-37 -19.5t-39 -4.5q-86 0 -160 78h-4l-94 -70
q-12 -8 -19 -8q-8 0 -8 10zM229 897v-670q0 -61 27.5 -100t65.5 -39q22 0 34 16t22 71.5t13.5 163t3.5 290.5q0 184 -9 278t-24 119t-43 25q-27 0 -58.5 -43.5t-31.5 -110.5z" />
    <glyph glyph-name="c" unicode="c" horiz-adv-x="512" 
d="M53 614q0 253 63.5 389t178.5 136q72 0 115.5 -59.5t60.5 -147.5q4 -17 -6 -17q-5 0 -12 11q-44 67 -76.5 96t-71.5 29q-37 0 -56 -37t-27.5 -129t-8.5 -271q0 -207 12 -324t33 -159.5t57 -42.5q73 0 136 109q10 16 18 16q9 0 6 -14q-53 -199 -180 -199q-124 0 -183 147
t-59 467z" />
    <glyph glyph-name="d" unicode="d" horiz-adv-x="608" 
d="M379 1067v371q0 11 -8 16l-60 59q-10 7 -10 15t14 8h195q12 0 12 -12v-1411q0 -15 2 -19l64 -71q10 -7 10 -15t-14 -8h-191q-14 0 -14 8v70h-4q-33 -38 -62.5 -58t-74.5 -20q-22 0 -39 4.5t-37 19.5t-35 41.5t-29.5 73.5t-24 112t-15 161t-5.5 217q0 132 12 228t29.5 149
t44 84.5t49.5 40t52 8.5q70 0 135 -72h4zM379 252v645q0 67 -31.5 110.5t-58.5 43.5q-28 0 -43 -25t-24 -119t-9 -278t3.5 -292.5t14 -163.5t22.5 -70t34 -15q38 0 65 45.5t27 118.5z" />
    <glyph glyph-name="e" unicode="e" horiz-adv-x="561" 
d="M213 602v-158q0 -194 29.5 -275t99.5 -81q48 0 78 22t65 74q7 11 15 11q9 0 6 -13q-20 -79 -69 -130.5t-120 -51.5q-140 0 -202 150t-62 493q0 232 63 364t171 132q221 0 221 -385v-127q0 -25 -19 -25h-276zM213 680h152v205q0 81 -20.5 123.5t-57.5 42.5q-74 0 -74 -166
v-205z" />
    <glyph glyph-name="f" unicode="f" horiz-adv-x="335" 
d="M229 1014v-901q0 -15 2 -19l76 -71q8 -8 8 -15q0 -8 -12 -8h-280q-13 0 -13 8q0 10 8 15l64 71q4 4 4 19v901q0 14 -18 37l-62 63q-6 5 -7.5 11t0.5 10t7 4h64q16 0 16 18v172q0 101 51.5 154t128.5 53q67 0 112.5 -55.5t45.5 -118.5q0 -12 -8 -12q-9 0 -21 16
q-63 82 -114 82q-26 0 -39 -24t-13 -62v-205q0 -18 17 -18h61q5 0 7 -4t0.5 -10t-7.5 -11l-61 -63q-17 -21 -17 -37z" />
    <glyph glyph-name="g" unicode="g" horiz-adv-x="608" 
d="M522 1128v-888q0 -127 -11.5 -219t-31 -147.5t-50.5 -88t-64 -44t-78 -11.5q-53 0 -97 23t-68 55t-37 59.5t-13 42.5q0 14 8 14q6 0 18 -16q70 -90 162 -90q59 0 89 58t30 202h-4q-29 -37 -60.5 -57.5t-76.5 -20.5q-22 0 -39 4.5t-37 19.5t-35 41.5t-29.5 73.5t-24 112
t-15 161t-5.5 217q0 133 11.5 229t29 149.5t45 84t52 39t57.5 8.5q40 0 78 -22.5t63 -55.5h4l99 67q11 11 20 11q10 0 10 -11zM379 252v606q0 90 -29.5 141.5t-66.5 51.5q-27 0 -40.5 -26.5t-21.5 -119t-8 -276.5t3.5 -292.5t14 -163.5t22.5 -70t34 -15q38 0 65 45.5
t27 118.5z" />
    <glyph glyph-name="h" unicode="h" horiz-adv-x="630" 
d="M229 1524v-457h4q34 36 64.5 54t77.5 18q78 0 124 -54t46 -155v-817q0 -15 4 -19l63 -71q9 -9 9 -15q0 -8 -13 -8h-270q-12 0 -12 8q0 7 8 15l63 71q4 4 4 19v819q0 119 -69 119q-39 0 -71 -50t-32 -129v-759q0 -15 2 -19l64 -71q10 -7 10 -15t-12 -8h-270q-13 0 -13 8
q0 10 8 15l64 71q4 4 4 19v1325q0 11 -8 16l-60 59q-8 5 -8 15q0 8 13 8h194q12 0 12 -12z" />
    <glyph glyph-name="i" unicode="i" horiz-adv-x="315" 
d="M86 113v927q0 11 -6 17l-62 57q-8 12 -8 16q0 9 13 9h196q10 0 10 -13v-1013q0 -15 4 -19l64 -71q8 -8 8 -15q0 -8 -12 -8h-270q-13 0 -13 8q0 7 8 15l64 71q4 4 4 19zM156 1536q30 0 51.5 -33.5t21.5 -75.5q0 -41 -21.5 -74.5t-51.5 -33.5q-31 0 -53.5 33.5t-22.5 74.5
q0 42 22.5 75.5t53.5 33.5z" />
    <glyph glyph-name="j" unicode="j" horiz-adv-x="315" 
d="M23 1139h196q10 0 10 -13v-1091q0 -146 -50 -225.5t-130 -79.5q-71 0 -107 50.5t-36 119.5q0 14 8 14t12 -12q26 -82 88 -82q41 0 56.5 40.5t15.5 162.5v1017q0 11 -6 17l-62 57q-8 12 -8 16q0 9 13 9zM156 1536q30 0 51.5 -33.5t21.5 -75.5q0 -41 -21.5 -74.5
t-51.5 -33.5q-31 0 -53.5 33.5t-22.5 74.5q0 42 22.5 75.5t53.5 33.5z" />
    <glyph glyph-name="k" unicode="k" horiz-adv-x="614" 
d="M229 1524v-848h4l140 350q12 25 -6 47l-39 51q-4 8 -4 9q0 6 10 6h211q8 0 8 -9q0 -6 -10 -16l-37 -35q-11 -13 -25 -45l-143 -358l186 -553q9 -27 23 -41l57 -55q10 -7 10 -17t-10 -10h-227q-8 0 -8 8q0 5 8 17l22 30q7 19 2 35l-137 408l-35 -88v-324q0 -10 9 -16
l49 -47q8 -8 8 -15q0 -8 -12 -8h-260q-13 0 -13 8q0 10 8 15l60 47q8 5 8 16v1364q0 11 -8 16l-60 47q-8 5 -8 15q0 8 13 8h196q10 0 10 -12z" />
    <glyph glyph-name="l" unicode="l" horiz-adv-x="315" 
d="M229 1524v-1411q0 -15 4 -19l64 -71q8 -8 8 -15q0 -8 -12 -8h-270q-13 0 -13 8q0 7 8 15l64 71q4 4 4 19v1325q0 10 -6 16l-62 59q-8 8 -8 15q0 8 13 8h196q10 0 10 -12z" />
    <glyph glyph-name="m" unicode="m" horiz-adv-x="909" 
d="M86 113v927q0 11 -6 17l-62 57q-8 12 -8 16q0 9 13 9h196q10 0 10 -13v-59h4q34 36 64.5 54t77.5 18q81 0 131 -72q68 72 156 72q72 0 116.5 -54.5t44.5 -154.5v-817q0 -15 4 -19l64 -71q8 -5 8 -15q0 -8 -12 -8h-271q-12 0 -12 8t10 15l62 71q4 4 4 19v819
q0 119 -57 119q-35 0 -66 -50.5t-31 -128.5v-759q0 -15 4 -19l50 -71q6 -6 6 -15q0 -8 -13 -8h-237q-12 0 -12 8q0 7 8 15l47 71q4 4 4 19v819q0 119 -57 119q-36 0 -66.5 -50t-30.5 -129v-759q0 -15 4 -19l64 -71q8 -8 8 -15q0 -8 -12 -8h-270q-13 0 -13 8q0 7 8 15l64 71
q4 4 4 19z" />
    <glyph glyph-name="n" unicode="n" horiz-adv-x="630" 
d="M229 1126v-59h4q34 36 64.5 54t77.5 18q78 0 124 -54t46 -155v-817q0 -15 4 -19l63 -71q9 -9 9 -15q0 -8 -13 -8h-270q-12 0 -12 8q0 7 8 15l63 71q4 4 4 19v819q0 119 -69 119q-39 0 -71 -50t-32 -129v-759q0 -15 2 -19l64 -71q10 -7 10 -15t-12 -8h-270q-13 0 -13 8
q0 10 8 15l64 71q4 4 4 19v927q0 11 -6 17l-62 57q-8 12 -8 16q0 9 13 9h196q10 0 10 -13z" />
    <glyph glyph-name="o" unicode="o" horiz-adv-x="591" 
d="M295 1139q244 0 244 -521q0 -183 -18.5 -309t-54 -191t-76.5 -91.5t-95 -26.5q-35 0 -63.5 11t-57 36.5t-50 72t-38 113t-25 164t-8.5 221.5q0 521 242 521zM295 88q30 0 47 35t27 153t10 342q0 174 -10 270.5t-27.5 129.5t-46.5 33q-28 0 -45 -33t-27 -130t-10 -270
q0 -136 3.5 -232t10 -154t17 -90t22.5 -43t29 -11z" />
    <glyph glyph-name="p" unicode="p" horiz-adv-x="608" 
d="M86 -160v1213q0 11 -8 14l-60 47q-8 8 -8 16q0 9 13 9h196q10 0 10 -13v-59h4q65 72 136 72q30 0 53.5 -8.5t49.5 -39.5t43 -84.5t28.5 -149.5t11.5 -228q-1 -140 -8.5 -247t-22 -173.5t-31 -110t-39 -64t-42 -27.5t-45.5 -7q-45 0 -75.5 20.5t-58.5 57.5h-4v-238
q0 -14 2 -16l64 -72q10 -10 10 -16t-12 -6h-270q-13 0 -13 6q0 8 8 16l64 72q4 2 4 16zM229 897v-657q0 -62 32.5 -107t68.5 -45q25 0 37.5 31t20 150t7.5 360q0 184 -9 278t-24 119t-43 25q-27 0 -58.5 -43.5t-31.5 -110.5z" />
    <glyph glyph-name="q" unicode="q" horiz-adv-x="612" 
d="M383 -160v238h-4q-34 -38 -66.5 -58t-74.5 -20q-22 0 -39 4.5t-37 19.5t-35 41.5t-29.5 73.5t-24 112t-15 161t-5.5 217q0 133 11.5 229t29 149.5t45.5 84t53.5 39t59.5 8.5q73 0 149 -72h5l90 61q11 11 20 11q10 0 10 -11v-1288q0 -14 2 -16l64 -72q10 -10 10 -16
t-14 -6h-266q-15 0 -15 6t10 16l64 72q2 2 2 16zM383 252v606q0 91 -25 142t-65 51q-30 0 -46 -28t-25 -121t-9 -273q0 -146 3 -246t8.5 -158t15 -88.5t19.5 -39.5t26 -9q37 0 67.5 49.5t30.5 114.5z" />
    <glyph glyph-name="r" unicode="r" horiz-adv-x="454" 
d="M229 854v-741q0 -15 2 -19l70 -71q8 -5 8 -15q0 -8 -12 -8h-274q-13 0 -13 8q0 10 8 15l64 71q4 4 4 19v927q0 12 -8 17l-60 57q-8 8 -8 16q0 9 13 9h196q10 0 10 -13v-69h4q21 26 35 40.5t36 28t44 13.5q47 0 79 -58.5t32 -115.5q0 -19 -10 -19q-9 0 -17 19
q-32 77 -106 77q-43 0 -70 -54t-27 -134z" />
    <glyph glyph-name="s" unicode="s" horiz-adv-x="491" 
d="M412 1118v-385q0 -16 -13 -16q-8 0 -12 18q-22 114 -61 213q-42 103 -95 103q-30 0 -40.5 -29t-10.5 -82q0 -134 125 -334q133 -213 133 -401q0 -91 -53.5 -148t-122.5 -57q-71 0 -123 66l-53 -56q-15 -10 -20 -10q-7 0 -7 14v394q0 14 9 14q2 0 4 -1l3 -1.5t2 -3t1 -4
t1 -5t1 -4.5q63 -315 156 -315q65 0 65 88q0 159 -131 369q-117 194 -117 375q0 95 48.5 157t107.5 62q65 0 121 -66l59 53q1 1 3.5 5t5 6t5.5 2t6 -7t3 -14z" />
    <glyph glyph-name="t" unicode="t" horiz-adv-x="360" 
d="M229 1036v-874q0 -32 14 -53t36 -21q17 0 35 13t28 30q8 8 12 8q3 0 5 -4t1 -8q-13 -51 -47.5 -89t-93.5 -38q-69 0 -101 43.5t-32 163.5v829q0 21 -6 27l-60 57q-10 10 -10 13q0 11 29 14q100 18 100 254q0 18 17 18h61q12 0 12 -14v-236q0 -18 17 -18h47q5 0 7 -4
t0.5 -10t-7.5 -11l-47 -53q-17 -28 -17 -37z" />
    <glyph glyph-name="u" unicode="u" horiz-adv-x="630" 
d="M545 1126v-1013q0 -15 2 -19l63 -71q11 -7 11 -15t-15 -8h-190q-15 0 -15 8v70h-4q-33 -38 -62.5 -58t-74.5 -20q-174 0 -174 209v831q0 11 -6 17l-62 57q-8 12 -8 16q0 9 13 9h196q10 0 10 -13v-919q0 -119 80 -119q38 0 65 45.5t27 118.5v788q0 11 -6 17l-59 57
q-10 10 -10 16q0 9 12 9h197q10 0 10 -13z" />
    <glyph glyph-name="v" unicode="v" horiz-adv-x="538" 
d="M455 1028l-127 -991q-4 -37 -23 -37h-57q-20 0 -25 31l-147 997q-3 23 -17 37l-43 49q-8 12 -8 16q0 9 12 9h236q12 0 12 -6q0 -9 -8 -17l-51 -59q-12 -12 -8 -33l84 -569h4l73 569q4 21 -8 33l-53 59q-8 12 -8 17q0 6 12 6h213q12 0 12 -9q0 -6 -10 -16l-49 -49
q-13 -13 -16 -37z" />
    <glyph glyph-name="w" unicode="w" horiz-adv-x="788" 
d="M223 23l-147 1005q-3 23 -17 37l-43 49q-8 12 -8 16q0 9 12 9h232q12 0 12 -9q0 -4 -8 -16l-43 -49q-15 -22 -12 -39l84 -571h4l71 542q2 28 -20 58l-43 59q-8 12 -8 16q0 9 12 9h215q14 0 14 -9q0 -2 -3.5 -7.5t-4.5 -8.5l-49 -61q-22 -30 -20 -56l82 -542h4l73 581
q3 19 -6 31l-43 47q-1 3 -4.5 8.5t-3.5 7.5q0 9 14 9h199q12 0 12 -9q0 -4 -8 -16l-49 -51q-15 -15 -21 -51l-124 -983q-1 -13 -8 -21t-15 -8h-41q-14 0 -20 23l-99 647h-4l-84 -641q-4 -29 -16 -29h-43q-9 0 -16 7t-9 16z" />
    <glyph glyph-name="x" unicode="x" horiz-adv-x="600" 
d="M115 152l127 403l-133 469q-8 24 -15 31l-61 59q-8 8 -8 16q0 9 12 9h260q12 0 12 -9q0 -8 -8 -16l-49 -57q-12 -12 -4 -41l65 -238h4l74 250q6 19 -4 29l-49 57q-8 12 -8 16q0 9 14 9h209q12 0 12 -9q0 -8 -8 -16l-51 -51q-20 -20 -25 -37l-127 -383l152 -532
q4 -13 24 -33l52 -51q10 -7 10 -19q0 -8 -12 -8h-263q-14 0 -14 8q0 7 8 15l41 55q8 11 10 30t-2 33l-73 267h-4l-84 -271q-9 -35 16 -57l59 -57q9 -9 9 -15q0 -8 -15 -8h-245q-15 0 -15 8q0 7 8 15l70 71q18 18 29 58z" />
    <glyph glyph-name="y" unicode="y" horiz-adv-x="530" 
d="M20 1139h228q12 0 12 -9q0 -7 -6 -16l-39 -51q-11 -18 -8 -39l74 -594h4l59 594q3 26 -10 39l-45 51q-8 8 -8 16q0 9 12 9h217q12 0 12 -9q0 -11 -8 -16l-51 -49q-14 -14 -17 -37l-137 -1108q-11 -95 -48.5 -142.5t-88.5 -47.5q-47 0 -82 36.5t-49 79t-14 78.5q0 15 8 15
q9 0 16 -15l22 -42t20 -31.5t26 -25.5t28 -7q66 0 66 116q0 74 -14 181l-123 913q-4 20 -15 31l-45 55q-8 12 -8 16q0 9 12 9z" />
    <glyph glyph-name="z" unicode="z" horiz-adv-x="538" 
d="M59 754v368q0 6 6 11.5t13 5.5h377q10 0 10 -11q0 -8 -2 -14l-246 -1044h109q32 0 41 26l96 289q4 21 14 21q8 0 8 -21v-371q0 -14 -16 -14h-410q-6 0 -6 8v15l264 1046h-98q-27 0 -39 -29l-94 -280q-6 -23 -16 -23q-11 0 -11 17z" />
    <glyph glyph-name="braceleft" unicode="{" horiz-adv-x="425" 
d="M141 1221q-39 264 248 329q13 3 16.5 -10t-8.5 -18q-43 -16 -68.5 -36.5t-38 -44.5t-14 -62t2.5 -79t13 -105q2 -12 3 -19q48 -348 -84 -408q132 -60 84 -408q-22 -158 -19 -204q6 -76 64 -114q23 -15 57 -28q12 -5 8.5 -18t-16.5 -10q-287 65 -248 329q8 58 9.5 113.5
t-1 120t-2.5 84.5q0 47 -16 83.5t-49 43.5q-8 2 -8 8.5t8 9.5q33 7 49 43.5t16 81.5q0 21 2.5 85.5t1 119.5t-9.5 113z" />
    <glyph glyph-name="bar" unicode="|" horiz-adv-x="454" 
d="M176 -512v2048h103v-2048h-103z" />
    <glyph glyph-name="braceright" unicode="}" horiz-adv-x="425" 
d="M285 1221q-8 -58 -9.5 -113t1 -119.5t2.5 -85.5q0 -45 16 -81.5t49 -43.5q8 -3 8 -9.5t-8 -8.5q-33 -7 -49 -43.5t-16 -83.5q0 -20 -2.5 -84.5t-1 -120t9.5 -113.5q39 -264 -248 -329q-13 -3 -16.5 10t8.5 18q43 16 68.5 36.5t38 44.5t14 62t-2.5 79t-13 105q-2 12 -3 19
q-48 348 84 408q-132 60 -84 408q22 158 19 204q-6 76 -64 114q-23 15 -57 28q-12 5 -8.5 18t16.5 10q287 -65 248 -329z" />
    <glyph glyph-name="asciitilde" unicode="~" 
d="M1014 647l73 -74l-38.5 -52t-41 -46.5t-49.5 -41t-57 -25.5t-70 -11q-52 0 -99 17t-109 51q-128 72 -236 72q-61 0 -101.5 -41t-70.5 -107l-74 74q92 176 256 176q81 0 228 -66q12 -5 44 -19.5t48 -21t40.5 -15.5t42.5 -13t34 -4q29 0 55 11.5t49.5 36t38 44.5t37.5 55z
" />
    <glyph glyph-name="uni00A0" unicode="&#xa0;" horiz-adv-x="245" 
 />
    <glyph glyph-name="exclamdown" unicode="&#xa1;" horiz-adv-x="299" 
d="M172 1135l61 -1006q5 -66 -13.5 -97.5t-69.5 -31.5t-70 31.5t-14 97.5l61 1006q4 32 23 32q18 0 22 -32zM150 1536q38 0 55.5 -30t17.5 -72q0 -44 -17.5 -74.5t-55.5 -30.5q-37 0 -55.5 31t-18.5 74q0 41 18.5 71.5t55.5 30.5z" />
    <glyph glyph-name="cent" unicode="&#xa2;" horiz-adv-x="628" 
d="M291 262v895q-23 -4 -42 -42.5t-33.5 -137t-14.5 -244.5q0 -222 26 -343.5t64 -127.5zM283 1368h102l-8 -117q75 -9 131.5 -107t56.5 -233q0 -20 -16 -20q-9 0 -14 6t-5 14q0 77 -46 160.5t-107 93.5v-911q61 10 107 95.5t46 158.5q0 8 5 14t14 6q16 0 16 -20
q0 -135 -56.5 -233t-131.5 -107l8 -102h-102l8 102q-96 9 -162 160.5t-66 404.5q0 110 16 200t40 146t55.5 95t60 56t56.5 21z" />
    <glyph glyph-name="sterling" unicode="&#xa3;" horiz-adv-x="571" 
d="M242 131h159q16 0 28.5 12.5t34.5 56.5t60 136q7 18 23 18q15 0 12 -16l-47 -313q-3 -25 -31 -25h-438q-12 0 -12 12q0 14 8 33l35 78q33 71 61.5 202t28.5 257q0 84 -21 184h-118v86h102q-5 19 -23 79.5t-29 103t-21.5 111t-10.5 132.5q0 127 61 192.5t164 65.5
q79 0 134.5 -49.5t80.5 -126t25 -170.5q0 -21 -14 -21q-16 0 -19 21q-13 97 -66 170.5t-128 73.5q-60 0 -83.5 -35.5t-23.5 -100.5q0 -66 23 -174t49 -188q2 -8 11.5 -37t14.5 -47h205v-86h-184q14 -103 14 -180q0 -60 -15.5 -140t-36.5 -163t-26 -113q-7 -39 13 -39z" />
    <glyph glyph-name="currency" unicode="&#xa4;" 
d="M614 973q-136 0 -233.5 -101t-97.5 -235q0 -137 97 -238.5t234 -101.5q139 0 237.5 101.5t98.5 238.5q0 134 -98.5 235t-237.5 101zM154 86l-91 86l201 201q-88 109 -88 264q0 74 24 144.5t64 119.5l-201 197l91 90l196 -201q109 88 264 88q77 0 148 -24.5t117 -63.5
l200 201l86 -90l-196 -197q40 -49 64 -119.5t24 -144.5q0 -155 -88 -264l196 -201l-86 -86l-200 197q-109 -88 -265 -88q-155 0 -264 88z" />
    <glyph glyph-name="yen" unicode="&#xa5;" horiz-adv-x="673" 
d="M391 1536h252q19 0 19 -8q0 -3 -13 -25l-69 -67q-12 -10 -21 -47l-102 -467h127v-86h-146l-24 -113h170v-86h-176v-490q0 -35 22 -57l62 -59q14 -9 14 -19q0 -12 -12 -12h-316q-12 0 -12 12q0 10 14 19l62 59q22 22 22 57v490h-178v86h156l-23 113h-133v86h115l-97 467
q-8 33 -22 47l-59 67q-1 5 -6 13t-5 12q0 8 17 8h278q17 0 17 -8q0 -4 -1.5 -7.5t-5 -8t-4.5 -7.5l-59 -57q-20 -16 -16 -41l108 -520h4l113 518q3 21 -19 43l-57 57q-12 16 -12 23q0 8 16 8z" />
    <glyph glyph-name="brokenbar" unicode="&#xa6;" horiz-adv-x="454" 
d="M176 -358v716h103v-716h-103zM176 666v716h103v-716h-103z" />
    <glyph glyph-name="section" unicode="&#xa7;" horiz-adv-x="569" 
d="M236 1534q54 0 110 -45q15 -12 31 -12q15 0 47 32q30 27 43 27q14 0 14 -23v-507q0 -11 -12 -11q-8 0 -12 15q-13 66 -35.5 138t-52.5 141t-67.5 113t-74.5 44q-18 0 -29.5 -9t-16 -26.5t-6 -31t-1.5 -33.5q0 -69 40 -154t163 -268q104 -154 145 -251.5t41 -185.5
q0 -84 -34 -132.5t-99 -75.5q94 -165 94 -302q0 -69 -16.5 -119.5t-44 -77t-55.5 -38.5t-58 -12q-53 0 -114 39q-33 20 -41 20q-6 0 -66 -45q-19 -14 -25 -14q-10 0 -10 10v516q0 14 10 14q8 0 13 -14l21.5 -91t25 -94t33.5 -97t39.5 -77.5t50 -59t57.5 -19.5q55 0 55 98
q0 90 -46 184t-156 258q-179 263 -179 426q0 88 38 139t98 68q-99 169 -99 330q0 99 50 156t131 57zM190 930q-34 -15 -44.5 -40.5t-10.5 -62.5q0 -54 44.5 -143.5t162.5 -269.5l23 -34t26 -40q55 27 55 98q0 38 -10.5 75t-45 98.5t-61.5 104l-98 150.5q-8 15 -41 64z" />
    <glyph glyph-name="dieresis" unicode="&#xa8;" horiz-adv-x="477" 
d="M127 1483q30 0 49 -17t19 -47q0 -29 -19.5 -48t-48.5 -19q-27 0 -48.5 19.5t-21.5 47.5q0 29 21 46.5t49 17.5zM352 1483q30 0 49 -17t19 -47q0 -29 -19.5 -48t-48.5 -19q-27 0 -48 19.5t-21 47.5q0 29 20.5 46.5t48.5 17.5z" />
    <glyph glyph-name="copyright" unicode="&#xa9;" horiz-adv-x="1146" 
d="M739 1307v-365q0 -14 -10 -14q-9 0 -12 16q-7 53 -19 103t-29 99t-41.5 79t-52.5 30q-43 0 -54 -99.5t-11 -369.5q0 -225 9.5 -342.5t25.5 -151.5t45 -34q31 0 64 44t55 113.5t22 135.5q0 16 14 16q15 0 15 -16q0 -46 -8.5 -102t-28 -120t-59.5 -106.5t-95 -42.5
q-42 0 -74.5 26t-53 75t-34 105t-19.5 130.5t-8.5 135.5t-2.5 136q0 50 1 90t5 100t11.5 105.5t22 95.5t34 82t50 52t68.5 18q41 0 74 -33q20 -8 27 -8t28 21q20 20 31 20q10 0 10 -24zM573 1536q128 0 232.5 -58.5t174 -161.5t107 -243.5t37.5 -304.5t-37.5 -304.5
t-107 -243.5t-174 -161.5t-232.5 -58.5q-171 0 -297 101t-189.5 273.5t-63.5 393.5t63.5 393.5t189.5 273.5t297 101zM573 70q211 0 314.5 184.5t103.5 513.5t-103.5 513.5t-314.5 184.5t-314 -184.5t-103 -513.5t103 -513.5t314 -184.5z" />
    <glyph glyph-name="ordfeminine" unicode="&#xaa;" horiz-adv-x="442" 
d="M336 1382v-446q0 -29 18 -29q9 0 19.5 4.5t13.5 10.5q7 10 12 10q8 0 2 -21q-7 -21 -26 -40t-41 -19t-40.5 8.5t-24.5 14t-21 20.5q-43 -43 -109 -43q-54 0 -77 53t-23 156q0 52 7.5 87t32 67.5t50 55t80.5 64.5q24 18 24 64q0 80 -57 80q-63 0 -102 -39q-10 -10 -19 -10
q-8 0 -8 10q0 4 6 14t19.5 24t31.5 27t45 22t56 9q20 0 40.5 -6.5t42 -22t35 -48t13.5 -77.5zM233 983v317h-4q-55 -40 -71.5 -89.5t-16.5 -137.5q0 -98 9 -131t32 -33q21 0 36 22t15 52z" />
    <glyph glyph-name="guillemotleft" unicode="&#xab;" horiz-adv-x="606" 
d="M324 1120l-129 -241l129 -242q9 -21 -7 -28t-28 7l-223 240q-17 22 0 45l223 240q12 14 28 6.5t7 -27.5zM547 1120l-129 -241l129 -242q9 -21 -7 -28t-28 7l-223 240q-17 22 0 45l223 240q12 14 28 6.5t7 -27.5z" />
    <glyph glyph-name="logicalnot" unicode="&#xac;" 
d="M1028 221v445h-930v102h1032v-547h-102z" />
    <glyph glyph-name="uni00AD" unicode="&#xad;" horiz-adv-x="393" 
d="M57 692h279v-86h-279v86z" />
    <glyph glyph-name="registered" unicode="&#xae;" horiz-adv-x="1146" 
d="M520 735v-426q0 -24 15 -43l36 -43q0 -1 5.5 -6.5t5.5 -9.5q0 -8 -9 -8h-229q-8 0 -8 8q0 6 10 16l45 43q12 10 12 43v912q0 31 -12 43l-45 43q-10 10 -10 12q0 10 8 10h188q121 0 180.5 -66.5t59.5 -211.5q0 -194 -113 -269q42 -22 69.5 -66.5t27.5 -103.5v-317
q0 -11 8 -23l49 -49q6 -4 6 -16q0 -8 -10 -8h-72q-42 0 -69 29.5t-27 74.5v315q0 49 -27 83t-67 34h-27zM520 1253v-442h23q58 0 82 52.5t24 187.5q0 115 -24 158.5t-82 43.5h-23zM573 1536q128 0 232.5 -58.5t174 -161.5t107 -243.5t37.5 -304.5t-37.5 -304.5t-107 -243.5
t-174 -161.5t-232.5 -58.5q-171 0 -297 101t-189.5 273.5t-63.5 393.5t63.5 393.5t189.5 273.5t297 101zM573 70q211 0 314.5 184.5t103.5 513.5t-103.5 513.5t-314.5 184.5t-314 -184.5t-103 -513.5t103 -513.5t314 -184.5z" />
    <glyph glyph-name="macron" unicode="&#xaf;" horiz-adv-x="434" 
d="M57 1438h320v-82h-320v82z" />
    <glyph glyph-name="degree" unicode="&#xb0;" horiz-adv-x="819" 
d="M410 934q91 0 156 69t65 162t-65 162.5t-156 69.5t-156.5 -69.5t-65.5 -162.5t65.5 -162t156.5 -69zM410 872q-123 0 -208 85t-85 208t85 208t208 85t207.5 -85t84.5 -208t-84.5 -208t-207.5 -85z" />
    <glyph glyph-name="plusminus" unicode="&#xb1;" 
d="M563 655v381h103v-381h464v-102h-464v-381h-103v381h-465v102h465zM98 -25v103h1032v-103h-1032z" />
    <glyph glyph-name="twosuperior" unicode="&#xb2;" horiz-adv-x="423" 
d="M340 614h-268q-12 0 -4 17l22 45q0 8 -2 30t-2 35q0 99 82 238q92 153 92 354q0 76 -12 106.5t-41 30.5q-19 0 -35.5 -8t-29.5 -25.5t-20.5 -30t-19.5 -37.5t-16 -32q-6 -12 -18 -12q-11 0 -11 16q11 81 60.5 138t111.5 57q63 0 100.5 -52.5t37.5 -148.5
q0 -210 -131 -399q-66 -101 -66 -182q0 -46 16 -62h99q10 0 18 19l41 100q7 14 14 14q9 0 9 -10l-15 -190q0 -11 -12 -11z" />
    <glyph glyph-name="threesuperior" unicode="&#xb3;" horiz-adv-x="432" 
d="M143 1085v19q0 10 13 10q47 0 80.5 42t33.5 138q0 172 -65 172q-16 0 -32 -9t-28 -22t-23.5 -30t-18.5 -30l-13 -25t-6 -13q-6 -12 -18 -12q-9 0 -9 16q11 81 60.5 138t111.5 57q64 0 105 -55.5t41 -155.5q0 -98 -36 -154.5t-83 -72.5v-2q119 -40 119 -244
q0 -238 -170 -238q-76 0 -112 69.5t-36 164.5q0 16 11 16q13 0 16 -14q5 -25 16 -58t38 -70.5t59 -37.5q36 0 54.5 38.5t18.5 147.5q0 98 -34.5 152.5t-79.5 54.5q-13 0 -13 8z" />
    <glyph glyph-name="acute" unicode="&#xb4;" horiz-adv-x="430" 
d="M70 1317l-13 20l232 187q22 22 33 8l49 -88q7 -11 -21 -23z" />
    <glyph glyph-name="mu" unicode="&#xb5;" horiz-adv-x="630" 
d="M86 -254v1294q0 11 -6 17l-62 57q-8 12 -8 16q0 9 13 9h196q10 0 10 -13v-919q0 -57 18 -88t48 -31q44 0 75 45.5t31 112.5v794q0 11 -6 17l-59 57q-10 10 -10 16q0 9 12 9h197q10 0 10 -13v-1013q0 -15 2 -19l63 -71q11 -7 11 -15t-15 -8h-190q-15 0 -15 8v70h-4
q-26 -34 -73.5 -56t-112.5 -22q-25 -17 -25 -78q0 -47 47 -98l64 -72q8 -12 8 -16q0 -6 -12 -6h-193q-14 0 -14 16z" />
    <glyph glyph-name="paragraph" unicode="&#xb6;" 
d="M1022 1536v-45q-133 -8 -160 -39q-14 -17 -14 -168v-1261q0 -102 6 -150q5 -27 39.5 -37t107.5 -18q14 -1 21 -2v-45h-277v1704h-120v-1704h-277v45q109 12 134 22q30 12 34 35q6 29 6 150v692q-86 0 -157 24.5t-119 65t-81 94.5t-48 112t-15 119q0 72 28 143t80 130.5
t135.5 96t184.5 36.5h492z" />
    <glyph glyph-name="periodcentered" unicode="&#xb7;" horiz-adv-x="264" 
d="M131 922q38 0 57 -30.5t19 -72.5q0 -43 -19 -73.5t-57 -30.5q-37 0 -55.5 30.5t-18.5 73.5q0 42 18.5 72.5t55.5 30.5z" />
    <glyph glyph-name="cedilla" unicode="&#xb8;" horiz-adv-x="374" 
d="M168 20h59l-32 -102q49 6 85.5 -28.5t36.5 -84.5q0 -53 -37 -87.5t-90 -34.5q-56 0 -133 55l19 29q52 -23 98 -23q27 0 44.5 17t17.5 46q0 35 -37 50t-82 2z" />
    <glyph glyph-name="onesuperior" unicode="&#xb9;" horiz-adv-x="348" 
d="M123 702v687q0 10 -6 14l-60 31q-8 4 -8 8q0 3 10 8q46 8 82.5 30t53.5 46q1 1 3 4t3.5 4.5t3.5 1.5h18q11 0 8 -14q-6 -24 -6 -125v-695q0 -21 13 -34l38 -35q2 -2 4.5 -4l4.5 -3.5t2 -2.5q0 -9 -8 -9h-205q-11 0 -11 9q0 1 2 2.5l4.5 3.5t4.5 4l41 35q8 6 8 34z" />
    <glyph glyph-name="ordmasculine" unicode="&#xba;" horiz-adv-x="442" 
d="M221 1536q75 0 128.5 -81.5t53.5 -256.5q0 -180 -53.5 -263t-128.5 -83q-80 0 -131 81.5t-51 264.5q0 175 53.5 256.5t128.5 81.5zM221 1479q-12 0 -22 -4.5t-21 -22t-19 -46.5t-13 -82.5t-5 -125.5q0 -76 5 -131t12.5 -85t19 -47t21.5 -21.5t22 -4.5t22 4.5t21.5 21.5
t19 47t12.5 85t5 131q0 72 -5 125.5t-13 82.5t-19 46.5t-21 22t-22 4.5z" />
    <glyph glyph-name="guillemotright" unicode="&#xbb;" horiz-adv-x="606" 
d="M188 879l-129 241q-9 20 7 27.5t28 -6.5l223 -240q17 -23 0 -45l-223 -240q-12 -14 -28 -7t-7 28zM412 879l-129 241q-9 20 6.5 27.5t27.5 -6.5l224 -240q17 -23 0 -45l-224 -240q-12 -14 -27.5 -7t-6.5 28z" />
    <glyph glyph-name="onequarter" unicode="&#xbc;" horiz-adv-x="884" 
d="M674 88v180h-215q-8 0 -8 8q0 9 10 39l233 592q6 15 17 15h53q12 0 12 -11v-573q15 0 19 4l43 45q4 8 10 8q4 0 4 -8v-111q0 -8 -8 -8h-68v-180q0 -22 10 -35l41 -35q11 -11 11 -14q0 -4 -9 -4h-208q-9 0 -9 8q0 1 2 2.5l4.5 3.5t4.5 4l39 35q12 12 12 35zM662 1513
l-412 -1513l-88 23l411 1513zM674 338v340h-4l-121 -309q-4 -12 -4 -23q0 -8 10 -8h119zM123 702v687q0 10 -6 14l-60 31q-8 4 -8 8q0 3 10 8q46 8 82.5 30t53.5 46q1 1 3 4t3.5 4.5t3.5 1.5h18q11 0 8 -14q-6 -24 -6 -125v-695q0 -21 13 -34l38 -35q2 -2 4.5 -4l4.5 -3.5
t2 -2.5q0 -9 -8 -9h-205q-11 0 -11 9q0 1 2 2.5l4.5 3.5t4.5 4l41 35q8 6 8 34z" />
    <glyph glyph-name="onehalf" unicode="&#xbd;" horiz-adv-x="876" 
d="M662 1513l-412 -1513l-88 23l411 1513zM123 702v687q0 10 -6 14l-60 31q-8 4 -8 8q0 3 10 8q46 8 82.5 30t53.5 46q1 1 3 4t3.5 4.5t3.5 1.5h18q11 0 8 -14q-6 -24 -6 -125v-695q0 -21 13 -34l38 -35q2 -2 4.5 -4l4.5 -3.5t2 -2.5q0 -9 -8 -9h-205q-11 0 -11 9q0 1 2 2.5
l4.5 3.5t4.5 4l41 35q8 6 8 34zM793 0h-269q-12 0 -4 16l23 45q0 8 -2 30.5t-2 35.5q0 99 82 238q92 153 92 354q0 76 -12.5 106.5t-41.5 30.5q-19 0 -35 -8t-29 -25t-21 -30t-19.5 -37.5l-15.5 -32.5q-6 -12 -19 -12q-10 0 -10 16q11 81 60.5 138t111.5 57q63 0 100 -52.5
t37 -148.5q0 -210 -131 -399q-65 -100 -65 -183q0 -45 16 -61h98q12 0 19 18l41 101q7 14 14 14q8 0 8 -10l-14 -191q0 -10 -12 -10z" />
    <glyph glyph-name="threequarters" unicode="&#xbe;" horiz-adv-x="968" 
d="M745 1513l-411 -1513l-88 23l411 1513zM758 88v180h-215q-8 0 -8 8q0 9 10 39l233 592q6 15 17 15h53q12 0 12 -11v-573q15 0 19 4l43 45q4 8 10 8q4 0 4 -8v-111q0 -8 -8 -8h-68v-180q0 -22 10 -35l41 -35q11 -11 11 -14q0 -4 -9 -4h-208q-9 0 -9 8q0 1 2 2.5l4.5 3.5
t4.5 4l38 35q13 13 13 35zM143 1085v19q0 10 13 10q47 0 80.5 42t33.5 138q0 172 -65 172q-16 0 -32 -9t-28 -22t-23.5 -30t-18.5 -30l-13 -25t-6 -13q-6 -12 -18 -12q-9 0 -9 16q11 81 60.5 138t111.5 57q64 0 105 -55.5t41 -155.5q0 -98 -36 -154.5t-83 -72.5v-2
q119 -40 119 -244q0 -238 -170 -238q-76 0 -112 69.5t-36 164.5q0 16 11 16q13 0 16 -14q5 -25 16 -58t38 -70.5t59 -37.5q36 0 54.5 38.5t18.5 147.5q0 98 -34.5 152.5t-79.5 54.5q-13 0 -13 8zM758 338v340h-4l-121 -309q-4 -12 -4 -23q0 -8 10 -8h119z" />
    <glyph glyph-name="questiondown" unicode="&#xbf;" horiz-adv-x="579" 
d="M276 881v264q0 22 21 22q18 0 22 -22l54 -281q17 -82 -23 -129q-94 -114 -125.5 -215.5t-31.5 -220.5q0 -78 29.5 -137.5t80.5 -59.5q32 0 61.5 20.5t50 50.5t37.5 67.5t26 66.5t14 53q5 23 18 23q16 0 16 -27q0 -39 -7 -83t-25 -93.5t-44.5 -88.5t-70 -65t-96.5 -26
q-116 0 -173 86t-57 221q0 122 40 226t153 260q30 43 30 88zM270 1329q-38 0 -55.5 30.5t-17.5 74.5q0 42 17.5 72t55.5 30q37 0 55.5 -30.5t18.5 -71.5q0 -43 -18.5 -74t-55.5 -31z" />
    <glyph glyph-name="Agrave" unicode="&#xc0;" horiz-adv-x="681" 
d="M434 127l-31 215q-4 18 -18 18h-152q-9 0 -12 -14l-31 -225q-3 -20 11 -37l45 -47q3 -4 8.5 -9.5t8.5 -9t3 -6.5q0 -12 -14 -12h-236q-12 0 -12 12q0 7 14 21l58 57q12 12 16 51l187 1377q4 18 16 18h76q14 0 18 -23l195 -1374q4 -40 22 -55l60 -53q12 -12 12 -19
q0 -12 -14 -12h-295q-15 0 -15 12q0 4 15 19l55 55q13 13 10 41zM246 469h129q11 0 8 14l-72 502h-4l-67 -504q-3 -12 6 -12zM383 1591l-12 -20l-279 104q-30 11 -20 23l47 88q10 13 35 -8z" />
    <glyph glyph-name="Aacute" unicode="&#xc1;" horiz-adv-x="681" 
d="M434 127l-31 215q-4 18 -18 18h-152q-9 0 -12 -14l-31 -225q-3 -20 11 -37l45 -47q3 -4 8.5 -9.5t8.5 -9t3 -6.5q0 -12 -14 -12h-236q-12 0 -12 12q0 7 14 21l58 57q12 12 16 51l187 1377q4 18 16 18h76q14 0 18 -23l195 -1374q4 -40 22 -55l60 -53q12 -12 12 -19
q0 -12 -14 -12h-295q-15 0 -15 12q0 4 15 19l55 55q13 13 10 41zM246 469h129q11 0 8 14l-72 502h-4l-67 -504q-3 -12 6 -12zM287 1573l-13 20l232 187q22 22 33 8l49 -88q7 -11 -21 -23z" />
    <glyph glyph-name="Acircumflex" unicode="&#xc2;" horiz-adv-x="681" 
d="M434 127l-31 215q-4 18 -18 18h-152q-9 0 -12 -14l-31 -225q-3 -20 11 -37l45 -47q3 -4 8.5 -9.5t8.5 -9t3 -6.5q0 -12 -14 -12h-236q-12 0 -12 12q0 7 14 21l58 57q12 12 16 51l187 1377q4 18 16 18h76q14 0 18 -23l195 -1374q4 -40 22 -55l60 -53q12 -12 12 -19
q0 -12 -14 -12h-295q-15 0 -15 12q0 4 15 19l55 55q13 13 10 41zM246 469h129q11 0 8 14l-72 502h-4l-67 -504q-3 -12 6 -12zM467 1561l-119 102q-9 7 -23.5 7t-21.5 -7l-119 -102l-22 16l139 221q7 17 25 17q16 0 26 -17l137 -221z" />
    <glyph glyph-name="Atilde" unicode="&#xc3;" horiz-adv-x="681" 
d="M434 127l-31 215q-4 18 -18 18h-152q-9 0 -12 -14l-31 -225q-3 -20 11 -37l45 -47q3 -4 8.5 -9.5t8.5 -9t3 -6.5q0 -12 -14 -12h-236q-12 0 -12 12q0 7 14 21l58 57q12 12 16 51l187 1377q4 18 16 18h76q14 0 18 -23l195 -1374q4 -40 22 -55l60 -53q12 -12 12 -19
q0 -12 -14 -12h-295q-15 0 -15 12q0 4 15 19l55 55q13 13 10 41zM246 469h129q11 0 8 14l-72 502h-4l-67 -504q-3 -12 6 -12zM184 1567l-26 14q21 78 46.5 122t51.5 44t78 -31l51 -30q15 -9 37 -9q34 0 74 82l28 -14q-19 -73 -46 -120.5t-56 -47.5q-26 0 -66 20l-47 27
q-35 21 -53 21q-28 0 -72 -78z" />
    <glyph glyph-name="Adieresis" unicode="&#xc4;" horiz-adv-x="681" 
d="M434 127l-31 215q-4 18 -18 18h-152q-9 0 -12 -14l-31 -225q-3 -20 11 -37l45 -47q3 -4 8.5 -9.5t8.5 -9t3 -6.5q0 -12 -14 -12h-236q-12 0 -12 12q0 7 14 21l58 57q12 12 16 51l187 1377q4 18 16 18h76q14 0 18 -23l195 -1374q4 -40 22 -55l60 -53q12 -12 12 -19
q0 -12 -14 -12h-295q-15 0 -15 12q0 4 15 19l55 55q13 13 10 41zM246 469h129q11 0 8 14l-72 502h-4l-67 -504q-3 -12 6 -12zM213 1739q30 0 49 -17t19 -47q0 -29 -19.5 -48t-48.5 -19q-27 0 -48.5 19.5t-21.5 47.5q0 29 21 46.5t49 17.5zM438 1739q30 0 49 -17t19 -47
q0 -29 -19.5 -48t-48.5 -19q-27 0 -48 19.5t-21 47.5q0 29 20.5 46.5t48.5 17.5z" />
    <glyph glyph-name="Aring" unicode="&#xc5;" horiz-adv-x="681" 
d="M246 469h129q11 0 8 14l-72 502h-4l-67 -504q-3 -12 6 -12zM326 1745q-24 0 -37 -27t-13 -69q0 -41 13 -70t37 -29q51 0 51 99q0 96 -51 96zM434 127l-31 215q-4 18 -18 18h-152q-9 0 -12 -14l-31 -225q-3 -20 11 -37l45 -47q3 -4 8.5 -9.5t8.5 -9t3 -6.5q0 -12 -14 -12
h-236q-12 0 -12 12q0 7 14 21l58 57q12 12 16 51l187 1370q-38 15 -64.5 51.5t-26.5 86.5q0 62 43 103.5t95 41.5q56 0 98.5 -41.5t42.5 -103.5q0 -46 -22.5 -80.5t-57.5 -50.5q2 -2 2 -5l195 -1374q4 -40 22 -55l60 -53q12 -12 12 -19q0 -12 -14 -12h-295q-15 0 -15 12
q0 4 15 19l55 55q13 13 10 41z" />
    <glyph glyph-name="AE" unicode="&#xc6;" horiz-adv-x="948" 
d="M434 483v678h-4l-151 -676q-1 -6 5 -11t13 -5h129q8 0 8 14zM592 1434v-600h45q16 0 22 14l72 143q7 13 12 13q9 0 9 -13v-434q0 -10 -9 -10q-7 0 -14 14l-70 150q-6 14 -22 14h-45v-623h117q43 0 55 37l110 393q3 13 15 13q10 0 10 -13v-514q0 -18 -16 -18h-531
q-12 0 -12 12q0 9 14 19l62 59q18 18 18 57v199q0 14 -12 14h-154q-18 0 -22 -16l-56 -240q-3 -17 3 -26l47 -51q10 -10 10 -21q0 -6 -10 -6h-222q-14 0 -14 12q0 4 2.5 7t9 9t7.5 7l51 53q15 18 20 37l318 1384q8 27 22 27h449q6 0 11 -5.5t5 -12.5v-510q0 -13 -10 -13
q-13 0 -17 15l-110 385q-12 39 -53 39h-117z" />
    <glyph glyph-name="Ccedilla" unicode="&#xc7;" horiz-adv-x="598" 
d="M219 -262l19 29q52 -23 98 -23q27 0 44 17t17 46q0 35 -36.5 50t-81.5 2l45 141q-50 0 -90.5 27.5t-67.5 72.5t-47.5 111.5t-32 134.5t-18.5 153.5t-9 156t-2 153.5q0 68 1 120.5t7 132.5t16.5 140t30.5 126t47 109t69.5 71t95.5 28q45 0 98 -43q14 -12 35 -12
q18 0 39 24q27 31 39 31q14 0 14 -35v-487q0 -19 -12 -19q-13 0 -17 23q-11 72 -26 138.5t-38 132.5t-55 105.5t-69 39.5q-64 0 -85.5 -141t-21.5 -486q0 -227 8 -368.5t26.5 -214.5t41.5 -97.5t61 -24.5q39 0 71.5 58t49.5 134.5t26 133t9 70.5q0 16 17 16q14 0 14 -18
q0 -214 -36.5 -336t-127.5 -150l-29 -92q49 6 86 -28.5t37 -84.5q0 -53 -37 -87.5t-90 -34.5q-56 0 -133 55z" />
    <glyph glyph-name="Egrave" unicode="&#xc8;" horiz-adv-x="632" 
d="M276 1434v-600h46q16 0 22 14l72 143q6 13 12 13q8 0 8 -13v-434q0 -10 -8 -10q-7 0 -14 14l-70 150q-6 14 -22 14h-46v-623h117q44 0 56 37l110 393q3 13 14 13t11 -13v-514q0 -18 -17 -18h-530q-12 0 -12 12q0 3 6 9.5t8 9.5l61 59q19 19 19 57v1242q0 38 -19 57
l-61 59q-1 2 -5 6t-6.5 7t-2.5 6q0 12 12 12h530q6 0 11.5 -5.5t5.5 -12.5v-510q0 -13 -11 -13q-12 0 -16 15l-111 385q-12 39 -53 39h-117zM383 1591l-12 -20l-279 104q-30 11 -20 23l47 88q10 13 35 -8z" />
    <glyph glyph-name="Eacute" unicode="&#xc9;" horiz-adv-x="632" 
d="M276 1434v-600h46q16 0 22 14l72 143q6 13 12 13q8 0 8 -13v-434q0 -10 -8 -10q-7 0 -14 14l-70 150q-6 14 -22 14h-46v-623h117q44 0 56 37l110 393q3 13 14 13t11 -13v-514q0 -18 -17 -18h-530q-12 0 -12 12q0 3 6 9.5t8 9.5l61 59q19 19 19 57v1242q0 38 -19 57
l-61 59q-1 2 -5 6t-6.5 7t-2.5 6q0 12 12 12h530q6 0 11.5 -5.5t5.5 -12.5v-510q0 -13 -11 -13q-12 0 -16 15l-111 385q-12 39 -53 39h-117zM262 1573l-12 20l231 187q22 22 33 8l49 -88q7 -11 -20 -23z" />
    <glyph glyph-name="Ecircumflex" unicode="&#xca;" horiz-adv-x="632" 
d="M276 1434v-600h46q16 0 22 14l72 143q6 13 12 13q8 0 8 -13v-434q0 -10 -8 -10q-7 0 -14 14l-70 150q-6 14 -22 14h-46v-623h117q44 0 56 37l110 393q3 13 14 13t11 -13v-514q0 -18 -17 -18h-530q-12 0 -12 12q0 3 6 9.5t8 9.5l61 59q19 19 19 57v1242q0 38 -19 57
l-61 59q-1 2 -5 6t-6.5 7t-2.5 6q0 12 12 12h530q6 0 11.5 -5.5t5.5 -12.5v-510q0 -13 -11 -13q-12 0 -16 15l-111 385q-12 39 -53 39h-117zM459 1561l-119 102q-9 7 -23.5 7t-21.5 -7l-119 -102l-22 16l139 221q7 17 24 17t27 -17l137 -221z" />
    <glyph glyph-name="Edieresis" unicode="&#xcb;" horiz-adv-x="632" 
d="M276 1434v-600h46q16 0 22 14l72 143q6 13 12 13q8 0 8 -13v-434q0 -10 -8 -10q-7 0 -14 14l-70 150q-6 14 -22 14h-46v-623h117q44 0 56 37l110 393q3 13 14 13t11 -13v-514q0 -18 -17 -18h-530q-12 0 -12 12q0 3 6 9.5t8 9.5l61 59q19 19 19 57v1242q0 38 -19 57
l-61 59q-1 2 -5 6t-6.5 7t-2.5 6q0 12 12 12h530q6 0 11.5 -5.5t5.5 -12.5v-510q0 -13 -11 -13q-12 0 -16 15l-111 385q-12 39 -53 39h-117zM205 1739q30 0 48.5 -17t18.5 -47q0 -29 -19 -48t-48 -19q-27 0 -48.5 19.5t-21.5 47.5q0 29 21 46.5t49 17.5zM430 1739
q30 0 49 -17t19 -47q0 -29 -19.5 -48t-48.5 -19q-27 0 -48.5 19.5t-21.5 47.5q0 29 21 46.5t49 17.5z" />
    <glyph glyph-name="Igrave" unicode="&#xcc;" horiz-adv-x="395" 
d="M119 147v1242q0 38 -19 57l-61 59q-1 2 -5 6t-6.5 7t-2.5 6q0 12 12 12h321q13 0 13 -12q0 -3 -3 -6l-7 -7t-5 -6l-61 -59q-19 -19 -19 -57v-1242q0 -38 19 -57l61 -59q1 -2 5 -6l7 -7t3 -6q0 -12 -13 -12h-321q-12 0 -12 12q0 3 2.5 6t6.5 7t5 6l61 59q19 19 19 57z
M264 1591l-12 -20l-279 104q-30 11 -20 23l47 88q10 13 35 -8z" />
    <glyph glyph-name="Iacute" unicode="&#xcd;" horiz-adv-x="395" 
d="M119 147v1242q0 38 -19 57l-61 59q-1 2 -5 6t-6.5 7t-2.5 6q0 12 12 12h321q13 0 13 -12q0 -3 -3 -6l-7 -7t-5 -6l-61 -59q-19 -19 -19 -57v-1242q0 -38 19 -57l61 -59q1 -2 5 -6l7 -7t3 -6q0 -12 -13 -12h-321q-12 0 -12 12q0 3 2.5 6t6.5 7t5 6l61 59q19 19 19 57z
M143 1573l-12 20l231 187q22 22 33 8l49 -88q7 -11 -20 -23z" />
    <glyph glyph-name="Icircumflex" unicode="&#xce;" horiz-adv-x="395" 
d="M119 147v1242q0 38 -19 57l-61 59q-1 2 -5 6t-6.5 7t-2.5 6q0 12 12 12h321q13 0 13 -12q0 -3 -3 -6l-7 -7t-5 -6l-61 -59q-19 -19 -19 -57v-1242q0 -38 19 -57l61 -59q1 -2 5 -6l7 -7t3 -6q0 -12 -13 -12h-321q-12 0 -12 12q0 3 2.5 6t6.5 7t5 6l61 59q19 19 19 57z
M340 1561l-119 102q-9 7 -23 7t-22 -7l-119 -102l-22 16l139 221q7 17 25 17q16 0 26 -17l137 -221z" />
    <glyph glyph-name="Idieresis" unicode="&#xcf;" horiz-adv-x="395" 
d="M119 147v1242q0 38 -19 57l-61 59q-1 2 -5 6t-6.5 7t-2.5 6q0 12 12 12h321q13 0 13 -12q0 -3 -3 -6l-7 -7t-5 -6l-61 -59q-19 -19 -19 -57v-1242q0 -38 19 -57l61 -59q1 -2 5 -6l7 -7t3 -6q0 -12 -13 -12h-321q-12 0 -12 12q0 3 2.5 6t6.5 7t5 6l61 59q19 19 19 57z
M86 1739q30 0 49 -17t19 -47q0 -29 -19.5 -48t-48.5 -19q-27 0 -48.5 19.5t-21.5 47.5q0 29 21 46.5t49 17.5zM311 1739q30 0 49 -17t19 -47q0 -29 -19.5 -48t-48.5 -19q-27 0 -48 19.5t-21 47.5q0 29 20.5 46.5t48.5 17.5z" />
    <glyph glyph-name="Eth" unicode="&#xd0;" horiz-adv-x="694" 
d="M276 735v-633h37q27 0 47 12.5t42 55.5t35.5 117.5t22.5 206t9 313.5q0 159 -9 275.5t-22.5 183t-35 105.5t-42 51t-47.5 12h-37v-611h99v-88h-99zM119 147v588h-94v88h94v566q0 38 -19 57l-61 59q-1 2 -5 6t-6.5 7t-2.5 6q0 12 12 12h270q79 0 139 -40t103.5 -125.5
t65.5 -226.5t22 -337q0 -197 -15 -340t-41 -232.5t-68.5 -142.5t-91 -72.5t-114.5 -19.5h-270q-12 0 -12 12q0 3 6 9.5t8 9.5l61 59q19 19 19 57z" />
    <glyph glyph-name="Ntilde" unicode="&#xd1;" horiz-adv-x="729" 
d="M109 147v1242q0 32 -19 57l-51 59q-1 2 -5 6t-6.5 7.5t-2.5 7.5q0 10 12 10h246q17 0 24 -35l189 -880h4v768q0 36 -19 55l-57 61q-1 2 -5 6t-6.5 7.5t-2.5 7.5q0 10 12 10h270q13 0 13 -10q0 -6 -15 -21l-51 -59q-18 -24 -18 -57v-1366q0 -23 -21 -23h-86
q-14 0 -25.5 14t-15.5 37l-240 1116h-4v-1020q0 -34 21 -55l55 -61q14 -14 14 -21q0 -10 -12 -10h-270q-12 0 -12 10q0 4 2.5 7.5t6.5 7.5t5 6l51 59q19 25 19 57zM215 1567l-27 14q20 77 46.5 121.5t52.5 44.5t78 -31l51 -30q15 -9 37 -9q33 0 73 82l29 -14
q-19 -73 -46 -120.5t-56 -47.5q-26 0 -66 20l-47 27q-35 21 -53 21q-28 0 -72 -78z" />
    <glyph glyph-name="Ograve" unicode="&#xd2;" horiz-adv-x="661" 
d="M330 1536q51 0 93 -25.5t70 -66.5t49 -102t32.5 -122.5t18.5 -138t9 -138.5t2 -134q0 -93 -2 -167.5t-9 -161.5t-18.5 -152.5t-32.5 -130t-49 -105.5t-69.5 -66.5t-93.5 -25.5q-51 0 -92.5 25.5t-69.5 66.5t-48.5 105t-32.5 130t-19 153t-9 161.5t-2 167.5q0 72 2 134
t9 138.5t19 138t32.5 122.5t48.5 102t69.5 66.5t92.5 25.5zM330 1434q-31 0 -53.5 -60t-37 -204t-14.5 -363q0 -705 105 -705q106 0 106 705q0 627 -106 627zM397 1591l-12 -20l-279 104q-30 11 -20 23l47 88q10 13 35 -8z" />
    <glyph glyph-name="Oacute" unicode="&#xd3;" horiz-adv-x="661" 
d="M330 1536q51 0 93 -25.5t70 -66.5t49 -102t32.5 -122.5t18.5 -138t9 -138.5t2 -134q0 -93 -2 -167.5t-9 -161.5t-18.5 -152.5t-32.5 -130t-49 -105.5t-69.5 -66.5t-93.5 -25.5q-51 0 -92.5 25.5t-69.5 66.5t-48.5 105t-32.5 130t-19 153t-9 161.5t-2 167.5q0 72 2 134
t9 138.5t19 138t32.5 122.5t48.5 102t69.5 66.5t92.5 25.5zM330 1434q-31 0 -53.5 -60t-37 -204t-14.5 -363q0 -705 105 -705q106 0 106 705q0 627 -106 627zM276 1573l-12 20l232 187q21 21 32 8l50 -88q7 -11 -21 -23z" />
    <glyph glyph-name="Ocircumflex" unicode="&#xd4;" horiz-adv-x="661" 
d="M330 1536q51 0 93 -25.5t70 -66.5t49 -102t32.5 -122.5t18.5 -138t9 -138.5t2 -134q0 -93 -2 -167.5t-9 -161.5t-18.5 -152.5t-32.5 -130t-49 -105.5t-69.5 -66.5t-93.5 -25.5q-51 0 -92.5 25.5t-69.5 66.5t-48.5 105t-32.5 130t-19 153t-9 161.5t-2 167.5q0 72 2 134
t9 138.5t19 138t32.5 122.5t48.5 102t69.5 66.5t92.5 25.5zM330 1434q-31 0 -53.5 -60t-37 -204t-14.5 -363q0 -705 105 -705q106 0 106 705q0 627 -106 627zM469 1561l-119 102q-9 7 -23.5 7t-21.5 -7l-119 -102l-22 16l139 221q7 17 25 17q16 0 26 -17l138 -221z" />
    <glyph glyph-name="Otilde" unicode="&#xd5;" horiz-adv-x="661" 
d="M330 1536q51 0 93 -25.5t70 -66.5t49 -102t32.5 -122.5t18.5 -138t9 -138.5t2 -134q0 -93 -2 -167.5t-9 -161.5t-18.5 -152.5t-32.5 -130t-49 -105.5t-69.5 -66.5t-93.5 -25.5q-51 0 -92.5 25.5t-69.5 66.5t-48.5 105t-32.5 130t-19 153t-9 161.5t-2 167.5q0 72 2 134
t9 138.5t19 138t32.5 122.5t48.5 102t69.5 66.5t92.5 25.5zM330 1434q-31 0 -53.5 -60t-37 -204t-14.5 -363q0 -705 105 -705q106 0 106 705q0 627 -106 627zM174 1567l-27 14q20 77 46.5 121.5t52.5 44.5t78 -31l51 -30q15 -9 37 -9q33 0 73 82l29 -14q-19 -73 -46 -120.5
t-56 -47.5q-26 0 -66 20l-47 27q-35 21 -53 21q-28 0 -72 -78z" />
    <glyph glyph-name="Odieresis" unicode="&#xd6;" horiz-adv-x="661" 
d="M330 1536q51 0 93 -25.5t70 -66.5t49 -102t32.5 -122.5t18.5 -138t9 -138.5t2 -134q0 -93 -2 -167.5t-9 -161.5t-18.5 -152.5t-32.5 -130t-49 -105.5t-69.5 -66.5t-93.5 -25.5q-51 0 -92.5 25.5t-69.5 66.5t-48.5 105t-32.5 130t-19 153t-9 161.5t-2 167.5q0 72 2 134
t9 138.5t19 138t32.5 122.5t48.5 102t69.5 66.5t92.5 25.5zM330 1434q-31 0 -53.5 -60t-37 -204t-14.5 -363q0 -705 105 -705q106 0 106 705q0 627 -106 627zM219 1739q30 0 49 -17t19 -47q0 -29 -19.5 -48t-48.5 -19q-27 0 -48 19.5t-21 47.5q0 29 20.5 46.5t48.5 17.5z
M444 1739q30 0 49 -17t19 -47q0 -29 -19.5 -48t-48.5 -19q-27 0 -48 19.5t-21 47.5q0 29 20.5 46.5t48.5 17.5z" />
    <glyph glyph-name="multiply" unicode="&#xd7;" 
d="M541 518l-400 400l74 73l397 -401l402 401l73 -73l-401 -400l401 -399l-73 -74l-402 401l-397 -401l-74 74z" />
    <glyph glyph-name="Oslash" unicode="&#xd8;" horiz-adv-x="661" 
d="M229 604l195 498q-19 332 -94 332q-31 0 -53.5 -60t-37 -204t-14.5 -363v-203h4zM430 926l-192 -500q22 -324 92 -324q106 0 106 705q0 90 -2 119h-4zM664 1513l-99 -251q39 -164 39 -453q0 -93 -2 -167.5t-9 -161.5t-18.5 -152.5t-32.5 -130t-49 -105.5t-69.5 -66.5
t-93.5 -25.5q-133 0 -197 162l-63 -162l-70 23l98 251q-41 176 -41 535q0 72 2 134t9 138.5t19 138t32.5 122.5t48.5 102t69.5 66.5t92.5 25.5q128 0 200 -164l64 164z" />
    <glyph glyph-name="Ugrave" unicode="&#xd9;" horiz-adv-x="679" 
d="M98 221v1168q0 41 -16 57l-64 59q-10 10 -10 19q0 12 12 12h314q12 0 12 -12q0 -9 -10 -19l-64 -59q-16 -19 -16 -57v-1115q0 -31 1.5 -52.5t7.5 -46t17 -39t30.5 -24.5t47.5 -10q97 0 97 172v1115q0 40 -17 57l-63 59q-10 10 -10 19q0 12 12 12h280q13 0 13 -12
q0 -9 -10 -19l-64 -59q-16 -19 -16 -57v-1168q0 -96 -67 -158.5t-171 -62.5q-118 0 -182 61t-64 160zM408 1591l-13 -20l-278 104q-30 11 -21 23l47 88q10 13 35 -8z" />
    <glyph glyph-name="Uacute" unicode="&#xda;" horiz-adv-x="679" 
d="M98 221v1168q0 41 -16 57l-64 59q-10 10 -10 19q0 12 12 12h314q12 0 12 -12q0 -9 -10 -19l-64 -59q-16 -19 -16 -57v-1115q0 -31 1.5 -52.5t7.5 -46t17 -39t30.5 -24.5t47.5 -10q97 0 97 172v1115q0 40 -17 57l-63 59q-10 10 -10 19q0 12 12 12h280q13 0 13 -12
q0 -9 -10 -19l-64 -59q-16 -19 -16 -57v-1168q0 -96 -67 -158.5t-171 -62.5q-118 0 -182 61t-64 160zM285 1573l-13 20l232 187q22 22 33 8l49 -88q7 -11 -21 -23z" />
    <glyph glyph-name="Ucircumflex" unicode="&#xdb;" horiz-adv-x="679" 
d="M98 221v1168q0 41 -16 57l-64 59q-10 10 -10 19q0 12 12 12h314q12 0 12 -12q0 -9 -10 -19l-64 -59q-16 -19 -16 -57v-1115q0 -31 1.5 -52.5t7.5 -46t17 -39t30.5 -24.5t47.5 -10q97 0 97 172v1115q0 40 -17 57l-63 59q-10 10 -10 19q0 12 12 12h280q13 0 13 -12
q0 -9 -10 -19l-64 -59q-16 -19 -16 -57v-1168q0 -96 -67 -158.5t-171 -62.5q-118 0 -182 61t-64 160zM481 1561l-119 102q-9 7 -23.5 7t-21.5 -7l-118 -102l-23 16l139 221q7 17 25 17q17 0 27 -17l137 -221z" />
    <glyph glyph-name="Udieresis" unicode="&#xdc;" horiz-adv-x="679" 
d="M98 221v1168q0 41 -16 57l-64 59q-10 10 -10 19q0 12 12 12h314q12 0 12 -12q0 -9 -10 -19l-64 -59q-16 -19 -16 -57v-1115q0 -31 1.5 -52.5t7.5 -46t17 -39t30.5 -24.5t47.5 -10q97 0 97 172v1115q0 40 -17 57l-63 59q-10 10 -10 19q0 12 12 12h280q13 0 13 -12
q0 -9 -10 -19l-64 -59q-16 -19 -16 -57v-1168q0 -96 -67 -158.5t-171 -62.5q-118 0 -182 61t-64 160zM229 1739q30 0 49 -17t19 -47q0 -29 -19.5 -48t-48.5 -19q-27 0 -48 19.5t-21 47.5q0 29 20.5 46.5t48.5 17.5zM455 1739q30 0 48.5 -17t18.5 -47q0 -29 -19 -48t-48 -19
q-27 0 -48.5 19.5t-21.5 47.5q0 29 21 46.5t49 17.5z" />
    <glyph glyph-name="Yacute" unicode="&#xdd;" horiz-adv-x="665" 
d="M252 147v490l-152 752q-3 25 -22 47l-58 69q-12 18 -12 23q0 8 15 8h292q17 0 17 -10t-15 -21l-63 -59q-13 -13 -6 -39l92 -453h4l96 453q7 27 -8 39l-65 59q-15 11 -15 21t19 10h270q16 0 16 -8q0 -9 -14 -23l-68 -69q-13 -16 -20 -47l-145 -689v-553q0 -39 18 -57
l61 -59q1 -2 5 -6l7 -7t3 -6q0 -12 -12 -12h-322q-12 0 -12 12q0 3 2.5 6t6.5 7t5 6l61 59q19 19 19 57zM279 1573l-13 20l232 187q21 21 32 8l50 -88q7 -11 -21 -23z" />
    <glyph glyph-name="Thorn" unicode="&#xde;" horiz-adv-x="665" 
d="M119 147v1242q0 38 -19 57l-61 59q-1 2 -5 6t-6.5 7t-2.5 6q0 12 12 12h321q13 0 13 -12q0 -3 -3 -6l-7 -7t-5 -6l-61 -59q-19 -19 -19 -57v-156h70q63 0 110 -18.5t84.5 -62t56.5 -123t19 -193.5q0 -203 -67.5 -314.5t-202.5 -111.5h-70v-263q0 -43 19 -57l76 -59
q14 -14 14 -19q0 -12 -12 -12h-336q-12 0 -12 12q0 3 6 9.5t8 9.5l61 59q19 19 19 57zM276 1130v-618h60q63 0 88 74.5t25 249.5q0 170 -24 232t-89 62h-60z" />
    <glyph glyph-name="germandbls" unicode="&#xdf;" horiz-adv-x="659" 
d="M229 1212v-1202q0 -10 -10 -10h-196q-13 0 -13 8q0 7 8 15l64 71q4 4 4 19v1112q0 147 69 229t167 82q110 0 180.5 -103t70.5 -276q0 -268 -159 -354q84 -39 138 -133t54 -244q0 -201 -59 -313.5t-146 -112.5q-34 0 -62 23.5t-43 56.5t-22.5 63t-7.5 50q0 18 15 18
q7 0 18 -21q1 -1 5.5 -11.5l9 -20.5t12.5 -23.5t16.5 -23t19.5 -16.5t23 -7q36 0 48.5 72t12.5 266q0 159 -32.5 252.5t-94.5 93.5q-20 0 -20 16v23q0 20 20 20q59 0 79 70t20 262q0 168 -22.5 234.5t-73.5 66.5q-93 0 -93 -252z" />
    <glyph glyph-name="agrave" unicode="&#xe0;" horiz-adv-x="595" 
d="M494 883v-744q0 -51 26 -51q38 0 60 35q8 8 10 8q6 0 6 -10q-6 -46 -38 -83.5t-69 -37.5q-42 0 -69 21t-51 57q-70 -78 -142 -78q-178 0 -178 332q0 120 19.5 188t71 128.5t169.5 154.5q29 24 35 45.5t6 89.5q0 67 -18 90t-68 23q-42 0 -97 -27t-85 -57q-6 -6 -16 -6
q-7 0 -7 10t20.5 37t52 56.5t75.5 52t84 22.5q25 0 50 -6t53.5 -23.5t50 -45t35.5 -74.5t14 -107zM350 209v536h-4q-86 -73 -115.5 -147.5t-29.5 -228.5q0 -114 8 -176.5t21.5 -83.5t37.5 -21q33 0 57.5 38.5t24.5 82.5zM365 1233l-13 -21l-278 105q-30 11 -21 22l47 88
q10 13 35 -8z" />
    <glyph glyph-name="aacute" unicode="&#xe1;" horiz-adv-x="595" 
d="M494 883v-744q0 -51 26 -51q38 0 60 35q8 8 10 8q6 0 6 -10q-6 -46 -38 -83.5t-69 -37.5q-42 0 -69 21t-51 57q-70 -78 -142 -78q-178 0 -178 332q0 120 19.5 188t71 128.5t169.5 154.5q29 24 35 45.5t6 89.5q0 67 -18 90t-68 23q-42 0 -97 -27t-85 -57q-6 -6 -16 -6
q-7 0 -7 10t20.5 37t52 56.5t75.5 52t84 22.5q25 0 50 -6t53.5 -23.5t50 -45t35.5 -74.5t14 -107zM350 209v536h-4q-86 -73 -115.5 -147.5t-29.5 -228.5q0 -114 8 -176.5t21.5 -83.5t37.5 -21q33 0 57.5 38.5t24.5 82.5zM244 1214l-13 21l232 186q22 22 33 9l49 -89
q6 -10 -21 -22z" />
    <glyph glyph-name="acircumflex" unicode="&#xe2;" horiz-adv-x="595" 
d="M494 883v-744q0 -51 26 -51q38 0 60 35q8 8 10 8q6 0 6 -10q-6 -46 -38 -83.5t-69 -37.5q-42 0 -69 21t-51 57q-70 -78 -142 -78q-178 0 -178 332q0 120 19.5 188t71 128.5t169.5 154.5q29 24 35 45.5t6 89.5q0 67 -18 90t-68 23q-42 0 -97 -27t-85 -57q-6 -6 -16 -6
q-7 0 -7 10t20.5 37t52 56.5t75.5 52t84 22.5q25 0 50 -6t53.5 -23.5t50 -45t35.5 -74.5t14 -107zM350 209v536h-4q-86 -73 -115.5 -147.5t-29.5 -228.5q0 -114 8 -176.5t21.5 -83.5t37.5 -21q33 0 57.5 38.5t24.5 82.5zM440 1202l-118 103q-9 7 -23.5 7t-22.5 -7l-118 -103
l-23 17l139 221q6 16 25 16q17 0 27 -16l137 -221z" />
    <glyph glyph-name="atilde" unicode="&#xe3;" horiz-adv-x="595" 
d="M494 883v-744q0 -51 26 -51q38 0 60 35q8 8 10 8q6 0 6 -10q-6 -46 -38 -83.5t-69 -37.5q-42 0 -69 21t-51 57q-70 -78 -142 -78q-178 0 -178 332q0 120 19.5 188t71 128.5t169.5 154.5q29 24 35 45.5t6 89.5q0 67 -18 90t-68 23q-42 0 -97 -27t-85 -57q-6 -6 -16 -6
q-7 0 -7 10t20.5 37t52 56.5t75.5 52t84 22.5q25 0 50 -6t53.5 -23.5t50 -45t35.5 -74.5t14 -107zM350 209v536h-4q-86 -73 -115.5 -147.5t-29.5 -228.5q0 -114 8 -176.5t21.5 -83.5t37.5 -21q33 0 57.5 38.5t24.5 82.5zM141 1208l-26 15q21 78 46.5 122t51.5 44t78 -31
l51 -31q13 -8 37 -8q34 0 74 82l28 -15q-18 -72 -45.5 -119.5t-56.5 -47.5q-26 0 -66 20l-47 27q-33 20 -53 20q-28 0 -72 -78z" />
    <glyph glyph-name="adieresis" unicode="&#xe4;" horiz-adv-x="595" 
d="M494 883v-744q0 -51 26 -51q38 0 60 35q8 8 10 8q6 0 6 -10q-6 -46 -38 -83.5t-69 -37.5q-42 0 -69 21t-51 57q-70 -78 -142 -78q-178 0 -178 332q0 120 19.5 188t71 128.5t169.5 154.5q29 24 35 45.5t6 89.5q0 67 -18 90t-68 23q-42 0 -97 -27t-85 -57q-6 -6 -16 -6
q-7 0 -7 10t20.5 37t52 56.5t75.5 52t84 22.5q25 0 50 -6t53.5 -23.5t50 -45t35.5 -74.5t14 -107zM350 209v536h-4q-86 -73 -115.5 -147.5t-29.5 -228.5q0 -114 8 -176.5t21.5 -83.5t37.5 -21q33 0 57.5 38.5t24.5 82.5zM186 1380q30 0 49 -16.5t19 -46.5q0 -29 -19.5 -48.5
t-48.5 -19.5q-27 0 -48 20t-21 48q0 29 20.5 46t48.5 17zM412 1380q30 0 48.5 -16.5t18.5 -46.5q0 -29 -19 -48.5t-48 -19.5q-27 0 -48.5 20t-21.5 48q0 29 21 46t49 17z" />
    <glyph glyph-name="aring" unicode="&#xe5;" horiz-adv-x="595" 
d="M494 883v-744q0 -51 26 -51q38 0 60 35q8 8 10 8q6 0 6 -10q-6 -46 -38 -83.5t-69 -37.5q-42 0 -69 21t-51 57q-70 -78 -142 -78q-178 0 -178 332q0 120 19.5 188t71 128.5t169.5 154.5q29 24 35 45.5t6 89.5q0 67 -18 90t-68 23q-42 0 -97 -27t-85 -57q-6 -6 -16 -6
q-7 0 -7 10t20.5 37t52 56.5t75.5 52t84 22.5q25 0 50 -6t53.5 -23.5t50 -45t35.5 -74.5t14 -107zM350 209v536h-4q-86 -73 -115.5 -147.5t-29.5 -228.5q0 -114 8 -176.5t21.5 -83.5t37.5 -21q33 0 57.5 38.5t24.5 82.5zM297 1438q-24 0 -36.5 -27.5t-12.5 -69.5
q0 -41 13 -69.5t36 -28.5q51 0 51 98q0 97 -51 97zM297 1487q56 0 98.5 -41.5t42.5 -104.5q0 -65 -42 -106t-99 -41q-53 0 -95 41.5t-42 105.5q0 62 42.5 104t94.5 42z" />
    <glyph glyph-name="ae" unicode="&#xe6;" horiz-adv-x="849" 
d="M354 201v553h-4q-88 -81 -116.5 -157.5t-28.5 -227.5q0 -153 12.5 -217t50.5 -64q32 0 59 30t27 83zM502 602v-158q0 -194 29.5 -275t99.5 -81q48 0 78 22t65 74q7 11 14 11q10 0 7 -13q-20 -79 -69 -130.5t-120 -51.5q-131 0 -200 94q-82 -94 -193 -94q-88 0 -124 87.5
t-36 260.5q0 58 5 102t20.5 83.5t31.5 68t50.5 64.5t65 63l87.5 74q27 22 34 44.5t7 90.5q0 113 -86 113q-42 0 -97 -27t-85 -57q-6 -6 -16 -6q-7 0 -7 10t20.5 37t52 56.5t75.5 52t84 22.5q93 0 151 -74q56 74 129 74q222 0 222 -385v-127q0 -25 -19 -25h-276zM502 680h151
v205q0 81 -20.5 123.5t-57.5 42.5q-39 0 -56 -41t-17 -125v-205z" />
    <glyph glyph-name="ccedilla" unicode="&#xe7;" horiz-adv-x="512" 
d="M160 -262l18 29q52 -23 98 -23q27 0 44.5 17t17.5 46q0 35 -37 50t-82 2l47 145q-109 15 -161 162t-52 448q0 253 63.5 389t178.5 136q72 0 115.5 -59.5t60.5 -147.5q4 -17 -6 -17q-5 0 -12 11q-44 67 -76.5 96t-71.5 29q-37 0 -56 -37t-27.5 -129t-8.5 -271
q0 -207 12 -324t33 -159.5t57 -42.5q73 0 136 109q10 16 18 16q9 0 6 -14q-47 -176 -151 -195l-27 -86q49 6 86 -28.5t37 -84.5q0 -53 -37 -87.5t-90 -34.5q-56 0 -133 55z" />
    <glyph glyph-name="egrave" unicode="&#xe8;" horiz-adv-x="561" 
d="M213 602v-158q0 -194 29.5 -275t99.5 -81q48 0 78 22t65 74q7 11 15 11q9 0 6 -13q-20 -79 -69 -130.5t-120 -51.5q-140 0 -202 150t-62 493q0 232 63 364t171 132q221 0 221 -385v-127q0 -25 -19 -25h-276zM213 680h152v205q0 81 -20.5 123.5t-57.5 42.5q-74 0 -74 -166
v-205zM348 1233l-12 -21l-279 105q-29 11 -20 22l47 88q10 13 35 -8z" />
    <glyph glyph-name="eacute" unicode="&#xe9;" horiz-adv-x="561" 
d="M213 602v-158q0 -194 29.5 -275t99.5 -81q48 0 78 22t65 74q7 11 15 11q9 0 6 -13q-20 -79 -69 -130.5t-120 -51.5q-140 0 -202 150t-62 493q0 232 63 364t171 132q221 0 221 -385v-127q0 -25 -19 -25h-276zM213 680h152v205q0 81 -20.5 123.5t-57.5 42.5q-74 0 -74 -166
v-205zM225 1214l-12 21l231 186q22 22 33 9l49 -89q6 -11 -20 -22z" />
    <glyph glyph-name="ecircumflex" unicode="&#xea;" horiz-adv-x="561" 
d="M213 602v-158q0 -194 29.5 -275t99.5 -81q48 0 78 22t65 74q7 11 15 11q9 0 6 -13q-20 -79 -69 -130.5t-120 -51.5q-140 0 -202 150t-62 493q0 232 63 364t171 132q221 0 221 -385v-127q0 -25 -19 -25h-276zM213 680h152v205q0 81 -20.5 123.5t-57.5 42.5q-74 0 -74 -166
v-205zM422 1202l-119 103q-9 7 -23 7t-22 -7l-119 -103l-22 17l139 221q6 16 25 16q16 0 26 -16l137 -221z" />
    <glyph glyph-name="edieresis" unicode="&#xeb;" horiz-adv-x="561" 
d="M213 602v-158q0 -194 29.5 -275t99.5 -81q48 0 78 22t65 74q7 11 15 11q9 0 6 -13q-20 -79 -69 -130.5t-120 -51.5q-140 0 -202 150t-62 493q0 232 63 364t171 132q221 0 221 -385v-127q0 -25 -19 -25h-276zM213 680h152v205q0 81 -20.5 123.5t-57.5 42.5q-74 0 -74 -166
v-205zM170 1380q30 0 49 -16.5t19 -46.5q0 -29 -19.5 -48.5t-48.5 -19.5q-27 0 -48.5 20t-21.5 48q0 29 21 46t49 17zM395 1380q30 0 49 -16.5t19 -46.5q0 -29 -19.5 -48.5t-48.5 -19.5q-27 0 -48 20t-21 48q0 29 20.5 46t48.5 17z" />
    <glyph glyph-name="igrave" unicode="&#xec;" horiz-adv-x="315" 
d="M86 113v927q0 11 -6 17l-62 57q-8 12 -8 16q0 9 13 9h196q10 0 10 -13v-1013q0 -15 4 -19l64 -71q8 -8 8 -15q0 -8 -12 -8h-270q-13 0 -13 8q0 7 8 15l64 71q4 4 4 19zM225 1233l-12 -21l-281 105q-29 11 -20 22l49 88q10 13 35 -8z" />
    <glyph glyph-name="iacute" unicode="&#xed;" horiz-adv-x="315" 
d="M86 113v927q0 11 -6 17l-62 57q-8 12 -8 16q0 9 13 9h196q10 0 10 -13v-1013q0 -15 4 -19l64 -71q8 -8 8 -15q0 -8 -12 -8h-270q-13 0 -13 8q0 7 8 15l64 71q4 4 4 19zM102 1214l-12 21l232 186q22 22 32 9l49 -89q6 -11 -20 -22z" />
    <glyph glyph-name="icircumflex" unicode="&#xee;" horiz-adv-x="315" 
d="M86 113v927q0 11 -6 17l-62 57q-8 12 -8 16q0 9 13 9h196q10 0 10 -13v-1013q0 -15 4 -19l64 -71q8 -8 8 -15q0 -8 -12 -8h-270q-13 0 -13 8q0 7 8 15l64 71q4 4 4 19zM287 1202l-119 103q-9 7 -23.5 7t-21.5 -7l-119 -103l-22 17l139 221q6 16 24 16q17 0 27 -16
l137 -221z" />
    <glyph glyph-name="idieresis" unicode="&#xef;" horiz-adv-x="315" 
d="M86 113v927q0 11 -6 17l-62 57q-8 12 -8 16q0 9 13 9h196q10 0 10 -13v-1013q0 -15 4 -19l64 -71q8 -8 8 -15q0 -8 -12 -8h-270q-13 0 -13 8q0 7 8 15l64 71q4 4 4 19zM35 1380q30 0 48.5 -16.5t18.5 -46.5q0 -29 -19 -48.5t-48 -19.5t-50.5 19.5t-21.5 48.5t21 46t51 17
zM260 1380q30 0 49 -16.5t19 -46.5q0 -29 -19.5 -48.5t-48.5 -19.5q-27 0 -48.5 20t-21.5 48q0 29 21 46t49 17z" />
    <glyph glyph-name="eth" unicode="&#xf0;" horiz-adv-x="591" 
d="M295 88q30 0 47 35t27 153t10 342q0 174 -10 270.5t-27.5 129.5t-46.5 33q-28 0 -45 -33t-27 -130t-10 -270q0 -136 3.5 -232t10 -154t17 -90t22.5 -43t29 -11zM324 1325l-150 -108l-43 53l160 116q-27 42 -82 78.5t-117 44.5q-7 1 -9.5 7.5t2 13t15.5 6.5
q162 0 256 -102l140 102l43 -53l-140 -103q60 -72 100 -268.5t40 -435.5q0 -196 -19 -333t-54 -209.5t-76.5 -103t-94.5 -30.5q-35 0 -63.5 11t-57 36.5t-50 72t-38 113t-25 164t-8.5 221.5q0 521 242 521q24 0 78 -33q0 47 -13.5 110.5t-35.5 108.5z" />
    <glyph glyph-name="ntilde" unicode="&#xf1;" horiz-adv-x="630" 
d="M229 1126v-59h4q34 36 64.5 54t77.5 18q78 0 124 -54t46 -155v-817q0 -15 4 -19l63 -71q9 -9 9 -15q0 -8 -13 -8h-270q-12 0 -12 8q0 7 8 15l63 71q4 4 4 19v819q0 119 -69 119q-39 0 -71 -50t-32 -129v-759q0 -15 2 -19l64 -71q10 -7 10 -15t-12 -8h-270q-13 0 -13 8
q0 10 8 15l64 71q4 4 4 19v927q0 11 -6 17l-62 57q-8 12 -8 16q0 9 13 9h196q10 0 10 -13zM158 1208l-27 15q21 78 46.5 122t51.5 44t78 -31l51 -31q13 -8 37 -8q34 0 74 82l29 -15q-18 -72 -46 -119.5t-57 -47.5q-25 0 -65 20l-47 27q-33 20 -54 20q-27 0 -71 -78z" />
    <glyph glyph-name="ograve" unicode="&#xf2;" horiz-adv-x="591" 
d="M295 1139q244 0 244 -521q0 -183 -18.5 -309t-54 -191t-76.5 -91.5t-95 -26.5q-35 0 -63.5 11t-57 36.5t-50 72t-38 113t-25 164t-8.5 221.5q0 521 242 521zM295 88q30 0 47 35t27 153t10 342q0 174 -10 270.5t-27.5 129.5t-46.5 33q-28 0 -45 -33t-27 -130t-10 -270
q0 -136 3.5 -232t10 -154t17 -90t22.5 -43t29 -11zM362 1233l-12 -21l-278 105q-30 11 -21 22l47 88q10 13 35 -8z" />
    <glyph glyph-name="oacute" unicode="&#xf3;" horiz-adv-x="591" 
d="M295 1139q244 0 244 -521q0 -183 -18.5 -309t-54 -191t-76.5 -91.5t-95 -26.5q-35 0 -63.5 11t-57 36.5t-50 72t-38 113t-25 164t-8.5 221.5q0 521 242 521zM295 88q30 0 47 35t27 153t10 342q0 174 -10 270.5t-27.5 129.5t-46.5 33q-28 0 -45 -33t-27 -130t-10 -270
q0 -136 3.5 -232t10 -154t17 -90t22.5 -43t29 -11zM242 1214l-13 21l232 186q22 22 33 9l49 -89q6 -10 -21 -22z" />
    <glyph glyph-name="ocircumflex" unicode="&#xf4;" horiz-adv-x="591" 
d="M295 1139q244 0 244 -521q0 -183 -18.5 -309t-54 -191t-76.5 -91.5t-95 -26.5q-35 0 -63.5 11t-57 36.5t-50 72t-38 113t-25 164t-8.5 221.5q0 521 242 521zM295 88q30 0 47 35t27 153t10 342q0 174 -10 270.5t-27.5 129.5t-46.5 33q-28 0 -45 -33t-27 -130t-10 -270
q0 -136 3.5 -232t10 -154t17 -90t22.5 -43t29 -11zM434 1202l-119 103q-9 7 -23 7t-22 -7l-118 -103l-23 17l139 221q6 16 25 16q16 0 26 -16l138 -221z" />
    <glyph glyph-name="otilde" unicode="&#xf5;" horiz-adv-x="591" 
d="M295 1139q244 0 244 -521q0 -183 -18.5 -309t-54 -191t-76.5 -91.5t-95 -26.5q-35 0 -63.5 11t-57 36.5t-50 72t-38 113t-25 164t-8.5 221.5q0 521 242 521zM295 88q30 0 47 35t27 153t10 342q0 174 -10 270.5t-27.5 129.5t-46.5 33q-28 0 -45 -33t-27 -130t-10 -270
q0 -136 3.5 -232t10 -154t17 -90t22.5 -43t29 -11zM139 1208l-26 15q21 78 46.5 122t51.5 44t78 -31l51 -31q13 -8 37 -8q34 0 74 82l28 -15q-18 -72 -45.5 -119.5t-56.5 -47.5q-26 0 -66 20l-47 27q-33 20 -53 20q-28 0 -72 -78z" />
    <glyph glyph-name="odieresis" unicode="&#xf6;" horiz-adv-x="591" 
d="M295 1139q244 0 244 -521q0 -183 -18.5 -309t-54 -191t-76.5 -91.5t-95 -26.5q-35 0 -63.5 11t-57 36.5t-50 72t-38 113t-25 164t-8.5 221.5q0 521 242 521zM295 88q30 0 47 35t27 153t10 342q0 174 -10 270.5t-27.5 129.5t-46.5 33q-28 0 -45 -33t-27 -130t-10 -270
q0 -136 3.5 -232t10 -154t17 -90t22.5 -43t29 -11zM184 1380q30 0 49 -16.5t19 -46.5q0 -29 -19.5 -48.5t-48.5 -19.5q-27 0 -48 20t-21 48q0 29 20.5 46t48.5 17zM410 1380q30 0 48.5 -16.5t18.5 -46.5q0 -29 -19 -48.5t-48 -19.5q-27 0 -48.5 20t-21.5 48q0 29 21 46
t49 17z" />
    <glyph glyph-name="divide" unicode="&#xf7;" 
d="M1130 467h-1032v102h1032v-102zM500 942q0 47 34 81t80 34t80.5 -34.5t34.5 -80.5q0 -43 -34.5 -79t-78.5 -36q-47 0 -81.5 34.5t-34.5 80.5zM500 94q0 47 34 81t80 34t80.5 -34.5t34.5 -80.5q0 -43 -34.5 -78.5t-78.5 -35.5q-47 0 -81.5 34t-34.5 80z" />
    <glyph glyph-name="oslash" unicode="&#xf8;" horiz-adv-x="591" 
d="M217 481l154 381q-7 108 -25.5 148.5t-50.5 40.5q-28 0 -45 -33t-27 -130t-10 -270v-137h4zM375 690l-152 -381q5 -90 15.5 -140t23.5 -65.5t33 -15.5q30 0 47 35t27 153t10 342v72h-4zM549 1110l-57 -139q47 -124 47 -353q0 -183 -18.5 -309t-54 -191t-76.5 -91.5
t-95 -26.5q-104 0 -158 100l-41 -100l-65 29l67 166q-45 146 -45 423q0 521 242 521q96 0 156 -82l32 82z" />
    <glyph glyph-name="ugrave" unicode="&#xf9;" horiz-adv-x="630" 
d="M545 1126v-1013q0 -15 2 -19l63 -71q11 -7 11 -15t-15 -8h-190q-15 0 -15 8v70h-4q-33 -38 -62.5 -58t-74.5 -20q-174 0 -174 209v831q0 11 -6 17l-62 57q-8 12 -8 16q0 9 13 9h196q10 0 10 -13v-919q0 -119 80 -119q38 0 65 45.5t27 118.5v788q0 11 -6 17l-59 57
q-10 10 -10 16q0 9 12 9h197q10 0 10 -13zM383 1233l-12 -21l-279 105q-29 11 -20 22l47 88q10 13 35 -8z" />
    <glyph glyph-name="uacute" unicode="&#xfa;" horiz-adv-x="630" 
d="M545 1126v-1013q0 -15 2 -19l63 -71q11 -7 11 -15t-15 -8h-190q-15 0 -15 8v70h-4q-33 -38 -62.5 -58t-74.5 -20q-174 0 -174 209v831q0 11 -6 17l-62 57q-8 12 -8 16q0 9 13 9h196q10 0 10 -13v-919q0 -119 80 -119q38 0 65 45.5t27 118.5v788q0 11 -6 17l-59 57
q-10 10 -10 16q0 9 12 9h197q10 0 10 -13zM260 1214l-12 21l231 186q22 22 33 9l49 -89q6 -11 -20 -22z" />
    <glyph glyph-name="ucircumflex" unicode="&#xfb;" horiz-adv-x="630" 
d="M545 1126v-1013q0 -15 2 -19l63 -71q11 -7 11 -15t-15 -8h-190q-15 0 -15 8v70h-4q-33 -38 -62.5 -58t-74.5 -20q-174 0 -174 209v831q0 11 -6 17l-62 57q-8 12 -8 16q0 9 13 9h196q10 0 10 -13v-919q0 -119 80 -119q38 0 65 45.5t27 118.5v788q0 11 -6 17l-59 57
q-10 10 -10 16q0 9 12 9h197q10 0 10 -13zM457 1202l-119 103q-9 7 -23.5 7t-21.5 -7l-119 -103l-22 17l139 221q6 16 24 16q17 0 27 -16l137 -221z" />
    <glyph glyph-name="udieresis" unicode="&#xfc;" horiz-adv-x="630" 
d="M545 1126v-1013q0 -15 2 -19l63 -71q11 -7 11 -15t-15 -8h-190q-15 0 -15 8v70h-4q-33 -38 -62.5 -58t-74.5 -20q-174 0 -174 209v831q0 11 -6 17l-62 57q-8 12 -8 16q0 9 13 9h196q10 0 10 -13v-919q0 -119 80 -119q38 0 65 45.5t27 118.5v788q0 11 -6 17l-59 57
q-10 10 -10 16q0 9 12 9h197q10 0 10 -13zM205 1380q30 0 48.5 -16.5t18.5 -46.5q0 -29 -19 -48.5t-48 -19.5q-27 0 -48.5 20t-21.5 48q0 29 21 46t49 17zM430 1380q30 0 49 -16.5t19 -46.5q0 -29 -19.5 -48.5t-48.5 -19.5q-27 0 -48.5 20t-21.5 48q0 29 21 46t49 17z" />
    <glyph glyph-name="yacute" unicode="&#xfd;" horiz-adv-x="530" 
d="M20 1139h228q12 0 12 -9q0 -7 -6 -16l-39 -51q-11 -18 -8 -39l74 -594h4l59 594q3 26 -10 39l-45 51q-8 8 -8 16q0 9 12 9h217q12 0 12 -9q0 -11 -8 -16l-51 -49q-14 -14 -17 -37l-137 -1108q-11 -95 -48.5 -142.5t-88.5 -47.5q-47 0 -82 36.5t-49 79t-14 78.5q0 15 8 15
q9 0 16 -15l22 -42t20 -31.5t26 -25.5t28 -7q66 0 66 116q0 74 -14 181l-123 913q-4 20 -15 31l-45 55q-8 12 -8 16q0 9 12 9zM211 1214l-12 21l231 186q22 22 33 9l49 -89q6 -11 -20 -22z" />
    <glyph glyph-name="thorn" unicode="&#xfe;" horiz-adv-x="608" 
d="M86 -160v1610q0 11 -8 16l-60 47q-8 5 -8 15q0 8 13 8h194q12 0 12 -12v-457h4q65 72 136 72q30 0 53.5 -8.5t49.5 -39.5t43 -84.5t28.5 -149.5t11.5 -228q-1 -140 -8.5 -247t-22 -173.5t-31 -110t-39 -64t-42 -27.5t-45.5 -7q-45 0 -75.5 20.5t-58.5 57.5h-4v-238
q0 -14 2 -16l64 -72q10 -10 10 -16t-12 -6h-270q-13 0 -13 6q0 8 8 16l64 72q4 2 4 16zM229 897v-657q0 -62 32.5 -107t68.5 -45q25 0 37.5 31t20 150t7.5 360q0 184 -9 278t-24 119t-43 25q-27 0 -58.5 -43.5t-31.5 -110.5z" />
    <glyph glyph-name="ydieresis" unicode="&#xff;" horiz-adv-x="530" 
d="M20 1139h228q12 0 12 -9q0 -7 -6 -16l-39 -51q-11 -18 -8 -39l74 -594h4l59 594q3 26 -10 39l-45 51q-8 8 -8 16q0 9 12 9h217q12 0 12 -9q0 -11 -8 -16l-51 -49q-14 -14 -17 -37l-137 -1108q-11 -95 -48.5 -142.5t-88.5 -47.5q-47 0 -82 36.5t-49 79t-14 78.5q0 15 8 15
q9 0 16 -15l22 -42t20 -31.5t26 -25.5t28 -7q66 0 66 116q0 74 -14 181l-123 913q-4 20 -15 31l-45 55q-8 12 -8 16q0 9 12 9zM154 1380q30 0 48.5 -16.5t18.5 -46.5q0 -29 -19 -48.5t-48 -19.5q-27 0 -48.5 20t-21.5 48q0 29 21 46t49 17zM379 1380q30 0 48.5 -16.5
t18.5 -46.5q0 -29 -19 -48.5t-48 -19.5q-27 0 -48.5 20t-21.5 48q0 29 21 46t49 17z" />
    <glyph glyph-name="dotlessi" unicode="&#x131;" horiz-adv-x="315" 
d="M86 113v927q0 11 -6 17l-62 57q-8 12 -8 16q0 9 13 9h196q10 0 10 -13v-1013q0 -15 4 -19l64 -71q8 -8 8 -15q0 -8 -12 -8h-270q-13 0 -13 8q0 7 8 15l64 71q4 4 4 19z" />
    <glyph glyph-name="Lslash" unicode="&#x141;" horiz-adv-x="610" 
d="M276 891v-789h82q44 0 54 31l127 397q1 2 2.5 5.5t2 5t2.5 3t5 1.5q10 0 10 -15v-501q0 -29 -22 -29h-502q-12 0 -12 12q0 3 6 9.5t8 9.5l61 59q19 19 19 57v517h-4l-90 -138l-54 43l148 213v607q0 38 -19 57l-61 59q-1 2 -5 6t-6.5 7t-2.5 6q0 12 12 12h321q13 0 13 -12
q0 -3 -3 -6l-7 -7t-5 -6l-61 -59q-19 -19 -19 -57v-379h5l102 153l53 -43z" />
    <glyph glyph-name="lslash" unicode="&#x142;" horiz-adv-x="315" 
d="M86 752v686q0 10 -6 16l-62 59q-8 8 -8 15q0 8 13 8h196q10 0 10 -12v-561h4l64 100l57 -39l-125 -184v-727q0 -15 4 -19l64 -71q8 -8 8 -15q0 -8 -12 -8h-270q-13 0 -13 8q0 7 8 15l64 71q4 4 4 19v516h-4l-49 -80l-58 39z" />
    <glyph glyph-name="OE" unicode="&#x152;" horiz-adv-x="919" 
d="M680 1434h-117v-600h45q17 0 23 14l71 143q6 13 13 13q8 0 8 -13v-434q0 -10 -8 -10t-15 14l-69 150q-6 14 -23 14h-45v-623h117q43 0 55 37l111 393q3 13 14 13q10 0 10 -13v-514q0 -18 -16 -18h-524q-50 0 -90.5 25.5t-68.5 67.5t-49 106t-33 131t-19.5 152.5t-10 161
t-2.5 165.5q0 727 277 727h520q6 0 11 -5.5t5 -12.5v-510q0 -13 -10 -13q-12 0 -16 15l-111 385q-12 39 -53 39zM406 156v1222q0 26 -13.5 41t-38.5 15q-65 0 -97 -147t-32 -480q0 -262 15.5 -419t43.5 -221.5t74 -64.5q22 0 35 14.5t13 39.5z" />
    <glyph glyph-name="oe" unicode="&#x153;" horiz-adv-x="872" 
d="M295 88q18 0 30 11t23.5 44.5t18 94.5t10.5 161.5t4 243.5q0 161 -10.5 253t-28.5 123.5t-47 31.5q-28 0 -45 -32t-27 -123t-10 -253q0 -144 3.5 -244t10 -161t17 -94.5t22.5 -44.5t29 -11zM524 602v-158q0 -194 29.5 -275t99.5 -81q48 0 78.5 22t65.5 74q7 11 14 11
q9 0 6 -13q-20 -79 -68.5 -130.5t-119.5 -51.5q-135 0 -180 119q-54 -119 -154 -119q-35 0 -63.5 11t-57 36.5t-50 72t-38 113t-25 164t-8.5 221.5q0 521 242 521q47 0 89 -29.5t67 -79.5q22 51 60.5 80t86.5 29q221 0 221 -385v-127q0 -25 -18 -25h-277zM524 680h152v205
q0 81 -20.5 123.5t-57.5 42.5q-74 0 -74 -166v-205z" />
    <glyph glyph-name="Scaron" unicode="&#x160;" horiz-adv-x="569" 
d="M487 1513v-507q0 -11 -12 -11q-8 0 -12 15q-18 90 -51.5 184t-81.5 167t-92 73q-35 0 -45.5 -24.5t-10.5 -72.5q0 -80 35 -186t143 -336q105 -223 132.5 -315.5t27.5 -216.5q0 -77 -18 -135t-47.5 -88.5t-60.5 -45t-62 -14.5q-54 0 -115 39q-33 20 -41 20q-5 0 -65 -45
q-19 -14 -25 -14q-10 0 -10 10v516q0 15 10 15q7 0 12 -15q14 -64 25.5 -108.5t33 -109.5t43 -105.5t53 -70.5t66.5 -30q29 0 44.5 29.5t15.5 77.5q0 97 -41 213.5t-137 318.5q-82 172 -117 298t-35 241q0 256 189 256q56 0 114 -47q20 -12 31 -12q15 0 47 32q30 27 43 27
q14 0 14 -23zM299 1712l119 103l22 -17l-139 -221q-6 -16 -25 -16q-16 0 -26 16l-137 221l22 17l119 -103q8 -8 22 -8t23 8z" />
    <glyph glyph-name="scaron" unicode="&#x161;" horiz-adv-x="491" 
d="M412 1118v-385q0 -16 -13 -16q-8 0 -12 18q-22 114 -61 213q-42 103 -95 103q-30 0 -40.5 -29t-10.5 -82q0 -134 125 -334q133 -213 133 -401q0 -91 -53.5 -148t-122.5 -57q-71 0 -123 66l-53 -56q-15 -10 -20 -10q-7 0 -7 14v394q0 14 9 14q2 0 4 -1l3 -1.5t2 -3t1 -4
t1 -5t1 -4.5q63 -315 156 -315q65 0 65 88q0 159 -131 369q-117 194 -117 375q0 95 48.5 157t107.5 62q65 0 121 -66l59 53q1 1 3.5 5t5 6t5.5 2t6 -7t3 -14zM256 1354l119 102l22 -16l-139 -221q-7 -17 -25 -17q-16 0 -26 17l-137 221l22 16l119 -102q7 -8 21.5 -8t23.5 8z
" />
    <glyph glyph-name="Ydieresis" unicode="&#x178;" horiz-adv-x="665" 
d="M252 147v490l-152 752q-3 25 -22 47l-58 69q-12 18 -12 23q0 8 15 8h292q17 0 17 -10t-15 -21l-63 -59q-13 -13 -6 -39l92 -453h4l96 453q7 27 -8 39l-65 59q-15 11 -15 21t19 10h270q16 0 16 -8q0 -9 -14 -23l-68 -69q-13 -16 -20 -47l-145 -689v-553q0 -39 18 -57
l61 -59q1 -2 5 -6l7 -7t3 -6q0 -12 -12 -12h-322q-12 0 -12 12q0 3 2.5 6t6.5 7t5 6l61 59q19 19 19 57zM221 1739q30 0 49 -17t19 -47q0 -29 -19.5 -48t-48.5 -19q-27 0 -48 19.5t-21 47.5q0 29 20.5 46.5t48.5 17.5zM446 1739q30 0 49 -17t19 -47q0 -29 -19.5 -48
t-48.5 -19q-27 0 -48 19.5t-21 47.5q0 29 20.5 46.5t48.5 17.5z" />
    <glyph glyph-name="Zcaron" unicode="&#x17d;" horiz-adv-x="641" 
d="M61 1018v506q0 4 5.5 8t11.5 4h493q13 0 13 -12q0 -1 -4 -21l-361 -1401h160q39 0 47 25l133 391q12 27 21 27q12 0 12 -27v-502q0 -16 -19 -16h-516q-8 0 -8 8q0 15 2 25l363 1405h-148q-27 0 -39 -27l-127 -387q-12 -31 -22 -31q-17 0 -17 25zM344 1712l119 103l22 -17
l-139 -221q-6 -16 -24 -16q-17 0 -27 16l-137 221l22 17l119 -103q7 -8 21.5 -8t23.5 8z" />
    <glyph glyph-name="zcaron" unicode="&#x17e;" horiz-adv-x="538" 
d="M59 754v368q0 6 6 11.5t13 5.5h377q10 0 10 -11q0 -8 -2 -14l-246 -1044h109q32 0 41 26l96 289q4 21 14 21q8 0 8 -21v-371q0 -14 -16 -14h-410q-6 0 -6 8v15l264 1046h-98q-27 0 -39 -29l-94 -280q-6 -23 -16 -23q-11 0 -11 17zM293 1354l119 102l22 -16l-139 -221
q-7 -17 -25 -17q-16 0 -26 17l-138 221l23 16l119 -102q8 -8 22 -8t23 8z" />
    <glyph glyph-name="florin" unicode="&#x192;" horiz-adv-x="544" 
d="M195 754h-152v86h152q0 15 1.5 72.5t2.5 82l3 76.5t5 85.5t7.5 78t10.5 82.5q15 104 60.5 161.5t115.5 57.5q60 0 102 -55.5t42 -118.5q0 -23 -13 -23q-11 0 -18 17q-12 29 -39 53.5t-65 24.5t-55 -44.5t-17 -144.5v-405h166v-86h-166v-162q0 -413 -21 -600
q-15 -129 -59 -195.5t-115 -66.5q-55 0 -100 55t-45 113q0 20 14 20q13 0 19 -16q10 -25 33.5 -47.5t54.5 -22.5q32 0 54 30.5t22 98.5v793z" />
    <glyph glyph-name="circumflex" unicode="&#x2c6;" horiz-adv-x="442" 
d="M362 1305l-118 102q-9 7 -23.5 7t-21.5 -7l-119 -102l-23 16l140 221q7 17 24 17t27 -17l137 -221z" />
    <glyph glyph-name="caron" unicode="&#x2c7;" horiz-adv-x="442" 
d="M244 1456l118 103l23 -17l-139 -221q-6 -16 -25 -16q-16 0 -26 16l-138 221l23 17l119 -103q7 -8 21.5 -8t23.5 8z" />
    <glyph glyph-name="uni02C9" unicode="&#x2c9;" horiz-adv-x="434" 
d="M57 1438h320v-82h-320v82z" />
    <glyph glyph-name="breve" unicode="&#x2d8;" horiz-adv-x="434" 
d="M217 1321q-65 0 -106.5 45.5t-53.5 124.5h35q16 -38 50 -63t75 -25q43 0 77 25t50 63h33q-14 -81 -54 -125.5t-106 -44.5z" />
    <glyph glyph-name="dotaccent" unicode="&#x2d9;" horiz-adv-x="251" 
d="M127 1483q30 0 49 -17t19 -47q0 -29 -19.5 -48t-48.5 -19q-27 0 -48.5 19.5t-21.5 47.5q0 29 21 46.5t49 17.5z" />
    <glyph glyph-name="ring" unicode="&#x2da;" horiz-adv-x="393" 
d="M195 1540q-24 0 -37 -27t-13 -69q0 -41 13 -69.5t37 -28.5q51 0 51 98q0 96 -51 96zM195 1589q56 0 98.5 -41.5t42.5 -103.5q0 -65 -42.5 -106.5t-98.5 -41.5q-53 0 -95.5 42t-42.5 106q0 62 43 103.5t95 41.5z" />
    <glyph glyph-name="ogonek" unicode="&#x2db;" horiz-adv-x="374" 
d="M168 23h59q-38 -52 -63 -108.5t-25 -92.5q0 -31 16.5 -49.5t41.5 -18.5q45 0 96 41l24 -41q-75 -71 -149 -71q-56 0 -83.5 27t-27.5 85q0 53 38 129.5t73 98.5z" />
    <glyph glyph-name="tilde" unicode="&#x2dc;" horiz-adv-x="471" 
d="M78 1311l-27 14q20 77 46.5 121.5t52.5 44.5q25 0 77 -31l52 -30q15 -9 36 -9q34 0 74 82l29 -14q-18 -72 -46 -120t-57 -48q-25 0 -65 20l-47 27q-35 21 -53 21q-28 0 -72 -78z" />
    <glyph glyph-name="hungarumlaut" unicode="&#x2dd;" horiz-adv-x="624" 
d="M274 1569l64 -76q13 -10 -12 -27l-252 -161l-17 18l187 231q21 24 30 15zM500 1569l63 -76q13 -10 -12 -27l-252 -161l-16 18l186 231q21 25 31 15z" />
    <glyph glyph-name="uni03A9" unicode="&#x3a9;" horiz-adv-x="821" 
d="M780 256l-22 -256h-289l-8 23q35 137 48 192t41 188t40 242t12 209q0 288 -53.5 440t-140.5 152q-88 0 -140.5 -144t-52.5 -450t143 -827l-10 -25h-287l-22 256l45 2q14 -85 36.5 -112t57.5 -27h113l-48.5 89.5t-56 120t-59 157t-41 175.5t-18.5 199q0 293 98.5 467
t245.5 174q146 0 243 -173t97 -466q0 -109 -21.5 -219.5t-61.5 -213t-66 -158t-66 -131.5l-11 -21h115q41 0 58.5 24t35.5 115z" />
    <glyph glyph-name="uni03BC" unicode="&#x3bc;" horiz-adv-x="630" 
d="M86 -254v1294q0 11 -6 17l-62 57q-8 12 -8 16q0 9 13 9h196q10 0 10 -13v-919q0 -57 18 -88t48 -31q44 0 75 45.5t31 112.5v794q0 11 -6 17l-59 57q-10 10 -10 16q0 9 12 9h197q10 0 10 -13v-1013q0 -15 2 -19l63 -71q11 -7 11 -15t-15 -8h-190q-15 0 -15 8v70h-4
q-26 -34 -73.5 -56t-112.5 -22q-25 -17 -25 -78q0 -47 47 -98l64 -72q8 -12 8 -16q0 -6 -12 -6h-193q-14 0 -14 16z" />
    <glyph glyph-name="pi" unicode="&#x3c0;" horiz-adv-x="782" 
d="M698 952l43 -12q-3 -22 -7.5 -40.5t-11 -36.5l-9.5 -26t-11.5 -27.5t-9.5 -21.5q-27 -8 -102 -8q-8 -133 -8 -501q0 -100 14.5 -148.5t52.5 -48.5q19 0 35 12t39 45l25 -35q-28 -64 -69 -97.5t-85 -33.5q-64 0 -100.5 60.5t-36.5 210.5q0 248 16 542q-38 0 -90.5 1
t-85.5 1v-43q0 -172 -12 -314t-30 -225.5t-33 -129.5t-27 -66q-53 -30 -99 -37l-12 33q56 92 90.5 243t44.5 279.5t10 264.5q-50 0 -84.5 -9.5t-52.5 -22t-53 -42.5l-25 41q2 2 13 16l17.5 22t22 23.5t28.5 25.5t34 22t41.5 19.5t47.5 12t56 4.5l138.5 -4.5t195.5 -3.5
q43 0 59 10t31 45z" />
    <glyph glyph-name="uni2010" unicode="&#x2010;" horiz-adv-x="393" 
d="M57 692h279v-86h-279v86z" />
    <glyph glyph-name="endash" unicode="&#x2013;" horiz-adv-x="1024" 
d="M0 692h1024v-86h-1024v86z" />
    <glyph glyph-name="emdash" unicode="&#x2014;" horiz-adv-x="2048" 
d="M0 692h2048v-86h-2048v86z" />
    <glyph glyph-name="quoteleft" unicode="&#x2018;" horiz-adv-x="274" 
d="M131 1081q-74 0 -74 140q0 57 13 110t32 89t40.5 63t38.5 40t26 13q10 0 10 -8q0 -3 -5.5 -10t-13.5 -16t-12 -15q-38 -58 -54 -117t-7 -84q43 -3 62.5 -29t19.5 -77q0 -45 -18.5 -72t-57.5 -27z" />
    <glyph glyph-name="quoteright" unicode="&#x2019;" horiz-adv-x="274" 
d="M143 1536q74 0 74 -139q0 -57 -13 -110t-32 -89t-40 -63.5t-38 -40.5t-26 -13q-11 0 -11 9q0 3 5.5 9.5l13.5 15.5t12 15q38 58 54 117t8 84q-43 3 -62.5 29.5t-19.5 77.5q0 98 75 98z" />
    <glyph glyph-name="quotesinglbase" unicode="&#x201a;" horiz-adv-x="274" 
d="M143 205q74 0 74 -139q0 -57 -13 -110t-32 -89t-40 -63.5t-38 -40.5t-26 -13q-11 0 -11 8q0 3 5.5 10t13.5 16t12 15q38 58 54 117t8 84q-43 3 -62.5 29t-19.5 77q0 99 75 99z" />
    <glyph glyph-name="quotedblleft" unicode="&#x201c;" horiz-adv-x="526" 
d="M131 1081q-74 0 -74 140q0 57 13 110t32 89t40.5 63t38.5 40t26 13q10 0 10 -8q0 -3 -5.5 -10t-13.5 -16t-12 -15q-38 -58 -54 -117t-7 -84q43 -3 62.5 -29t19.5 -77q0 -45 -18.5 -72t-57.5 -27zM383 1081q-74 0 -74 140q0 57 13 110t32 89t40.5 63t38.5 40t26 13
q10 0 10 -8q0 -3 -5.5 -10t-13.5 -16t-12 -15q-38 -58 -54 -117t-7 -84q43 -3 62.5 -29t19.5 -77q0 -45 -18.5 -72t-57.5 -27z" />
    <glyph glyph-name="quotedblright" unicode="&#x201d;" horiz-adv-x="526" 
d="M143 1536q74 0 74 -139q0 -57 -13 -110t-32 -89t-40 -63.5t-38 -40.5t-26 -13q-11 0 -11 9q0 3 5.5 9.5l13.5 15.5t12 15q38 58 54 117t8 84q-43 3 -62.5 29.5t-19.5 77.5q0 98 75 98zM395 1536q74 0 74 -139q0 -57 -13 -110t-32 -89t-40.5 -63.5t-38.5 -40.5t-26 -13
q-10 0 -10 9q0 3 5.5 9.5l13.5 15.5t12 15q38 58 54 117t7 84q-43 3 -62.5 29.5t-19.5 77.5q0 98 76 98z" />
    <glyph glyph-name="quotedblbase" unicode="&#x201e;" horiz-adv-x="526" 
d="M143 205q74 0 74 -139q0 -57 -13 -110t-32 -89t-40 -63.5t-38 -40.5t-26 -13q-11 0 -11 8q0 3 5.5 10t13.5 16t12 15q38 58 54 117t8 84q-43 3 -62.5 29t-19.5 77q0 99 75 99zM395 205q74 0 74 -139q0 -57 -13 -110t-32 -89t-40.5 -63.5t-38.5 -40.5t-26 -13q-10 0 -10 8
q0 3 5.5 10t13.5 16t12 15q38 58 54 117t7 84q-43 3 -62.5 29t-19.5 77q0 45 18.5 72t57.5 27z" />
    <glyph glyph-name="dagger" unicode="&#x2020;" horiz-adv-x="552" 
d="M244 1110l-189 -29q-30 -4 -30 9v102q0 12 32 8l187 -31l-27 332q-4 35 19 35h79q25 0 21 -33l-27 -334l187 31q32 4 32 -8v-102q0 -13 -30 -9l-189 29l19 -258l-27 -958q-4 -48 -22 -48q-19 0 -23 48l-29 958z" />
    <glyph glyph-name="daggerdbl" unicode="&#x2021;" horiz-adv-x="552" 
d="M227 936l17 174l-189 -29q-30 -4 -30 9v102q0 12 32 8l187 -31l-27 332q-4 35 19 35h79q25 0 21 -33l-27 -334l187 31q32 4 32 -8v-102q0 -13 -30 -9l-189 29l19 -174l-19 -195l187 31q32 4 32 -8v-102q0 -13 -30 -9l-189 29l19 -258l-27 -526q-4 -48 -22 -48
q-19 0 -23 48l-29 526l17 258l-189 -29q-30 -4 -30 9v102q0 12 32 8l187 -31z" />
    <glyph glyph-name="bullet" unicode="&#x2022;" horiz-adv-x="331" 
d="M164 977q61 0 90 -46.5t29 -111.5q0 -69 -29 -116.5t-90 -47.5q-57 0 -86 48t-29 116q0 64 29 111t86 47z" />
    <glyph glyph-name="ellipsis" unicode="&#x2026;" horiz-adv-x="1024" 
d="M170 207q38 0 56 -30.5t18 -74.5q0 -42 -18 -72t-56 -30q-37 0 -55.5 30.5t-18.5 71.5q0 43 18.5 74t55.5 31zM512 207q38 0 56 -30.5t18 -74.5q0 -42 -18 -72t-56 -30q-37 0 -55.5 30.5t-18.5 71.5q0 43 18.5 74t55.5 31zM854 207q38 0 56 -30.5t18 -74.5q0 -42 -18 -72
t-56 -30q-37 0 -55.5 30.5t-18.5 71.5q0 43 18.5 74t55.5 31z" />
    <glyph glyph-name="perthousand" unicode="&#x2030;" horiz-adv-x="1409" 
d="M711 682q-12 0 -22.5 -6.5t-22.5 -27t-21 -53.5t-14.5 -90.5t-5.5 -133.5t5.5 -134t14.5 -91t21 -54t22.5 -28t22.5 -7t23 7t23 28t21 54t15 91t6 134t-6 133.5t-15 90.5t-21 53.5t-23 27t-23 6.5zM721 1513l-412 -1513l-88 23l412 1513zM231 1479q-12 0 -22.5 -7
t-22.5 -27.5t-21 -53.5t-14.5 -90.5t-5.5 -133.5t5.5 -133.5t14.5 -91t21 -54t22.5 -27.5t22.5 -7t23 7t23 27.5t21 54t15 91t6 133.5t-6 133.5t-15 90.5t-21 54t-23 27.5t-23 6.5zM711 739q28 0 55 -9.5t55.5 -35.5t50 -65.5t35 -106t13.5 -151.5q0 -105 -20 -182t-53 -116
t-66.5 -56t-69.5 -17q-35 0 -68.5 17t-66 56t-52.5 116t-20 182t20 181t52.5 114.5t66 55.5t68.5 17zM231 1536q36 0 69.5 -17t66.5 -56t53 -115t20 -181q0 -85 -13.5 -152t-35 -107t-50 -66t-55.5 -35.5t-55 -9.5q-27 0 -53.5 9.5t-55 35.5t-49.5 66t-34.5 107t-13.5 152
q0 105 20 181.5t52.5 115t65.5 55.5t68 17zM1176 682q-12 0 -22.5 -6.5t-22.5 -27t-21 -53.5t-14.5 -90.5t-5.5 -133.5t5.5 -134t14.5 -91t21 -54t22.5 -28t22.5 -7t23 7t23 28t21 54t15 91t6 134t-6 133.5t-15 90.5t-21 53.5t-23 27t-23 6.5zM1176 739q28 0 55 -9.5
t55.5 -35.5t49.5 -65.5t34.5 -106t13.5 -151.5q0 -106 -20 -182.5t-52.5 -115.5t-66 -56t-69.5 -17q-35 0 -68.5 17t-66 56t-52.5 116t-20 182t20 181t52.5 114.5t66 55.5t68.5 17z" />
    <glyph glyph-name="guilsinglleft" unicode="&#x2039;" horiz-adv-x="382" 
d="M324 1120l-129 -241l129 -242q9 -21 -7 -28t-28 7l-223 240q-17 22 0 45l223 240q12 14 28 6.5t7 -27.5z" />
    <glyph glyph-name="guilsinglright" unicode="&#x203a;" horiz-adv-x="382" 
d="M188 879l-129 241q-9 20 7 27.5t28 -6.5l223 -240q17 -23 0 -45l-223 -240q-12 -14 -28 -7t-7 28z" />
    <glyph glyph-name="fraction" unicode="&#x2044;" horiz-adv-x="172" 
d="M334 1513l-412 -1513l-88 23l412 1513z" />
    <glyph glyph-name="Euro" unicode="&#x20ac;" horiz-adv-x="628" 
d="M348 1434q-61 0 -82.5 -123t-23.5 -416h174v-74h-174v-106h174v-74h-174q2 -294 23.5 -416.5t82.5 -122.5q51 1 99 61.5t73 124.5t25 95q0 10 6.5 16.5t13.5 6.5q17 0 17 -23q0 -61 -12 -124t-36.5 -123t-71 -98t-106.5 -38q-256 0 -266 641h-63v74h63v106h-63v74h63
q10 641 266 641q59 0 103.5 -38t68.5 -98.5t35.5 -123.5t11.5 -125q0 -23 -16 -23q-7 0 -12.5 6.5t-5.5 16.5q0 21 -15 66t-39.5 94.5t-62 86t-76.5 36.5z" />
    <glyph glyph-name="afii61289" unicode="&#x2113;" horiz-adv-x="604" 
d="M539 217l36 -24q-35 -92 -95 -141.5t-134 -49.5q-115 0 -158 84q-24 45 -33.5 110t-9.5 191v207l-67 -72l-23 43l90 101v258q0 261 15.5 373t60.5 186q58 106 133 106q61 0 97 -70t36 -196q0 -314 -208 -621v-270q0 -184 27 -256t89 -72q47 0 78.5 26t65.5 87zM279 1042
v-247q62 105 98.5 257t36.5 283q0 199 -66 199q-25 0 -40 -44.5t-22 -152t-7 -295.5z" />
    <glyph glyph-name="trademark" unicode="&#x2122;" horiz-adv-x="1067" 
d="M209 702v777h-47q-12 0 -21 -25l-67 -233q-3 -9 -8 -9q-9 0 -9 9v309q0 6 9 6h391q6 0 6 -6v-309q0 -9 -8 -9t-11 9l-67 233q-3 11 -8 18t-9 7h-49v-777q0 -21 13 -34l38 -35q2 -2 4.5 -4l4.5 -3.5t2 -2.5q0 -9 -11 -9h-206q-9 0 -9 9q0 1 2 2.5l4.5 3.5t4.5 4l39 35
q12 12 12 34zM524 702v746q0 18 -10 35l-33 35q-2 2 -5 4t-5 3.5t-2 2.5q0 8 10 8h174q14 0 17 -20l63 -476h4l76 476q3 20 14 20h174q9 0 9 -8q0 -1 -9 -10l-34 -35q-11 -18 -11 -35v-746q0 -16 11 -34l34 -35q9 -9 9 -10q0 -9 -9 -9h-186q-8 0 -8 9q0 1 1.5 2.5t4 4.5
t4.5 5l27 33q8 10 8 34v555q0 11 -4 11q-8 0 -8 -13l-90 -632q0 -9 -11 -9h-28q-5 0 -9 11l-84 630q-3 13 -10 13q-4 0 -4 -11v-555q0 -21 8 -34l29 -33q2 -2 4.5 -5t4 -4.5t1.5 -2.5q0 -9 -10 -9h-162q-10 0 -10 9q0 1 2 2.5t5 3.5t5 4l33 35q10 17 10 34z" />
    <glyph glyph-name="Omega" unicode="&#x2126;" horiz-adv-x="821" 
d="M780 256l-22 -256h-289l-8 23q35 137 48 192t41 188t40 242t12 209q0 288 -53.5 440t-140.5 152q-88 0 -140.5 -144t-52.5 -450t143 -827l-10 -25h-287l-22 256l45 2q14 -85 36.5 -112t57.5 -27h113l-48.5 89.5t-56 120t-59 157t-41 175.5t-18.5 199q0 293 98.5 467
t245.5 174q146 0 243 -173t97 -466q0 -109 -21.5 -219.5t-61.5 -213t-66 -158t-66 -131.5l-11 -21h115q41 0 58.5 24t35.5 115z" />
    <glyph glyph-name="estimated" unicode="&#x212e;" horiz-adv-x="1849" 
d="M1776 745h-1381q-10 0 -10 -8v-418q0 -28 18 -49q102 -105 237 -165t284 -60q163 0 305.5 67t245.5 187h120q-116 -138 -293.5 -218.5t-379.5 -80.5q-173 0 -330.5 61t-271 163.5t-181 244.5t-67.5 297q0 208 114 384.5t309.5 279t426.5 102.5q174 0 332.5 -60.5
t272.5 -163t181.5 -244.5t67.5 -298v-21zM1462 801v420q0 29 -20 49q-103 101 -236.5 159t-281.5 58q-147 0 -281 -59.5t-237 -163.5q-21 -21 -21 -54v-409q0 -15 10 -15h1059q8 0 8 15z" />
    <glyph glyph-name="partialdiff" unicode="&#x2202;" horiz-adv-x="692" 
d="M352 879h2q90 0 144 -105q13 105 16 234q9 159 -31 317q-54 201 -172 201q-83 0 -159 -76q-17 -3 -32 36.5t-9 69.5q75 68 163 68q90 0 159.5 -78.5t115.5 -220.5q67 -210 67 -483q0 -120 -16 -266t-45 -252q-42 -147 -109.5 -234.5t-154.5 -87.5q-105 0 -167.5 102
t-62.5 295q0 168 78 328q33 64 91.5 108t121.5 44zM375 811h-2q-75 0 -125 -125q-62 -183 -62 -391q0 -56 10.5 -109.5t35 -93t57.5 -39.5q40 0 75.5 67.5t59.5 160.5q44 175 61 405q-14 51 -42.5 88t-67.5 37z" />
    <glyph glyph-name="uni2206" unicode="&#x2206;" horiz-adv-x="815" 
d="M768 0h-723v45l332 1440l49 18l342 -1458v-45zM608 86l-241 1104l-240 -1104h481z" />
    <glyph glyph-name="product" unicode="&#x220f;" horiz-adv-x="892" 
d="M854 1470v-49q-84 -7 -103.5 -30.5t-19.5 -116.5v-1268q0 -91 21 -118t100 -33v-48h-348v48q67 6 82.5 29.5t15.5 119.5v1352q0 35 -9.5 46t-43.5 11h-205q-34 0 -43.5 -10t-9.5 -49v-1350q0 -89 7 -108q10 -26 53 -35q13 -3 34 -6v-48h-344v48q56 5 78.5 16t31.5 39
t9 94v1270q0 91 -20 114.5t-103 32.5v49h817z" />
    <glyph glyph-name="summation" unicode="&#x2211;" horiz-adv-x="716" 
d="M684 115l-59 -308h-580v41l315 746l-309 838v38h582q3 -53 14 -268l-49 -8q-15 94 -35 143q-17 46 -46 60t-107 14h-201l268 -704l-321 -766h290q48 0 72 4.5t47 24.5t37.5 55t34.5 102z" />
    <glyph glyph-name="minus" unicode="&#x2212;" 
d="M1130 467h-1032v102h1032v-102z" />
    <glyph glyph-name="uni2215" unicode="&#x2215;" horiz-adv-x="172" 
d="M334 1513l-412 -1513l-88 23l412 1513z" />
    <glyph glyph-name="uni2219" unicode="&#x2219;" horiz-adv-x="264" 
d="M131 922q38 0 57 -30.5t19 -72.5q0 -43 -19 -73.5t-57 -30.5q-37 0 -55.5 30.5t-18.5 73.5q0 42 18.5 72.5t55.5 30.5z" />
    <glyph glyph-name="radical" unicode="&#x221a;" horiz-adv-x="784" 
d="M752 1884l-238 -2203l-33 -13l-295 1123l-123 -46l-14 60l234 88l204 -860h5l194 1863z" />
    <glyph glyph-name="infinity" unicode="&#x221e;" horiz-adv-x="1159" 
d="M1090 623v-2q0 -114 -70 -185t-166 -71q-72 0 -135 38.5t-137 133.5q-70 -83 -134.5 -127.5t-148.5 -44.5q-96 0 -163.5 70.5t-67.5 176.5q0 111 67 181.5t174 70.5q80 0 145.5 -44.5t131.5 -127.5q3 3 21 23.5t22.5 25l21.5 22.5t24.5 23.5t24.5 20t28 20l28.5 15
t32.5 13t34 6.5t39 3q98 0 163 -67t65 -174zM311 455h2q33 0 62 11.5t59 38.5t46.5 45t49.5 58q-33 44 -50.5 65t-48 50t-61 41t-67.5 12q-68 0 -105.5 -47t-35.5 -119q0 -67 43 -111t106 -44zM852 776h-2q-27 0 -52.5 -9.5t-52.5 -33t-40 -36t-41.5 -46t-30.5 -35.5
q75 -93 119.5 -127t103.5 -34q64 0 102.5 48t38.5 109q0 76 -39.5 120t-105.5 44z" />
    <glyph glyph-name="integral" unicode="&#x222b;" horiz-adv-x="598" 
d="M254 8l-35 901q-7 126 -2.5 227.5t10.5 181.5t22 141t30.5 105.5t37 75t41.5 49.5t43 29t43 13.5t41 3.5q39 0 68 -22.5t29 -59.5q0 -35 -22 -54.5t-54 -19.5q-18 0 -30.5 10.5t-18 23.5t-15.5 23.5t-24 10.5q-86 0 -74 -314l33 -788q9 -162 3.5 -289t-15 -221.5
t-30.5 -163t-43 -113t-52.5 -70.5t-59.5 -36t-63 -10q-44 0 -72.5 25t-26.5 59q-3 39 22.5 61.5t63.5 22.5q19 0 32 -12t19 -26t16 -26t22 -12q33 0 50 71t11 203z" />
    <glyph glyph-name="approxequal" unicode="&#x2248;" horiz-adv-x="708" 
d="M596 844l66 -43q-23 -73 -71.5 -121.5t-111.5 -48.5q-59 0 -139 59q-71 55 -113 55q-40 0 -67 -29.5t-49 -86.5l-68 41q27 76 77.5 122t112.5 46q19 0 37.5 -4t36.5 -12.5t28.5 -14t26.5 -16.5l19 -13l41.5 -29.5t31 -17t33.5 -8.5q34 0 58 30t51 91zM596 584l66 -43
q-25 -74 -72.5 -122t-108.5 -48q-62 0 -141 59q-28 20 -42.5 29.5t-33.5 17.5t-37 8q-40 0 -66.5 -31.5t-49.5 -86.5l-68 41q26 77 77 122t113 45q13 0 25.5 -2t22.5 -4t22.5 -7.5l19 -8.5t18 -10t14.5 -9l15 -10l11 -8q4 -3 14 -9.5t13.5 -9t12 -8t12.5 -7.5t11 -6
t11.5 -5.5t10.5 -4t11 -3t10 -0.5q34 0 58 30t51 91z" />
    <glyph glyph-name="notequal" unicode="&#x2260;" horiz-adv-x="708" 
d="M516 928l-51 -129h172v-99h-203l-80 -202h283v-97h-313l-60 -151l-71 26l49 125h-174v97h206l76 202h-282v99h315l61 155z" />
    <glyph glyph-name="lessequal" unicode="&#x2264;" horiz-adv-x="708" 
d="M635 279l-561 368v98l561 367v-121l-469 -291v-6l469 -293v-122zM641 109h-569v102h569v-102z" />
    <glyph glyph-name="greaterequal" unicode="&#x2265;" horiz-adv-x="708" 
d="M78 1112l561 -367v-98l-563 -368v120l469 293v4l-467 295v121zM641 109h-571v102h571v-102z" />
    <glyph glyph-name="lozenge" unicode="&#x25ca;" horiz-adv-x="794" 
d="M715 729l-254 -829h-129l-254 829l258 832h127zM612 729l-211 725h-6l-215 -723l215 -731h6z" />
    <glyph glyph-name="fi" unicode="&#xfb01;" horiz-adv-x="630" 
d="M401 113v927q0 11 -6 17l-61 57q-8 12 -8 16q0 9 12 9h197q10 0 10 -13v-1013q0 -15 4 -19l63 -71q9 -9 9 -15q0 -8 -13 -8h-270q-12 0 -12 8q0 7 8 15l63 71q4 4 4 19zM86 113v901q0 14 -18 37l-62 63q-6 5 -7.5 11t0.5 10t7 4h64q16 0 16 18v68q0 73 25.5 134.5
t66 98.5t87.5 57.5t93 20.5q195 0 195 -106q0 -40 -21 -63.5t-53 -23.5q-25 0 -43.5 18.5t-23.5 41.5q-5 27 -23 44t-47 17q-55 0 -84 -55.5t-29 -196.5v-55q0 -18 17 -18h61q5 0 7 -4t0.5 -10t-7.5 -11l-61 -63q-17 -21 -17 -37v-901q0 -15 2 -19l76 -71q8 -8 8 -15
q0 -8 -12 -8h-280q-13 0 -13 8q0 10 8 15l64 71q4 4 4 19z" />
    <glyph glyph-name="fl" unicode="&#xfb02;" horiz-adv-x="638" 
d="M86 113v901q0 14 -18 37l-62 63q-6 5 -7.5 11t0.5 10t7 4h64q16 0 16 18v68q0 73 25.5 134.5t66 98.5t87.5 57.5t93 20.5h185q10 0 10 -12v-1411q0 -15 4 -19l64 -71q8 -8 8 -15q0 -8 -13 -8h-270q-12 0 -12 8q0 7 8 15l64 71q4 4 4 19v1325q0 10 -27 18t-41 8
q-55 0 -84 -55.5t-29 -196.5v-55q0 -18 17 -18h61q5 0 7 -4t0.5 -10t-7.5 -11l-61 -63q-17 -21 -17 -37v-901q0 -15 2 -19l76 -71q8 -8 8 -15q0 -8 -12 -8h-280q-13 0 -13 8q0 10 8 15l64 71q4 4 4 19z" />
    <glyph glyph-name="a.superior" horiz-adv-x="442" 
d="M336 1382v-446q0 -29 18 -29q9 0 19.5 4.5t13.5 10.5q7 10 12 10q8 0 2 -21q-7 -21 -26 -40t-41 -19t-40.5 8.5t-24.5 14t-21 20.5q-43 -43 -109 -43q-54 0 -77 53t-23 156q0 52 7.5 87t32 67.5t50 55t80.5 64.5q24 18 24 64q0 80 -57 80q-63 0 -102 -39q-10 -10 -19 -10
q-8 0 -8 10q0 4 6 14t19.5 24t31.5 27t45 22t56 9q20 0 40.5 -6.5t42 -22t35 -48t13.5 -77.5zM233 983v317h-4q-55 -40 -71.5 -89.5t-16.5 -137.5q0 -98 9 -131t32 -33q21 0 36 22t15 52z" />
    <glyph glyph-name="o.superior" horiz-adv-x="442" 
d="M221 1536q75 0 128.5 -81.5t53.5 -256.5q0 -180 -53.5 -263t-128.5 -83q-80 0 -131 81.5t-51 264.5q0 175 53.5 256.5t128.5 81.5zM221 1479q-12 0 -22 -4.5t-21 -22t-19 -46.5t-13 -82.5t-5 -125.5q0 -76 5 -131t12.5 -85t19 -47t21.5 -21.5t22 -4.5t22 4.5t21.5 21.5
t19 47t12.5 85t5 131q0 72 -5 125.5t-13 82.5t-19 46.5t-21 22t-22 4.5z" />
    <glyph glyph-name="one.superior" horiz-adv-x="348" 
d="M123 702v687q0 10 -6 14l-60 31q-8 4 -8 8q0 3 10 8q46 8 82.5 30t53.5 46q1 1 3 4t3.5 4.5t3.5 1.5h18q11 0 8 -14q-6 -24 -6 -125v-695q0 -21 13 -34l38 -35q2 -2 4.5 -4l4.5 -3.5t2 -2.5q0 -9 -8 -9h-205q-11 0 -11 9q0 1 2 2.5l4.5 3.5t4.5 4l41 35q8 6 8 34z" />
    <glyph glyph-name="two.superior" horiz-adv-x="423" 
d="M340 614h-268q-12 0 -4 17l22 45q0 8 -2 30t-2 35q0 99 82 238q92 153 92 354q0 76 -12 106.5t-41 30.5q-19 0 -35.5 -8t-29.5 -25.5t-20.5 -30t-19.5 -37.5t-16 -32q-6 -12 -18 -12q-11 0 -11 16q11 81 60.5 138t111.5 57q63 0 100.5 -52.5t37.5 -148.5
q0 -210 -131 -399q-66 -101 -66 -182q0 -46 16 -62h99q10 0 18 19l41 100q7 14 14 14q9 0 9 -10l-15 -190q0 -11 -12 -11z" />
    <glyph glyph-name="three.superior" horiz-adv-x="432" 
d="M143 1085v19q0 10 13 10q47 0 80.5 42t33.5 138q0 172 -65 172q-16 0 -32 -9t-28 -22t-23.5 -30t-18.5 -30l-13 -25t-6 -13q-6 -12 -18 -12q-9 0 -9 16q11 81 60.5 138t111.5 57q64 0 105 -55.5t41 -155.5q0 -98 -36 -154.5t-83 -72.5v-2q119 -40 119 -244
q0 -238 -170 -238q-76 0 -112 69.5t-36 164.5q0 16 11 16q13 0 16 -14q5 -25 16 -58t38 -70.5t59 -37.5q36 0 54.5 38.5t18.5 147.5q0 98 -34.5 152.5t-79.5 54.5q-13 0 -13 8z" />
    </font>
</defs>
</svg>
