<?xml version="1.0" standalone="no"?> <!DOCTYPE svg PUBLIC "-//W3C//DTD SVG 1.0//EN" "http://www.w3.org/TR/2001/REC-SVG-20010904/DTD/svg10.dtd" > <svg xmlns="http://www.w3.org/2000/svg" width="100%" height="100%">
<defs >
<font id="cassannet" horiz-adv-x="815" ><font-face
    font-family="Cassannet Regular"
    units-per-em="2048"
    panose-1="2 0 5 3 0 0 0 2 0 3"
    ascent="1536"
    descent="-512"
    alphabetic="0" />
<missing-glyph horiz-adv-x="813" />
<glyph unicode=" " glyph-name="space" horiz-adv-x="514" />
<glyph unicode="!" glyph-name="exclam" horiz-adv-x="638" d="M227 362V1434H412V362H227ZM184 111Q184 167 223 207T319 248Q374 248 414 208T455 111Q455 54 415 14T319 -27Q262 -27 223 13T184 111Z" />
<glyph unicode="&quot;" glyph-name="quotedbl" horiz-adv-x="747" d="M127 1434H313L281 813H162L127 1434ZM434 1434H621L586 813H469L434 1434Z" />
<glyph unicode="#" glyph-name="numbersign" horiz-adv-x="1163" d="M145 844V997H375L440 1366H588L520 997H760L825 1366H973L905 997H1079V844H877L823 551H1018V397H795L723 0H582L651 397H410L338 0H197L266 397H84V551H295L346 844H145ZM492 844L438 551H680L731
844H492Z" />
<glyph unicode="$" glyph-name="dollar" horiz-adv-x="1169" d="M535 -184V0H150V205H535V625H469Q305 625 189 746T72 1034Q72 1199 188 1316T469 1434H535V1618H647V1434H926V1239H647V821H705Q873 821 991 702T1110 416Q1110 247 991 124T705 0H647V-184H535ZM494
821H535V1239H494Q408 1239 347 1178T285 1030T346 883T494 821ZM668 625H647V205H668Q761 205 825 264T889 414Q889 505 825 565T668 625Z" />
<glyph unicode="%" glyph-name="percent" horiz-adv-x="1400" d="M1063 1458L1169 1397L338 -39L229 20L1063 1458ZM170 1133Q170 1046 229 985T379 924Q470 924 530 985T590 1133Q590 1222 530 1282T379 1343Q289 1343 230 1283T170 1133ZM51 1130Q51 1266 147
1362T379 1458Q515 1458 612 1362T709 1130Q709 998 612 904T379 809T148 903T51 1130ZM809 297Q809 210 868 149T1018 88Q1109 88 1169 149T1229 297Q1229 386 1169 447T1018 508Q928 508 869 447T809 297ZM690 295Q690 431 786 527T1018 623Q1154 623 1251 527T1348
295Q1348 163 1251 68T1018 -27T787 68T690 295Z" />
<glyph unicode="&amp;" glyph-name="ampersand" horiz-adv-x="1189" d="M969 371H739L606 625H508Q415 625 351 565T287 414Q287 324 351 265T508 205H1126V0H471Q304 0 185 123T66 416Q66 582 184 701T471 821H504L184 1434H995V1257H510L969 371Z" />
<glyph unicode="&apos;" glyph-name="quotesingle" horiz-adv-x="440" d="M127 1434H313L281 813H162L127 1434Z" />
<glyph unicode="(" glyph-name="parenleft" horiz-adv-x="655" d="M131 383T131 604T168 1051T283 1466H510Q424 1285 384 1060T344 604T384 149T510 -258H283Q206 -70 169 156Z" />
<glyph unicode=")" glyph-name="parenright" horiz-adv-x="655" d="M524 826T524 604T487 156T373 -258H145Q231 -77 271 148T311 604T271 1059T145 1466H373Q450 1279 487 1053Z" />
<glyph unicode="*" glyph-name="asterisk" horiz-adv-x="751" d="M328 1434H469V1239L635 1337L707 1217L532 1114L707 1012L635 893L469 995V799H328V997L150 897L80 1014L254 1114L82 1217L145 1333L328 1233V1434Z" />
<glyph unicode="+" glyph-name="plus" horiz-adv-x="1048" d="M436 1061H612V618H1049V442H612V0H436V442H0V618H436V1061Z" />
<glyph unicode="," glyph-name="comma" horiz-adv-x="509" d="M59 -233L195 205H422L186 -233H59Z" />
<glyph unicode="-" glyph-name="hyphen" horiz-adv-x="759" d="M106 412V592H651V412H106Z" />
<glyph unicode="." glyph-name="period" horiz-adv-x="466" d="M100 111Q100 167 139 207T236 248Q291 248 331 208T371 111Q371 54 332 14T236 -27Q179 -27 140 13T100 111Z" />
<glyph unicode="/" glyph-name="slash" horiz-adv-x="1093" d="M848 1509L1018 1434L244 -348L76 -272L848 1509Z" />
<glyph unicode="0" glyph-name="zero" horiz-adv-x="1255" d="M508 1458T627 1458T842 1414T1002 1298T1107 1128T1168 928T1186 717T1168 506T1108 305T1003 135T843 18T627 -27T411 17T252 134T147 305T86 505T68 717T86 928T146 1127T252 1297T411 1414ZM532
154T627 154T791 199T899 324T955 502T973 717T956 931T900 1108T792 1233T627 1278T462 1234T355 1109T299 932T281 717T298 502T354 325T462 199Z" />
<glyph unicode="1" glyph-name="one" horiz-adv-x="692" d="M338 1260H131V1436H539V0H338V1260Z" />
<glyph unicode="2" glyph-name="two" horiz-adv-x="1128" d="M109 1030Q109 1145 171 1243T339 1400T569 1458T799 1400T968 1244T1030 1030Q1030 942 1003 878T915 737L475 176H1020V0H98L563 602Q440 603 336 661T170 818T109 1030ZM315 1133T315 1030T388 854T565
780T742 853T817 1030T743 1206T565 1280T389 1207Z" />
<glyph unicode="3" glyph-name="three" horiz-adv-x="1062" d="M492 670H322L655 1257H170V1434H981L641 827Q794 808 902 697T1010 432Q1010 304 957 202T791 36T526 -27Q327 -27 203 85T78 379H287Q293 275 358 215T526 154Q651 154 724 223T797 408Q797 528
716 599T492 670Z" />
<glyph unicode="4" glyph-name="four" horiz-adv-x="1222" d="M999 422H1176V246H999V0H799V246H59L999 1460V422ZM799 422V924L416 422H799Z" />
<glyph unicode="5" glyph-name="five" horiz-adv-x="1021" d="M883 1257H356L326 993Q353 999 410 999Q559 999 685 930T884 742T958 483Q958 266 804 117T410 -33Q177 -33 20 121L137 258Q189 206 263 177T410 147Q554 147 649 244T745 483Q745 621 639 720T391
819Q308 819 247 794T129 721L207 1434H883V1257Z" />
<glyph unicode="6" glyph-name="six" horiz-adv-x="1054" d="M63 426Q63 562 141 680L670 1468L821 1356L510 883H524Q719 883 855 749T991 426Q991 239 855 106T524 -27Q334 -27 199 106T63 426ZM778 315T778 428T705 618T528 696T350 619T276 428T350 238T528
160T705 237Z" />
<glyph unicode="7" glyph-name="seven" horiz-adv-x="1159" d="M186 57L801 1257H123V1434H1110L354 -35L186 57Z" />
<glyph unicode="8" glyph-name="eight" horiz-adv-x="1087" d="M667 -27T543 -27T314 29T146 183T84 395Q84 502 139 596T289 748Q216 803 175 884T133 1061Q133 1225 253 1341T543 1458T832 1342T952 1061Q952 966 911 885T797 748Q891 690 946 596T1001 395Q1001
280 940 183T773 30ZM646 647T543 647T369 577T297 403Q297 301 368 232T543 162T717 231T788 403Q788 506 717 576ZM633 1272T543 1272T394 1211T334 1057Q334 965 393 905T543 844T692 904T752 1057Q752 1150 693 1211Z" />
<glyph unicode="9" glyph-name="nine" horiz-adv-x="1054" d="M991 1006Q991 867 913 752L385 -37L233 76L545 549H530Q335 549 199 683T63 1006Q63 1193 199 1325T530 1458Q720 1458 855 1325T991 1006ZM276 1117T276 1004T349 813T526 735Q630 735 704 813T778
1004T704 1194T526 1272T349 1195Z" />
<glyph unicode=":" glyph-name="colon" horiz-adv-x="466" d="M100 111Q100 167 139 207T236 248Q291 248 331 208T371 111Q371 54 332 14T236 -27Q179 -27 140 13T100 111ZM100 836Q100 892 139 932T236 973Q291 973 331 933T371 836Q371 779 332 739T236 698Q179
698 140 738T100 836Z" />
<glyph unicode=";" glyph-name="semicolon" horiz-adv-x="509" d="M184 836Q184 892 223 932T319 973Q374 973 414 933T455 836Q455 779 415 739T319 698Q262 698 223 738T184 836ZM59 -233L195 205H422L186 -233H59Z" />
<glyph unicode="=" glyph-name="equal" horiz-adv-x="1048" d="M0 874H1049V698H0V874ZM0 496H1049V319H0V496Z" />
<glyph unicode="?" glyph-name="question" horiz-adv-x="1157" d="M696 356H498Q498 423 515 483T561 589T624 678T692 760T755 838T801 924T819 1020Q819 1123 751 1193T573 1264Q468 1264 404 1191T340 1014H139Q139 1201 259 1329T573 1458Q770 1458 897 1333T1024
1020Q1024 932 990 857T908 727T812 619T730 499T696 356ZM455 111Q455 167 494 207T590 248Q645 248 685 208T725 111Q725 54 686 14T590 -27Q533 -27 494 13T455 111Z" />
<glyph unicode="@" glyph-name="at" horiz-adv-x="1490" d="M864 821H1133V995Q1021 1042 897 1042Q726 1042 584 956T361 726T281 414Q281 289 330 175T461 -22T658 -154T897 -203V-408Q737 -408 586 -345T320 -173T136 89T66 414Q66 639 175 830T475 1134T897
1247Q1017 1247 1134 1214T1337 1122V0H864Q697 0 578 123T459 416Q459 582 577 701T864 821ZM1133 205V625H901Q808 625 744 565T680 414Q680 324 744 265T901 205H1133Z" />
<glyph unicode="A" glyph-name="A" horiz-adv-x="1273" d="M874 358H399L252 0H31L637 1460L1243 0H1022L874 358ZM805 543L637 971L469 543H805Z" />
<glyph unicode="B" glyph-name="B" horiz-adv-x="1204" d="M940 758Q1027 711 1078 622T1130 420Q1130 248 1007 124T711 0H154V1434H700Q860 1434 973 1321T1087 1047Q1087 889 940 758ZM666 1249H362V842H666Q752 842 811 900T870 1044Q870 1130 811 1189T666
1249ZM362 184H676Q772 184 842 255T913 420Q913 518 844 587T676 657H362V184Z" />
<glyph unicode="C" glyph-name="C" horiz-adv-x="1159" d="M1055 250V18Q931 -27 801 -27Q600 -27 431 72T164 342T66 715Q66 867 124 1004T280 1241T514 1399T801 1458Q931 1458 1055 1413V1180Q937 1253 801 1253Q663 1253 546 1181T360 985T291 715Q291 570
359 446T545 250T801 178T1055 250Z" />
<glyph unicode="D" glyph-name="D" horiz-adv-x="1417" d="M362 184H631Q774 184 890 256T1069 449T1133 717Q1133 862 1069 984T889 1177T631 1249H362V184ZM154 0V1434H655Q797 1434 925 1377T1147 1224T1295 996T1350 717Q1350 522 1260 358T1009 97T655 0H154Z" />
<glyph unicode="E" glyph-name="E" horiz-adv-x="1099" d="M154 0V1434H989V1233H362V887H961V690H362V205H1001V0H154Z" />
<glyph unicode="F" glyph-name="F" horiz-adv-x="1099" d="M154 0V1434H989V1233H362V854H961V657H362V0H154Z" />
<glyph unicode="G" glyph-name="G" horiz-adv-x="1622" d="M782 635V827H1528Q1536 778 1536 715Q1536 563 1481 427T1330 190T1096 32T801 -27Q600 -27 431 72T164 342T66 715Q66 867 124 1004T280 1241T514 1399T801 1458Q978 1458 1132 1378T1389 1161Q1378
1152 1360 1139T1304 1096T1240 1047T1214 1028Q1143 1132 1035 1192T801 1253Q663 1253 546 1181T360 985T291 715Q291 570 359 446T545 250T801 178Q1017 178 1158 305T1311 635H782Z" />
<glyph unicode="H" glyph-name="H" horiz-adv-x="1284" d="M154 0V1434H362V817H922V1434H1130V0H922V633H362V0H154Z" />
<glyph unicode="I" glyph-name="I" horiz-adv-x="516" d="M154 0V1434H362V0H154Z" />
<glyph unicode="J" glyph-name="J" horiz-adv-x="976" d="M43 399H252Q252 288 301 235T432 182Q508 182 561 236T614 365V1434H823V367Q823 203 709 88T432 -27Q265 -27 154 87T43 399Z" />
<glyph unicode="K" glyph-name="K" horiz-adv-x="1159" d="M154 0V1434H362V782L840 1434H1079L590 772L1122 0H858L461 600L362 467V0H154Z" />
<glyph unicode="L" glyph-name="L" horiz-adv-x="997" d="M154 0V1434H362V205H948V0H154Z" />
<glyph unicode="M" glyph-name="M" horiz-adv-x="1679" d="M350 1460L829 455L1309 1460L1579 0H1362L1221 809L829 -27L438 809L297 0H80L350 1460Z" />
<glyph unicode="N" glyph-name="N" horiz-adv-x="1409" d="M143 0V1434H336L1069 530V1434H1266V-25L340 1081V0H143Z" />
<glyph unicode="O" glyph-name="O" horiz-adv-x="1601" d="M66 715Q66 867 124 1004T280 1241T514 1399T801 1458T1087 1400T1322 1242T1478 1005T1536 715Q1536 513 1438 343T1171 73T801 -27T431 72T164 342T66 715ZM291 715Q291 570 359 446T545 250T801 178T1056
250T1242 446T1311 715Q1311 861 1243 985T1057 1181T801 1253T546 1181T360 985T291 715Z" />
<glyph unicode="P" glyph-name="P" horiz-adv-x="1198" d="M1133 956Q1133 826 1070 717T897 544T659 481H362V0H154V1434H659Q788 1434 897 1370T1069 1195T1133 956ZM915 956Q915 1078 833 1163T631 1249H362V666H631Q765 666 840 746T915 956Z" />
<glyph unicode="Q" glyph-name="Q" horiz-adv-x="1605" d="M68 715Q68 867 126 1004T282 1241T516 1399T803 1458T1089 1400T1324 1242T1480 1005T1538 715Q1538 530 1454 370T1225 106T901 -20V-309H705V-20Q527 3 382 106T152 369T68 715ZM293 715Q293 522 411
373T705 188V383H901V188Q1077 224 1195 373T1313 715Q1313 861 1245 985T1059 1181T803 1253T548 1181T362 985T293 715Z" />
<glyph unicode="R" glyph-name="R" horiz-adv-x="1277" d="M918 512Q1043 440 1100 321T1157 59V0H944V59Q944 120 922 182T860 298T757 386T618 420H365V0H154V1434H618Q769 1434 892 1369T1086 1188T1157 926Q1157 783 1086 673T918 512ZM940 926Q940 1054 854
1151T643 1249H365V604H643Q767 604 853 703T940 926Z" />
<glyph unicode="S" glyph-name="S" horiz-adv-x="1169" d="M494 821H705Q873 821 991 702T1110 416Q1110 247 991 124T705 0H150V205H668Q761 205 825 264T889 414Q889 505 825 565T668 625H469Q305 625 189 746T72 1034Q72 1199 188 1316T469 1434H926V1239H494Q408
1239 347 1178T285 1030T346 883T494 821Z" />
<glyph unicode="T" glyph-name="T" horiz-adv-x="1028" d="M410 0V1233H55V1434H973V1233H618V0H410Z" />
<glyph unicode="U" glyph-name="U" horiz-adv-x="1271" d="M154 1434H362V457Q362 341 445 258T645 174T846 257T930 457V1434H1139V457Q1139 324 1073 213T892 37T643 -27Q439 -27 297 114T154 457V1434Z" />
<glyph unicode="V" glyph-name="V" horiz-adv-x="1253" d="M1217 1434L627 -25L37 1434H256L627 522L997 1434H1217Z" />
<glyph unicode="W" glyph-name="W" horiz-adv-x="1642" d="M1606 1434L1016 -25L821 455L627 -25L37 1434H256L627 522L711 725L426 1434H645L1016 522L1386 1434H1606Z" />
<glyph unicode="X" glyph-name="X" horiz-adv-x="1099" d="M332 1434L551 1001L770 1434H993L653 770L1049 0H827L551 535L274 0H53L449 770L109 1434H332Z" />
<glyph unicode="Y" glyph-name="Y" horiz-adv-x="1163" d="M686 604V0H477V604L35 1434H266L582 811L897 1434H1128L686 604Z" />
<glyph unicode="Z" glyph-name="Z" horiz-adv-x="1034" d="M958 0H49L627 1233H127V1434H961L379 205H958V0Z" />
<glyph unicode="[" glyph-name="bracketleft" horiz-adv-x="645" d="M338 1294V-88H522V-260H133V1466H522V1294H338Z" />
<glyph unicode="\" glyph-name="backslash" horiz-adv-x="1093" d="M76 1434L246 1509L1018 -272L850 -348L76 1434Z" />
<glyph unicode="]" glyph-name="bracketright" horiz-adv-x="645" d="M307 -88V1294H123V1466H512V-260H123V-88H307Z" />
<glyph unicode="_" glyph-name="underscore" horiz-adv-x="1310" d="M1270 -139V-279H39V-139H1270Z" />
<glyph unicode="`" glyph-name="grave" horiz-adv-x="468" d="M238 1346L432 1079H289L37 1346H238Z" />
<glyph unicode="a" glyph-name="a" horiz-adv-x="901" d="M610 170H293L221 0H14L451 987L887 0H680L610 170ZM549 344L451 575L352 344H549Z" />
<glyph unicode="b" glyph-name="b" horiz-adv-x="933" d="M750 512Q809 480 846 420T883 285Q883 169 798 85T596 0H123V963H590Q697 963 773 889T850 705Q850 600 750 512ZM319 782V594H545Q585 594 613 622T641 688T613 754T545 782H319ZM319 184H553Q601 184
634 218T668 301Q668 348 634 383T553 418H319V184Z" />
<glyph unicode="c" glyph-name="c" horiz-adv-x="788" d="M43 477Q43 616 112 733T298 917T553 985Q638 985 715 958V748Q642 795 553 795Q425 795 338 702T250 477Q250 347 337 255T553 162Q645 162 715 209V-2Q629 -29 553 -29Q416 -29 299 38T112 222T43 477Z" />
<glyph unicode="d" glyph-name="d" horiz-adv-x="1071" d="M319 184H508Q638 184 722 270T807 483T723 695T508 782H319V184ZM123 0V963H561Q688 963 795 899T965 725T1028 483T967 241T799 65T561 0H123Z" />
<glyph unicode="e" glyph-name="e" horiz-adv-x="770" d="M123 0V963H692V778H319V594H672V414H319V184H700V0H123Z" />
<glyph unicode="f" glyph-name="f" horiz-adv-x="770" d="M123 0V963H692V778H319V573H672V393H319V0H123Z" />
<glyph unicode="g" glyph-name="g" horiz-adv-x="1095" d="M961 786L799 668Q759 727 694 761T553 795Q425 795 338 702T250 477Q250 347 337 255T553 162Q657 162 733 221T842 373H541V553H1059Q1065 515 1065 477Q1065 340 996 224T809 39T553 -29Q416 -29 299
39T112 223T43 477Q43 616 112 733T298 917T553 985Q815 985 961 786Z" />
<glyph unicode="h" glyph-name="h" horiz-adv-x="1015" d="M123 0V963H319V571H696V963H893V0H696V399H319V0H123Z" />
<glyph unicode="i" glyph-name="i" horiz-adv-x="442" d="M123 0V963H319V0H123Z" />
<glyph unicode="j" glyph-name="j" horiz-adv-x="800" d="M39 309H236Q236 235 269 199T356 162Q408 162 444 198T481 285V963H678V295Q678 163 584 68T356 -27T131 67T39 309Z" />
<glyph unicode="k" glyph-name="k" horiz-adv-x="903" d="M123 0V963H319V549L610 963H831L516 535L899 0H651L395 373L319 272V0H123Z" />
<glyph unicode="l" glyph-name="l" horiz-adv-x="770" d="M123 0V963H319V184H713V0H123Z" />
<glyph unicode="m" glyph-name="m" horiz-adv-x="1187" d="M842 461L594 -25L346 461L258 0H74L266 987L594 346L922 987L1114 0H930L842 461Z" />
<glyph unicode="n" glyph-name="n" horiz-adv-x="1021" d="M123 0V963H295L715 471V963H899V-25L307 686V0H123Z" />
<glyph unicode="o" glyph-name="o" horiz-adv-x="1107" d="M553 -29Q416 -29 299 39T112 223T43 477Q43 616 112 733T298 917T553 985T809 918T996 733T1065 477Q1065 340 996 224T809 39T553 -29ZM553 162Q682 162 770 254T858 477Q858 609 770 702T553 795Q425
795 338 702T250 477Q250 347 337 255T553 162Z" />
<glyph unicode="p" glyph-name="p" horiz-adv-x="892" d="M864 643Q864 508 771 410T547 311H319V0H123V963H547Q678 963 771 869T864 643ZM655 577T655 637T613 739T510 782H319V492H510Q570 492 612 534Z" />
<glyph unicode="q" glyph-name="q" horiz-adv-x="1107" d="M475 -221V-23Q291 5 167 147T43 477Q43 616 112 733T298 917T553 985T809 918T996 733T1065 477Q1065 289 941 147T633 -23V-221H475ZM633 311V172Q733 198 795 283T858 477Q858 609 770 702T553 795Q425
795 338 702T250 477Q250 368 312 283T475 172V311H633Z" />
<glyph unicode="r" glyph-name="r" horiz-adv-x="923" d="M449 283H319V0H123V963H547Q678 963 771 869T864 643Q864 556 823 474T713 340Q788 302 826 224T864 55V0H668V45Q668 133 608 208T449 283ZM655 623Q655 688 609 735T496 782H319V463H496Q562 463 608
510T655 623Z" />
<glyph unicode="s" glyph-name="s" horiz-adv-x="804" d="M344 586H459Q582 586 667 501T752 293Q752 178 663 89T459 0H106V176H444Q491 176 525 210T559 291T525 372T444 406H332Q216 406 135 487T53 684Q53 801 134 882T332 963H629V786H344Q303 786 274 757T244
686T273 616T344 586Z" />
<glyph unicode="t" glyph-name="t" horiz-adv-x="790" d="M297 0V774H59V963H727V774H494V0H297Z" />
<glyph unicode="u" glyph-name="u" horiz-adv-x="913" d="M610 -27T467 -27T224 73T123 317V963H319V309Q319 248 362 205T467 162Q528 162 571 205T614 309V963H811V317Q811 174 711 74Z" />
<glyph unicode="v" glyph-name="v" horiz-adv-x="880" d="M223 963L440 412L657 963H854L440 -25L27 963H223Z" />
<glyph unicode="w" glyph-name="w" horiz-adv-x="1220" d="M778 371L995 963H1192L778 -25L618 344L465 -25L29 963H225L473 371L539 537L367 963H561L778 371Z" />
<glyph unicode="x" glyph-name="x" horiz-adv-x="868" d="M618 0L434 360L250 0H31L297 516L68 963H287L434 674L582 963H801L571 516L838 0H618Z" />
<glyph unicode="y" glyph-name="y" horiz-adv-x="884" d="M248 963L442 580L637 963H856L541 406V0H344V406L29 963H248Z" />
<glyph unicode="z" glyph-name="z" horiz-adv-x="886" d="M807 0H31L500 782H98V963H840L371 184H807V0Z" />
<glyph unicode="{" glyph-name="braceleft" horiz-adv-x="624" d="M254 602Q410 560 410 313V-27Q410 -53 428 -71T473 -90H555V-262H375Q303 -262 252 -211T201 -86V313Q201 432 169 479T47 526V678Q137 678 169 725T201 891V1290Q201 1363 252 1414T375 1466H555V1294H473Q447
1294 429 1276T410 1231V891Q410 644 254 602Z" />
<glyph unicode="|" glyph-name="bar" horiz-adv-x="616" d="M205 -406V1536H412V-406H205Z" />
<glyph unicode="}" glyph-name="braceright" horiz-adv-x="624" d="M371 602Q215 644 215 891V1231Q215 1257 197 1275T152 1294H70V1466H250Q322 1466 373 1415T424 1290V891Q424 772 456 725T578 678V526Q488 526 456 479T424 313V-86Q424 -159 373 -210T250
-262H70V-90H152Q178 -90 196 -72T215 -27V313Q215 560 371 602Z" />
</font>
</defs>
</svg>
